STARTFONT 2.1
COMMENT
COMMENT Converted from OpenType font "Patriot-Bold.otf" by "otf2bdf 3.0".
COMMENT
FONT -FreeType-Patriot Bold-Medium-R-Normal--89-640-100-100-P-441-ISO10646-1
SIZE 64 100 100
FONTBOUNDINGBOX 155 116 -37 -25
STARTPROPERTIES 19
FOUNDRY "FreeType"
FAMILY_NAME "Patriot Bold"
WEIGHT_NAME "Medium"
SLANT "R"
SETWIDTH_NAME "Normal"
ADD_STYLE_NAME ""
PIXEL_SIZE 89
POINT_SIZE 640
RESOLUTION_X 100
RESOLUTION_Y 100
SPACING "P"
AVERAGE_WIDTH 441
CHARSET_REGISTRY "ISO10646"
CHARSET_ENCODING "1"
FONT_ASCENT 89
FONT_DESCENT 17
COPYRIGHT "Copyright © 2020 by Behalf Studio. All rights reserved."
_OTF_FONTFILE "Patriot-Bold.otf"
_OTF_PSNAME "Patriot-Bold"
ENDPROPERTIES
CHARS 426
STARTCHAR 0020
ENCODING 32
SWIDTH 382 0
DWIDTH 34 0
BBX 0 0 0 0
BITMAP
ENDCHAR
STARTCHAR 0021
ENCODING 33
SWIDTH 281 0
DWIDTH 25 0
BBX 15 63 5 -1
BITMAP
7FF8
7FF8
7FF8
7FF8
7FF8
7FF8
7FF8
7FF8
7FF8
7FF8
7FF8
7FF8
7FF8
7FF8
7FF8
7FF8
7FF8
7FF8
7FF8
7FF8
7FF8
7FF8
7FF8
7FF8
7FF8
7FF8
7FF8
7FF8
7FF8
7FF8
7FF8
7FF8
7FF8
7FF8
7FF8
7FF8
7FF8
7FF8
7FF8
7FF8
0000
0000
0000
0000
0000
0000
0000
0000
07C0
1FF0
3FF8
7FFC
7FFE
FFFE
FFFE
FFFE
FFFE
FFFE
7FFE
7FFC
3FFC
1FF8
0FE0
ENDCHAR
STARTCHAR 0022
ENCODING 34
SWIDTH 348 0
DWIDTH 31 0
BBX 22 19 5 43
BITMAP
FF03FC
FF03FC
FF03FC
FF03FC
FF03FC
FF03FC
FF03FC
FF03FC
FF03FC
FF03FC
FF03FC
FF03FC
FF03FC
FF03FC
FF03FC
FF03FC
FF03FC
FF03FC
FF03FC
ENDCHAR
STARTCHAR 0023
ENCODING 35
SWIDTH 652 0
DWIDTH 58 0
BBX 48 62 5 0
BITMAP
0007FF007FF0
0007FF007FF0
0007FF007FF0
0007FF007FE0
0007FE007FE0
0007FE007FE0
0007FE00FFE0
000FFE00FFE0
000FFE00FFE0
000FFE00FFE0
000FFE00FFC0
000FFC00FFC0
000FFC00FFC0
000FFC01FFC0
000FFC01FFC0
001FFC01FFC0
001FFC01FFC0
001FFC01FF80
1FFFFFFFFFFF
1FFFFFFFFFFF
1FFFFFFFFFFF
1FFFFFFFFFFF
1FFFFFFFFFFF
1FFFFFFFFFFF
1FFFFFFFFFFF
1FFFFFFFFFFF
003FF003FF00
003FF007FF00
003FF007FF00
007FF007FF00
007FF007FF00
007FF007FE00
007FE007FE00
007FE007FE00
007FE007FE00
007FE00FFE00
FFFFFFFFFFFC
FFFFFFFFFFFC
FFFFFFFFFFFC
FFFFFFFFFFFC
FFFFFFFFFFFC
FFFFFFFFFFFC
FFFFFFFFFFFC
FFFFFFFFFFFC
FFFFFFFFFFFC
01FFC01FF800
01FF801FF800
01FF801FF800
01FF803FF800
01FF803FF800
03FF803FF800
03FF803FF800
03FF803FF000
03FF003FF000
03FF003FF000
03FF003FF000
03FF007FF000
07FF007FF000
07FF007FF000
07FF007FE000
07FE007FE000
07FE007FE000
ENDCHAR
STARTCHAR 0024
ENCODING 36
SWIDTH 562 0
DWIDTH 50 0
BBX 41 80 5 -9
BITMAP
0000FF800000
0000FF800000
0000FF800000
0000FF800000
0000FF800000
0000FF800000
0000FF800000
0000FF800000
0007FFF00000
001FFFFC0000
007FFFFF0000
00FFFFFF8000
03FFFFFFC000
03FFFFFFE000
07FFFFFFF000
0FFFFFFFF800
0FFFFFFFF800
1FFFFFFFFC00
1FFFFFFFFC00
1FFFFFFFFE00
3FFFC1FFFE00
3FFF807FFE00
3FFF003FFF00
3FFF003FFC00
3FFF001FC000
3FFF001E0000
3FFF00100000
3FFF80000000
1FFFC0000000
1FFFE0000000
1FFFF0000000
0FFFF8000000
0FFFFE000000
07FFFF800000
03FFFFC00000
03FFFFF00000
01FFFFF80000
00FFFFFE0000
003FFFFF0000
001FFFFF8000
000FFFFFC000
0007FFFFF000
0001FFFFF000
00007FFFF800
00003FFFFC00
00000FFFFE00
000007FFFE00
000001FFFF00
000000FFFF00
0000007FFF00
0000003FFF80
0000001FFF80
0018001FFF80
00F8001FFF80
07F8001FFF80
3FFC001FFF80
FFFE001FFF80
FFFE003FFF80
7FFF807FFF00
7FFFE3FFFF00
3FFFFFFFFF00
3FFFFFFFFE00
1FFFFFFFFE00
1FFFFFFFFC00
0FFFFFFFFC00
07FFFFFFF800
03FFFFFFF000
01FFFFFFE000
00FFFFFFC000
003FFFFF0000
000FFFFC0000
0003FFE00000
0000FF800000
0000FF800000
0000FF800000
0000FF800000
0000FF800000
0000FF800000
0000FF800000
0000FF800000
ENDCHAR
STARTCHAR 0025
ENCODING 37
SWIDTH 956 0
DWIDTH 85 0
BBX 75 65 5 -1
BITMAP
000FF800000000000000
007FFF00000003FE0000
01FFFF80000003FF0000
03FFFFE0000007FE0000
07FFFFF000000FFC0000
0FFFFFF800000FFC0000
1FFFFFFC00001FF80000
3FFFFFFC00003FF00000
3FFFFFFE00003FF00000
7FFF7FFE00007FE00000
7FF80FFF0000FFC00000
7FF007FF0001FFC00000
FFE003FF0001FF800000
FFE003FF8003FF000000
FFC003FF8007FE000000
FFC003FF8007FE000000
FFC003FF800FFC000000
FFE003FF801FF8000000
FFE003FF001FF8000000
7FF007FF003FF0000000
7FF80FFF007FE0000000
7FFC3FFF00FFE0000000
3FFFFFFE00FFC0000000
3FFFFFFE01FF80000000
1FFFFFFC03FF00000000
0FFFFFF803FF00000000
07FFFFF007FE00000000
03FFFFE00FFC00000000
01FFFFC00FFC00000000
007FFF001FF800000000
000FF8003FF000000000
000000007FF000000000
000000007FE000000000
00000000FFC000000000
00000001FF8001FE0000
00000001FF800FFFC000
00000003FF003FFFF000
00000007FE007FFFF800
00000007FE01FFFFFC00
0000000FFC03FFFFFE00
0000001FF803FFFFFF00
0000003FF807FFFFFF80
0000003FF00FFFFFFF80
0000007FE00FFFFFFFC0
000000FFC01FFF03FFC0
000000FFC01FFC01FFE0
000001FF801FFC00FFE0
000003FF001FF800FFE0
000003FF001FF8007FE0
000007FE001FF8007FE0
00000FFC001FF8007FE0
00001FFC001FF8007FE0
00001FF8001FF800FFE0
00003FF0001FFC00FFE0
00007FE0001FFE01FFC0
00007FE0000FFF07FFC0
0000FFC0000FFFFFFFC0
0001FF800007FFFFFF80
0001FF800007FFFFFF80
0003FF000003FFFFFF00
0007FE000001FFFFFE00
000FFE000000FFFFFC00
000FFC0000007FFFF000
001FF80000001FFFE000
00000000000003FF0000
ENDCHAR
STARTCHAR 0026
ENCODING 38
SWIDTH 686 0
DWIDTH 61 0
BBX 51 65 5 -1
BITMAP
00000700000000
0001FFF8000000
0007FFFF000000
001FFFFFC00000
007FFFFFF00000
00FFFFFFF80000
01FFFFFFFC0000
03FFFFFFFE0000
07FFFFFFFF0000
07FFFFFFFF8000
0FFFFFFFFFC000
0FFFFFFFFF8000
1FFFFFFFFF0000
1FFFE03FFE0000
3FFF800FFC0000
3FFF0007F80000
3FFF0003F00000
3FFE0001E00000
3FFE0000C00000
3FFE0000800000
3FFE0000000000
3FFE0000000000
3FFE0000000000
3FFF0000000000
1FFF8000000000
1FFFC000000000
1FFFFFFFFFFFE0
0FFFFFFFFFFFE0
0FFFFFFFFFFFE0
07FFFFFFFFFFE0
03FFFFFFFFFFE0
01FFFFFFFFFFE0
03FFFFFFFFFFE0
07FFFFFFFFFFE0
0FFFFFFFFFFFE0
0FFFFFFFFFFFE0
1FFFFFFFFFFFE0
3FFFFFFFFFFFE0
3FFFFC007FFC00
7FFF80007FFC00
7FFF00007FFC00
7FFE0000FFFC00
7FFC0000FFFC00
FFFC0000FFFC00
FFFC0000FFFC00
FFFC0000FFFC00
FFFC0001FFF800
FFFC0001FFF800
FFFC0003FFF800
FFFE0003FFF800
FFFF0007FFF000
7FFF800FFFF000
7FFFE07FFFF000
7FFFFFFFFFE000
3FFFFFFFFFC000
3FFFFFFFFFC000
1FFFFFFFFF8000
0FFFFFFFFF0000
07FFFFFFFF0000
03FFFFFFFE0000
01FFFFFFF80000
00FFFFFFF00000
003FFFFFC00000
000FFFFF000000
0001FFF8000000
ENDCHAR
STARTCHAR 0027
ENCODING 39
SWIDTH 202 0
DWIDTH 18 0
BBX 8 19 5 43
BITMAP
FF
FF
FF
FF
FF
FF
FF
FF
FF
FF
FF
FF
FF
FF
FF
FF
FF
FF
FF
ENDCHAR
STARTCHAR 0028
ENCODING 40
SWIDTH 360 0
DWIDTH 32 0
BBX 23 85 5 -13
BITMAP
000100
000380
0007C0
0007F0
000FF8
001FFE
001FFC
003FF8
003FF0
007FF0
007FE0
00FFE0
01FFC0
01FF80
01FF80
03FF00
03FF00
07FE00
07FE00
0FFC00
0FFC00
0FF800
1FF800
1FF800
1FF000
3FF000
3FF000
3FE000
3FE000
7FE000
7FE000
7FC000
7FC000
7FC000
7FC000
FFC000
FFC000
FF8000
FF8000
FF8000
FF8000
FF8000
FF8000
FF8000
FF8000
FF8000
FF8000
FF8000
FF8000
FFC000
7FC000
7FC000
7FC000
7FC000
7FC000
7FE000
7FE000
3FE000
3FE000
3FF000
1FF000
1FF000
1FF800
1FF800
0FFC00
0FFC00
07FC00
07FE00
07FE00
03FF00
03FF00
01FF80
01FFC0
00FFC0
00FFE0
007FF0
007FF0
003FF8
001FFC
001FFC
000FF8
0007F0
0007E0
000380
000100
ENDCHAR
STARTCHAR 0029
ENCODING 41
SWIDTH 360 0
DWIDTH 32 0
BBX 23 85 5 -13
BITMAP
010000
070000
0F8000
1FC000
7FC000
FFE000
7FF000
7FF000
3FF800
1FF800
1FFC00
0FFC00
07FE00
07FF00
03FF00
03FF00
01FF80
01FF80
00FFC0
00FFC0
007FE0
007FE0
003FE0
003FF0
003FF0
001FF0
001FF0
001FF8
000FF8
000FF8
000FF8
000FFC
0007FC
0007FC
0007FC
0007FC
0007FC
0007FC
0007FC
0007FC
0007FE
0007FE
0007FE
0007FE
0007FE
0007FC
0007FC
0007FC
0007FC
0007FC
0007FC
0007FC
0007FC
000FFC
000FF8
000FF8
000FF8
001FF8
001FF8
001FF0
001FF0
003FF0
003FE0
007FE0
007FE0
007FC0
00FFC0
00FFC0
01FF80
01FF80
03FF00
03FF00
07FE00
0FFE00
0FFC00
1FFC00
3FF800
3FF800
7FF000
FFE000
7FE000
1FC000
0F8000
078000
030000
ENDCHAR
STARTCHAR 002A
ENCODING 42
SWIDTH 450 0
DWIDTH 40 0
BBX 31 30 5 33
BITMAP
00010000
0007C000
000FE000
001FF000
001FF000
001FF000
001FF000
001FF000
081FF020
7F0FE1F8
7FCFE7FC
FFE7CFFE
FFF7DFFE
FFFFFFFE
FFFFFFFE
7FFFFFFC
3FFFFFF8
0FFFEFE0
001FF000
007FFC00
01FFFF00
03FEFF80
03FEFFC0
07FEFFC0
0FFC7FE0
0FFC7FE0
0FFC7FE0
0FF83FC0
07F01FC0
03E00F80
ENDCHAR
STARTCHAR 002B
ENCODING 43
SWIDTH 585 0
DWIDTH 52 0
BBX 42 40 5 9
BITMAP
0000FFC00000
0000FFC00000
0000FFC00000
0000FFC00000
0000FFC00000
0000FFC00000
0000FFC00000
0000FFC00000
0000FFC00000
0000FFC00000
0000FFC00000
0000FFC00000
0000FFC00000
0000FFC00000
0000FFC00000
FFFFFFFFFFC0
FFFFFFFFFFC0
FFFFFFFFFFC0
FFFFFFFFFFC0
FFFFFFFFFFC0
FFFFFFFFFFC0
FFFFFFFFFFC0
FFFFFFFFFFC0
FFFFFFFFFFC0
FFFFFFFFFFC0
0000FFC00000
0000FFC00000
0000FFC00000
0000FFC00000
0000FFC00000
0000FFC00000
0000FFC00000
0000FFC00000
0000FFC00000
0000FFC00000
0000FFC00000
0000FFC00000
0000FFC00000
0000FFC00000
0000FFC00000
ENDCHAR
STARTCHAR 002C
ENCODING 44
SWIDTH 281 0
DWIDTH 25 0
BBX 16 17 5 -10
BITMAP
07FF
07FE
07FE
0FFC
0FFC
0FF8
1FF8
1FF0
1FF0
3FE0
3FE0
3FC0
3FC0
7F80
7F80
7F00
FF00
ENDCHAR
STARTCHAR 002D
ENCODING 45
SWIDTH 450 0
DWIDTH 40 0
BBX 30 9 5 16
BITMAP
FFFFFFFC
FFFFFFFC
FFFFFFFC
FFFFFFFC
FFFFFFFC
FFFFFFFC
FFFFFFFC
FFFFFFFC
FFFFFFFC
ENDCHAR
STARTCHAR 002E
ENCODING 46
SWIDTH 281 0
DWIDTH 25 0
BBX 15 15 5 -1
BITMAP
07C0
1FF0
3FF8
7FFC
7FFE
FFFE
FFFE
FFFE
FFFE
FFFE
7FFE
7FFC
3FFC
1FF8
0FE0
ENDCHAR
STARTCHAR 002F
ENCODING 47
SWIDTH 438 0
DWIDTH 39 0
BBX 29 65 5 -1
BITMAP
00001FF8
00003FF8
00003FF8
00003FF0
00003FF0
00007FF0
00007FE0
00007FE0
0000FFE0
0000FFE0
0000FFC0
0000FFC0
0001FFC0
0001FF80
0001FF80
0003FF80
0003FF80
0003FF00
0007FF00
0007FF00
0007FE00
0007FE00
000FFE00
000FFE00
000FFC00
001FFC00
001FFC00
001FF800
001FF800
003FF800
003FF800
003FF000
007FF000
007FF000
007FE000
007FE000
00FFE000
00FFE000
00FFC000
01FFC000
01FFC000
01FF8000
01FF8000
03FF8000
03FF8000
03FF0000
07FF0000
07FF0000
07FE0000
07FE0000
0FFE0000
0FFE0000
0FFC0000
1FFC0000
1FFC0000
1FF80000
1FF80000
3FF80000
3FF80000
3FF00000
7FF00000
7FF00000
7FE00000
7FE00000
FFE00000
ENDCHAR
STARTCHAR 0030
ENCODING 48
SWIDTH 742 0
DWIDTH 66 0
BBX 60 65 3 -1
BITMAP
0000000F00000000
000003FFFC000000
00001FFFFF800000
00007FFFFFE00000
0001FFFFFFF80000
0007FFFFFFFE0000
000FFFFFFFFF0000
003FFFFFFFFF8000
007FFFFFFFFFE000
00FFFFFFFFFFF000
01FFFFFFFFFFF000
01FFFFFFFFFFF800
03FFFFF9FFFFFC00
07FFFF000FFFFE00
07FFFC0003FFFE00
0FFFF00000FFFF00
0FFFE000007FFF00
1FFFC000003FFF80
1FFF8000001FFF80
3FFF0000000FFFC0
3FFF0000000FFFC0
3FFE00000007FFC0
7FFE00000007FFE0
7FFC00000003FFE0
7FFC00000003FFE0
7FFC00000003FFE0
7FF800000001FFE0
7FF800000001FFF0
FFF800000001FFF0
FFF800000001FFF0
FFF800000001FFF0
FFF800000001FFF0
FFF800000001FFF0
FFF800000001FFF0
FFF800000001FFF0
FFF800000001FFF0
FFF800000001FFF0
FFF800000001FFF0
7FF800000001FFE0
7FF800000001FFE0
7FFC00000003FFE0
7FFC00000003FFE0
7FFC00000003FFE0
3FFE00000007FFC0
3FFE00000007FFC0
3FFF0000000FFFC0
1FFF8000001FFF80
1FFF8000001FFF80
1FFFC000003FFF80
0FFFE000007FFF00
0FFFF80001FFFF00
07FFFE0007FFFE00
03FFFF801FFFFC00
03FFFFFFFFFFFC00
01FFFFFFFFFFF800
00FFFFFFFFFFF000
007FFFFFFFFFE000
003FFFFFFFFFC000
001FFFFFFFFF8000
000FFFFFFFFF0000
0003FFFFFFFC0000
0001FFFFFFF80000
00007FFFFFE00000
00000FFFFF000000
000001FFF8000000
ENDCHAR
STARTCHAR 0031
ENCODING 49
SWIDTH 348 0
DWIDTH 31 0
BBX 23 62 4 0
BITMAP
003FFE
003FFE
003FFE
003FFE
003FFE
FFFFFE
FFFFFE
FFFFFE
FFFFFE
FFFFFE
FFFFFE
FFFFFE
FFFFFE
FFFFFE
FFFFFE
FFFFFE
FFFFFE
003FFE
003FFE
003FFE
003FFE
003FFE
003FFE
003FFE
003FFE
003FFE
003FFE
003FFE
003FFE
003FFE
003FFE
003FFE
003FFE
003FFE
003FFE
003FFE
003FFE
003FFE
003FFE
003FFE
003FFE
003FFE
003FFE
003FFE
003FFE
003FFE
003FFE
003FFE
003FFE
003FFE
003FFE
003FFE
003FFE
003FFE
003FFE
003FFE
003FFE
003FFE
003FFE
003FFE
003FFE
003FFE
ENDCHAR
STARTCHAR 0032
ENCODING 50
SWIDTH 573 0
DWIDTH 51 0
BBX 45 64 3 0
BITMAP
000003800000
0001FFFC0000
0007FFFF8000
001FFFFFE000
007FFFFFF000
00FFFFFFF800
01FFFFFFFE00
03FFFFFFFE00
07FFFFFFFF00
0FFFFFFFFF80
0FFFFFFFFF80
1FFFFFFFFFC0
1FFFFCFFFFC0
3FFFE01FFFE0
3FFF8007FFE0
3FFF0007FFE0
7FFF0003FFE0
7FFE0001FFF0
7FFE0001FFF0
7FFC0001FFF0
7FFC0001FFF0
1FFC0001FFF0
001C0001FFF0
00000001FFE0
00000003FFE0
00000003FFE0
00000007FFE0
00000007FFC0
0000000FFFC0
0000000FFFC0
0000001FFF80
0000003FFF80
0000003FFF00
0000007FFE00
000000FFFE00
000001FFFC00
000003FFF800
000007FFF800
00000FFFF000
00000FFFE000
00001FFFC000
00003FFF8000
00007FFF0000
0000FFFE0000
0001FFFC0000
0003FFFC0000
0007FFF80000
000FFFF00000
001FFFE00000
003FFFC00000
007FFF800000
00FFFF000000
01FFFE000000
03FFFFFFFFF8
07FFFFFFFFF8
0FFFFFFFFFF8
1FFFFFFFFFF8
3FFFFFFFFFF8
3FFFFFFFFFF8
7FFFFFFFFFF8
FFFFFFFFFFF8
FFFFFFFFFFF8
FFFFFFFFFFF8
FFFFFFFFFFF8
ENDCHAR
STARTCHAR 0033
ENCODING 51
SWIDTH 540 0
DWIDTH 48 0
BBX 41 63 4 -1
BITMAP
7FFFFFFFFE00
7FFFFFFFFE00
7FFFFFFFFE00
7FFFFFFFFE00
7FFFFFFFFE00
7FFFFFFFFC00
7FFFFFFFF800
7FFFFFFFF000
7FFFFFFFE000
7FFFFFFFC000
7FFFFFFF8000
00001FFF0000
00003FFE0000
00007FFC0000
00007FFC0000
0000FFF80000
0001FFF00000
0003FFE00000
0007FFC00000
000FFF800000
001FFFE00000
003FFFF80000
007FFFFE0000
00FFFFFF0000
01FFFFFF8000
03FFFFFFE000
07FFFFFFE000
0FFFFFFFF000
07FFFFFFF800
03FFFFFFFC00
01FFFFFFFC00
00FF87FFFE00
007C00FFFE00
0030007FFF00
0000003FFF00
0000001FFF80
0000000FFF80
0000000FFF80
0000000FFF80
0000000FFF80
0000000FFF80
0000000FFF80
0000000FFF80
0000000FFF80
0000000FFF80
0000000FFF80
00C0001FFF80
01C0003FFF00
07E0003FFF00
0FF800FFFF00
3FFE01FFFE00
7FFFFFFFFE00
FFFFFFFFFC00
FFFFFFFFFC00
FFFFFFFFF800
7FFFFFFFF000
3FFFFFFFE000
1FFFFFFFC000
0FFFFFFF8000
03FFFFFF0000
00FFFFFC0000
003FFFF00000
0007FF800000
ENDCHAR
STARTCHAR 0034
ENCODING 52
SWIDTH 562 0
DWIDTH 50 0
BBX 46 62 2 0
BITMAP
0000001FFF80
000001FFFF80
00000FFFFF80
00003FFFFF80
0000FFFFFF80
0003FFFFFF80
0007FFFFFF80
001FFFFFFF80
003FFFFFFF80
007FFFFFFF80
00FFFFFFFF80
00FFFFFFFF80
01FFFFFFFF80
03FFFF8FFF80
03FFFE0FFF80
07FFF80FFF80
0FFFF00FFF80
0FFFE00FFF80
1FFFC00FFF80
1FFF800FFF80
1FFF000FFF80
3FFF000FFF80
3FFE000FFF80
3FFE000FFF80
7FFC000FFF80
7FFC000FFF80
7FFC000FFF80
7FF8000FFF80
FFF8000FFF80
FFF8000FFF80
FFF8000FFF80
FFF8000FFF80
FFF8000FFF80
FFF8000FFF80
FFFFFFFFFFFC
FFFFFFFFFFFC
FFFFFFFFFFFC
FFFFFFFFFFFC
FFFFFFFFFFFC
FFFFFFFFFFFC
FFFFFFFFFFFC
FFFFFFFFFFFC
FFFFFFFFFFFC
FFFFFFFFFFFC
FFFFFFFFFFFC
FFFFFFFFFFFC
0000000FFF80
0000000FFF80
0000000FFF80
0000000FFF80
0000000FFF80
0000000FFF80
0000000FFF80
0000000FFF80
0000000FFF80
0000000FFF80
0000000FFF80
0000000FFF80
0000000FFF80
0000000FFF80
0000000FFF80
0000000FFF80
ENDCHAR
STARTCHAR 0035
ENCODING 53
SWIDTH 551 0
DWIDTH 49 0
BBX 43 63 4 -1
BITMAP
0FFFFFFFFF00
0FFFFFFFFF00
0FFFFFFFFF00
0FFFFFFFFF00
0FFFFFFFFF00
0FFFFFFFFF00
0FFFFFFFFF00
0FFFFFFFFF00
1FFFFFFFFF00
1FFFFFFFFF00
1FFFFFFFFF00
1FFE00000000
1FFE00000000
1FFE00000000
1FFE00000000
1FFC00000000
1FFC00000000
1FFC00000000
3FFC00000000
3FFC1FC00000
3FFDFFF80000
3FFFFFFF0000
3FFFFFFF8000
3FFFFFFFE000
3FFFFFFFF000
3FFFFFFFF800
3FFFFFFFFC00
3FFFFFFFFC00
7FFFFFFFFE00
7FFFFFFFFF00
7FFFFFFFFF00
3FFFC1FFFF80
0FFE007FFF80
03F8001FFFC0
00F0000FFFC0
0020000FFFC0
00000007FFC0
00000007FFC0
00000003FFC0
00000003FFE0
00000003FFE0
00000003FFE0
00000003FFC0
00000003FFC0
00000007FFC0
00000007FFC0
0060000FFFC0
00F0000FFFC0
03F8001FFF80
07FC003FFF80
0FFF00FFFF00
1FFFFFFFFF00
7FFFFFFFFE00
FFFFFFFFFE00
7FFFFFFFFC00
3FFFFFFFF800
1FFFFFFFF000
0FFFFFFFE000
07FFFFFFC000
03FFFFFF8000
00FFFFFE0000
003FFFF80000
0007FFC00000
ENDCHAR
STARTCHAR 0036
ENCODING 54
SWIDTH 630 0
DWIDTH 56 0
BBX 49 63 4 -1
BITMAP
000003FFF80000
000007FFF80000
000007FFF00000
00000FFFE00000
00001FFFC00000
00001FFFC00000
00003FFF800000
00007FFF000000
0000FFFE000000
0000FFFE000000
0001FFFC000000
0003FFF8000000
0003FFF8000000
0007FFF0000000
000FFFE0000000
001FFFC0000000
001FFFC0000000
003FFFFF800000
007FFFFFF00000
007FFFFFFC0000
00FFFFFFFF0000
01FFFFFFFF8000
03FFFFFFFFC000
03FFFFFFFFE000
07FFFFFFFFF000
07FFFFFFFFF800
0FFFFFFFFFF800
1FFFFFFFFFFC00
1FFFF007FFFE00
3FFFC001FFFE00
3FFF8000FFFF00
3FFF00003FFF00
7FFE00003FFF00
7FFC00001FFF00
7FFC00001FFF80
FFFC00000FFF80
FFF800000FFF80
FFF800000FFF80
FFF800000FFF80
FFF8000007FF80
FFF800000FFF80
FFF800000FFF80
FFF800000FFF80
FFFC00000FFF80
7FFC00001FFF80
7FFC00001FFF00
7FFE00003FFF00
7FFF00007FFF00
3FFF8000FFFF00
3FFFC001FFFE00
1FFFF007FFFE00
1FFFFFFFFFFC00
0FFFFFFFFFF800
07FFFFFFFFF800
07FFFFFFFFF000
03FFFFFFFFE000
01FFFFFFFFC000
00FFFFFFFF8000
007FFFFFFF0000
001FFFFFFC0000
0007FFFFF80000
0001FFFFE00000
00003FFE000000
ENDCHAR
STARTCHAR 0037
ENCODING 55
SWIDTH 506 0
DWIDTH 45 0
BBX 43 62 3 0
BITMAP
FFFFFFFFFFE0
FFFFFFFFFFE0
FFFFFFFFFFE0
FFFFFFFFFFE0
FFFFFFFFFFC0
FFFFFFFFFFC0
FFFFFFFFFF80
FFFFFFFFFF80
FFFFFFFFFF80
FFFFFFFFFF00
FFFFFFFFFF00
FFFFFFFFFE00
0000003FFE00
0000007FFE00
0000007FFC00
0000007FFC00
000000FFFC00
000000FFF800
000000FFF800
000001FFF000
000001FFF000
000003FFF000
000003FFE000
000003FFE000
000007FFC000
0FFFFFFFFE00
0FFFFFFFFE00
0FFFFFFFFE00
0FFFFFFFFE00
0FFFFFFFFE00
0FFFFFFFFE00
0FFFFFFFFE00
0FFFFFFFFE00
0FFFFFFFFE00
0FFFFFFFFE00
0FFFFFFFFE00
00007FFC0000
0000FFF80000
0000FFF80000
0001FFF00000
0001FFF00000
0001FFF00000
0003FFE00000
0003FFE00000
0007FFC00000
0007FFC00000
0007FFC00000
000FFF800000
000FFF800000
001FFF800000
001FFF000000
001FFF000000
003FFE000000
003FFE000000
003FFE000000
007FFC000000
007FFC000000
00FFF8000000
00FFF8000000
00FFF8000000
01FFF0000000
01FFF0000000
ENDCHAR
STARTCHAR 0038
ENCODING 56
SWIDTH 562 0
DWIDTH 50 0
BBX 45 65 3 -1
BITMAP
000002000000
0000FFF80000
0003FFFE0000
000FFFFF8000
003FFFFFC000
007FFFFFF000
00FFFFFFF800
00FFFFFFF800
01FFFFFFFC00
03FFFFFFFE00
03FFFFFFFE00
07FFFFFFFE00
07FFE03FFF00
07FFC01FFF00
07FF800FFF00
0FFF800FFF00
0FFF800FFF80
0FFF800FFF80
0FFF800FFF80
0FFF800FFF00
07FFC01FFF00
07FFC01FFF00
07FFF07FFF00
03FFFFFFFE00
03FFFFFFFE00
01FFFFFFFC00
01FFFFFFFC00
00FFFFFFF800
01FFFFFFFC00
03FFFFFFFE00
07FFFFFFFF00
0FFFFFFFFF80
1FFFFFFFFFC0
1FFFFFFFFFC0
3FFFC01FFFE0
3FFF0007FFE0
7FFE0003FFF0
7FFC0001FFF0
FFFC0001FFF8
FFF80000FFF8
FFF80000FFF8
FFF80000FFF8
FFF00000FFF8
FFF000007FF8
FFF00000FFF8
FFF80000FFF8
FFF80000FFF8
FFF80000FFF8
FFFC0001FFF8
7FFC0003FFF0
7FFE0003FFF0
7FFF000FFFF0
3FFFC01FFFE0
3FFFFFFFFFE0
1FFFFFFFFFC0
1FFFFFFFFFC0
0FFFFFFFFF80
07FFFFFFFF00
03FFFFFFFE00
01FFFFFFFC00
00FFFFFFF800
003FFFFFF000
001FFFFFC000
0007FFFF0000
0000FFF80000
ENDCHAR
STARTCHAR 0039
ENCODING 57
SWIDTH 607 0
DWIDTH 54 0
BBX 49 64 3 0
BITMAP
00000080000000
00007FFF000000
0001FFFFE00000
000FFFFFF80000
001FFFFFFE0000
007FFFFFFF0000
00FFFFFFFF8000
01FFFFFFFFE000
03FFFFFFFFE000
07FFFFFFFFF000
07FFFFFFFFF800
0FFFFFFFFFFC00
1FFFFF7FFFFC00
1FFFF003FFFE00
3FFFC000FFFE00
3FFF80007FFF00
3FFF00003FFF00
7FFE00001FFF00
7FFC00001FFF80
7FFC00000FFF80
7FFC00000FFF80
FFF800000FFF80
FFF800000FFF80
FFF8000007FF80
FFF8000007FF80
FFF8000007FF80
FFF800000FFF80
FFF800000FFF80
7FFC00000FFF80
7FFC00001FFF80
7FFE00001FFF00
7FFE00003FFF00
3FFF00007FFF00
3FFF8000FFFE00
1FFFE001FFFE00
1FFFF807FFFC00
0FFFFFFFFFFC00
0FFFFFFFFFF800
07FFFFFFFFF800
03FFFFFFFFF000
01FFFFFFFFE000
00FFFFFFFFE000
007FFFFFFFC000
003FFFFFFF8000
000FFFFFFF8000
0003FFFFFF0000
00003EFFFE0000
000000FFFE0000
000001FFFC0000
000003FFF80000
000007FFF00000
000007FFF00000
00000FFFE00000
00001FFFC00000
00001FFFC00000
00003FFF800000
00007FFF000000
0000FFFE000000
0000FFFE000000
0001FFFC000000
0003FFF8000000
0007FFF8000000
0007FFF0000000
000FFFE0000000
ENDCHAR
STARTCHAR 003A
ENCODING 58
SWIDTH 281 0
DWIDTH 25 0
BBX 16 46 5 -1
BITMAP
07E0
1FF0
3FFC
7FFC
7FFE
FFFE
FFFE
FFFF
FFFE
FFFE
7FFE
7FFC
3FFC
1FF8
0FE0
0000
0000
0000
0000
0000
0000
0000
0000
0000
0000
0000
0000
0000
0000
0000
0000
07C0
1FF0
3FF8
7FFC
7FFE
FFFE
FFFE
FFFE
FFFE
FFFE
7FFE
7FFC
3FFC
1FF8
0FE0
ENDCHAR
STARTCHAR 003B
ENCODING 59
SWIDTH 303 0
DWIDTH 27 0
BBX 17 55 5 -10
BITMAP
01F000
07FC00
0FFE00
1FFF00
3FFF80
3FFF80
3FFF80
3FFF80
3FFF80
3FFF80
3FFF80
1FFF00
0FFE00
07FC00
03F800
000000
000000
000000
000000
000000
000000
000000
000000
000000
000000
000000
000000
000000
000000
000000
000000
000000
000000
000000
000000
000000
000000
000000
07FF00
07FE00
07FE00
0FFC00
0FFC00
0FF800
1FF800
1FF000
1FF000
3FE000
3FE000
3FC000
3FC000
7F8000
7F8000
7F0000
FF0000
ENDCHAR
STARTCHAR 003C
ENCODING 60
SWIDTH 573 0
DWIDTH 51 0
BBX 42 40 5 8
BITMAP
0000000000C0
0000000007C0
000000003FC0
00000000FFC0
00000007FFC0
0000003FFFC0
000001FFFFC0
000007FFFFC0
00003FFFFFC0
0001FFFFFFC0
0007FFFFFE00
003FFFFFF000
01FFFFFF8000
0FFFFFFC0000
3FFFFFE00000
FFFFFF000000
FFFFF8000000
FFFFC0000000
FFFE00000000
FFF000000000
FFF800000000
FFFF00000000
FFFFE0000000
FFFFFC000000
FFFFFF000000
7FFFFFE00000
0FFFFFFC0000
01FFFFFF8000
007FFFFFF000
000FFFFFFE00
0001FFFFFF80
00003FFFFFC0
00000FFFFFC0
000001FFFFC0
0000003FFFC0
00000007FFC0
00000001FFC0
000000003FC0
0000000007C0
0000000001C0
ENDCHAR
STARTCHAR 003D
ENCODING 61
SWIDTH 585 0
DWIDTH 52 0
BBX 42 29 5 15
BITMAP
FFFFFFFFFFC0
FFFFFFFFFFC0
FFFFFFFFFFC0
FFFFFFFFFFC0
FFFFFFFFFFC0
FFFFFFFFFFC0
FFFFFFFFFFC0
FFFFFFFFFFC0
FFFFFFFFFFC0
FFFFFFFFFFC0
000000000000
000000000000
000000000000
000000000000
000000000000
000000000000
000000000000
000000000000
000000000000
000000000000
FFFFFFFFFFC0
FFFFFFFFFFC0
FFFFFFFFFFC0
FFFFFFFFFFC0
FFFFFFFFFFC0
FFFFFFFFFFC0
FFFFFFFFFFC0
FFFFFFFFFFC0
FFFFFFFFFFC0
ENDCHAR
STARTCHAR 003E
ENCODING 62
SWIDTH 573 0
DWIDTH 51 0
BBX 42 40 5 8
BITMAP
C00000000000
F80000000000
FF0000000000
FFC000000000
FFF800000000
FFFF00000000
FFFFC0000000
FFFFF8000000
FFFFFF000000
FFFFFFE00000
1FFFFFF80000
03FFFFFF0000
00FFFFFFE000
001FFFFFF800
0003FFFFFF00
00007FFFFFC0
00000FFFFFC0
000001FFFFC0
0000007FFFC0
0000000FFFC0
00000003FFC0
0000001FFFC0
000000FFFFC0
000007FFFFC0
00003FFFFFC0
0001FFFFFF80
000FFFFFFC00
007FFFFFE000
03FFFFFF8000
1FFFFFFC0000
7FFFFFE00000
FFFFFF000000
FFFFFC000000
FFFFE0000000
FFFF00000000
FFF800000000
FFE000000000
FF0000000000
F80000000000
C00000000000
ENDCHAR
STARTCHAR 003F
ENCODING 63
SWIDTH 461 0
DWIDTH 41 0
BBX 31 65 5 -1
BITMAP
00010000
003FFC00
00FFFF00
03FFFFC0
07FFFFE0
0FFFFFF0
1FFFFFF8
3FFFFFF8
3FFFFFFC
7FFFFFFC
7FFFFFFE
FFFFFFFE
FFF03FFE
1FE01FFE
07E01FFE
00C01FFE
00001FFE
00001FFE
00003FFC
00003FFC
00007FF8
0000FFF8
0000FFF0
0001FFF0
0003FFE0
0007FFC0
0007FF80
000FFF80
000FFF00
001FFE00
003FFE00
003FFC00
003FFC00
007FF800
007FF800
007FF800
007FF000
00FFF000
00FFF000
00FFF000
00FFF000
00FFF000
00FFF000
00000000
00000000
00000000
00000000
00000000
00000000
00000000
000F8000
003FF000
007FF800
00FFF800
00FFFC00
00FFFC00
01FFFE00
01FFFE00
01FFFE00
01FFFC00
00FFFC00
00FFFC00
007FF800
003FF000
001FE000
ENDCHAR
STARTCHAR 0040
ENCODING 64
SWIDTH 821 0
DWIDTH 73 0
BBX 64 66 5 -2
BITMAP
0000001FFF800000
000001FFFFF80000
00000FFFFFFF0000
00003FFFFFFFC000
0000FFFFFFFFE000
0001FFFFFFFFF800
0007FFFFFFFFFC00
000FFFF800FFFE00
001FFF80001FFF00
003FFC000003FF80
007FF0000001FFC0
00FFE00000007FE0
01FF800000003FF0
03FF000000001FF0
03FE000000000FF8
07FC0000000007F8
0FF80000000007FC
0FF8000FC00003FC
1FF0003FF1FE03FC
1FE000FFFDFE03FE
3FE001FFFFFE01FE
3FC003FFFFFE01FE
3FC007FFFFFC01FE
7FC00FFFFFFC01FF
7F800FFFFFFC00FF
7F801FFFFFFC00FF
7F801FFF1FFC00FF
FF803FFC0FFC00FF
FF003FFC07FC01FF
FF003FF807FC01FF
FF003FF807F801FE
FF003FF807F801FE
FF003FF007F801FE
FF003FF807F803FE
FF003FF80FF803FC
FF003FF80FF807FC
FF003FFC1FF807FC
FF803FFF7FFC0FF8
7F803FFFFFFC1FF8
7F801FFFFFFFFFF0
7F801FFFFFFFFFE0
7F800FFFFFFFFFC0
7FC00FFFFDFFFF80
3FC007FFF9FFFF00
3FE003FFF0FFFE00
3FE000FFC03FF800
1FF0003F000FE000
1FF0000000000000
0FF8000000000000
0FFC000000000000
07FE000000000000
03FF000000000C00
03FF800000001C00
01FFC00000007E00
00FFF0000000FF00
007FF8000003FF80
003FFF00000FFF80
001FFFE0007FFF00
000FFFFFFFFFFE00
0003FFFFFFFFF800
0001FFFFFFFFF000
00007FFFFFFFC000
00001FFFFFFF0000
000003FFFFFC0000
0000007FFFE00000
00000000F0000000
ENDCHAR
STARTCHAR 0041
ENCODING 65
SWIDTH 573 0
DWIDTH 51 0
BBX 46 64 4 0
BITMAP
000008000000
0003FFE00000
001FFFFC0000
007FFFFE0000
00FFFFFF8000
01FFFFFFC000
03FFFFFFE000
07FFFFFFF000
0FFFFFFFF800
0FFFFFFFF800
1FFFFFFFFC00
1FFFFFFFFC00
3FFFFFFFFE00
3FFFC1FFFE00
7FFF007FFF00
7FFE003FFF00
7FFE003FFF00
7FFC001FFF00
7FFC001FFF00
7FFC001FFF80
FFFC001FFF80
FFFC001FFF80
FFFC001FFF80
FFFC001FFF80
FFFC001FFF80
FFFC001FFF80
FFFC001FFF80
FFFC001FFF80
FFFC001FFF80
FFFC001FFF80
FFFC001FFF80
FFFC001FFF80
FFFC001FFF80
FFFC001FFF80
FFFC001FFF80
FFFC001FFF80
FFFC001FFF80
FFFC001FFF80
FFFC001FFF80
FFFC001FFF80
FFFC001FFF80
FFFC001FFF80
FFFC001FFF80
FFFC001FFF80
FFFC001FFF80
FFFC001FFF80
FFFC001FFF80
FFFC001FFF80
FFFC001FFF80
FFFC001FFF80
FFFC001FFF80
FFFC001FFF80
FFFFFFFFFFFC
FFFFFFFFFFFC
FFFFFFFFFFFC
FFFFFFFFFFFC
FFFFFFFFFFFC
FFFFFFFFFFFC
FFFFFFFFFFFC
FFFFFFFFFFFC
FFFFFFFFFFFC
FFFFFFFFFFFC
FFFFFFFFFFFC
FFFFFFFFFFFC
ENDCHAR
STARTCHAR 0042
ENCODING 66
SWIDTH 641 0
DWIDTH 57 0
BBX 52 62 3 0
BITMAP
03FFFFFFF00000
03FFFFFFFE0000
03FFFFFFFF8000
03FFFFFFFFE000
03FFFFFFFFF000
03FFFFFFFFF800
03FFFFFFFFFC00
03FFFFFFFFFE00
03FFFFFFFFFF00
03FFFFFFFFFF00
03FFFFFFFFFF80
03FFFFFFFFFF80
03FFC000FFFFC0
03FFC0003FFFC0
03FFC0000FFFC0
03FFC0000FFFC0
03FFC00007FFC0
03FFC00007FFC0
03FFC00007FFC0
03FFC00007FFC0
03FFC0000FFFC0
03FFC0000FFFC0
03FFC0001FFFC0
03FFC0003FFF80
FFFFFFFFFFFF80
FFFFFFFFFFFF80
FFFFFFFFFFFF00
FFFFFFFFFFFE00
FFFFFFFFFFFE00
FFFFFFFFFFFC00
FFFFFFFFFFFE00
FFFFFFFFFFFF00
FFFFFFFFFFFF00
FFFFFFFFFFFF80
FFFFFFFFFFFFC0
FFFFFFFFFFFFC0
03FFC001FFFFE0
03FFC0001FFFE0
03FFC00007FFE0
03FFC00007FFF0
03FFC00003FFF0
03FFC00003FFF0
03FFC00003FFF0
03FFC00003FFF0
03FFC00003FFF0
03FFC00003FFF0
03FFC00007FFF0
03FFC00007FFE0
03FFC0001FFFE0
03FFC001FFFFE0
03FFFFFFFFFFE0
03FFFFFFFFFFC0
03FFFFFFFFFFC0
03FFFFFFFFFF80
03FFFFFFFFFF00
03FFFFFFFFFF00
03FFFFFFFFFE00
03FFFFFFFFF800
03FFFFFFFFF000
03FFFFFFFFC000
03FFFFFFFF0000
03FFFFFFF00000
ENDCHAR
STARTCHAR 0043
ENCODING 67
SWIDTH 686 0
DWIDTH 61 0
BBX 57 65 3 -1
BITMAP
00000001F0000000
0000007FFFC00000
000007FFFFF80000
00001FFFFFFF0000
00007FFFFFFFC000
0001FFFFFFFFE000
0003FFFFFFFFF800
000FFFFFFFFFFC00
001FFFFFFFFFFE00
003FFFFFFFFFFF00
007FFFFFFFFFFF80
00FFFFFFFFFFFF00
01FFFFFFFFFFFE00
03FFFFF803FFFC00
03FFFFC0007FF800
07FFFF00001FF000
07FFFC000007E000
0FFFF8000003C000
1FFFF00000018000
1FFFE00000000000
1FFFC00000000000
3FFF800000000000
3FFF000000000000
3FFF000000000000
7FFE000000000000
7FFE000000000000
7FFE000000000000
7FFC000000000000
7FFC000000000000
FFFC000000000000
FFFC000000000000
FFFC000000000000
FFFC000000000000
FFFC000000000000
FFFC000000000000
FFFC000000000000
FFFC000000000000
7FFC000000000000
7FFC000000000000
7FFE000000000000
7FFE000000000000
7FFE000000000000
3FFF000000000000
3FFF000000000000
3FFF800000000000
1FFFC00000000000
1FFFE00000000000
0FFFF00000018000
0FFFF8000007C000
07FFFC00000FE000
07FFFF00001FF000
03FFFFC0007FF800
01FFFFFC07FFFC00
00FFFFFFFFFFFE00
00FFFFFFFFFFFF00
007FFFFFFFFFFF80
003FFFFFFFFFFF00
001FFFFFFFFFFE00
0007FFFFFFFFFC00
0003FFFFFFFFF000
0000FFFFFFFFE000
00007FFFFFFF8000
00001FFFFFFE0000
000003FFFFF80000
0000003FFF800000
ENDCHAR
STARTCHAR 0044
ENCODING 68
SWIDTH 686 0
DWIDTH 61 0
BBX 53 62 5 0
BITMAP
FFFFFFF0000000
FFFFFFFF000000
FFFFFFFFE00000
FFFFFFFFF80000
FFFFFFFFFE0000
FFFFFFFFFF8000
FFFFFFFFFFC000
FFFFFFFFFFE000
FFFFFFFFFFF800
FFFFFFFFFFF800
FFFFFFFFFFFC00
FFFFFFFFFFFE00
FFF801FFFFFF00
FFF8000FFFFF80
FFF80003FFFF80
FFF80000FFFFC0
FFF800003FFFC0
FFF800001FFFE0
FFF800000FFFE0
FFF8000007FFE0
FFF8000007FFF0
FFF8000003FFF0
FFF8000003FFF0
FFF8000001FFF8
FFF8000001FFF8
FFF8000001FFF8
FFF8000001FFF8
FFF8000000FFF8
FFF8000000FFF8
FFF8000000FFF8
FFF8000000FFF8
FFF8000000FFF8
FFF8000000FFF8
FFF8000000FFF8
FFF8000000FFF8
FFF8000001FFF8
FFF8000001FFF8
FFF8000001FFF8
FFF8000001FFF0
FFF8000003FFF0
FFF8000003FFF0
FFF8000007FFF0
FFF800000FFFE0
FFF800000FFFE0
FFF800001FFFE0
FFF800007FFFC0
FFF80000FFFFC0
FFF80003FFFF80
FFF8001FFFFF00
FFF80FFFFFFF00
FFFFFFFFFFFE00
FFFFFFFFFFFC00
FFFFFFFFFFF800
FFFFFFFFFFF000
FFFFFFFFFFE000
FFFFFFFFFFC000
FFFFFFFFFF8000
FFFFFFFFFE0000
FFFFFFFFF80000
FFFFFFFFE00000
FFFFFFFF000000
FFFFFFE0000000
ENDCHAR
STARTCHAR 0045
ENCODING 69
SWIDTH 517 0
DWIDTH 46 0
BBX 44 62 2 0
BITMAP
03FFFFFF8000
03FFFFFF8000
03FFFFFF8000
03FFFFFF8000
03FFFFFF8000
03FFFFFF8000
03FFFFFF8000
03FFFFFF8000
03FFFFFF8000
03FFFFFF8000
03FFFFFF8000
03FFFFFF8000
03FFE0000000
03FFE0000000
03FFE0000000
03FFE0000000
03FFE0000000
03FFE0000000
03FFE0000000
03FFE0000000
03FFE0000000
03FFE0000000
03FFE0000000
03FFE0000000
03FFE0000000
FFFFFFFFF000
FFFFFFFFF000
FFFFFFFFF000
FFFFFFFFF000
FFFFFFFFF000
FFFFFFFFF000
FFFFFFFFF000
FFFFFFFFF000
FFFFFFFFF000
FFFFFFFFF000
FFFFFFFFF000
FFFFFFFFF000
03FFE0000000
03FFE0000000
03FFE0000000
03FFE0000000
03FFE0000000
03FFE0000000
03FFE0000000
03FFE0000000
03FFE0000000
03FFE0000000
03FFE0000000
03FFE0000000
03FFE0000000
03FFFFFFFFF0
03FFFFFFFFF0
03FFFFFFFFF0
03FFFFFFFFF0
03FFFFFFFFF0
03FFFFFFFFF0
03FFFFFFFFF0
03FFFFFFFFF0
03FFFFFFFFF0
03FFFFFFFFF0
03FFFFFFFFF0
03FFFFFFFFF0
ENDCHAR
STARTCHAR 0046
ENCODING 70
SWIDTH 483 0
DWIDTH 43 0
BBX 41 62 2 0
BITMAP
03FFFFFFFF80
03FFFFFFFF80
03FFFFFFFF80
03FFFFFFFF80
03FFFFFFFF80
03FFFFFFFF80
03FFFFFFFF80
03FFFFFFFF80
03FFFFFFFF80
03FFFFFFFF80
03FFFFFFFF80
03FFFFFFFF80
03FFF0000000
03FFF0000000
03FFF0000000
03FFF0000000
03FFF0000000
03FFF0000000
03FFF0000000
03FFF0000000
03FFF0000000
03FFF0000000
03FFF0000000
03FFF0000000
03FFF0000000
03FFF0000000
03FFF0000000
FFFFFFFFFC00
FFFFFFFFFC00
FFFFFFFFFC00
FFFFFFFFFC00
FFFFFFFFFC00
FFFFFFFFFC00
FFFFFFFFFC00
FFFFFFFFFC00
FFFFFFFFFC00
FFFFFFFFFC00
FFFFFFFFFC00
FFFFFFFFFC00
03FFF0000000
03FFF0000000
03FFF0000000
03FFF0000000
03FFF0000000
03FFF0000000
03FFF0000000
03FFF0000000
03FFF0000000
03FFF0000000
03FFF0000000
03FFF0000000
03FFF0000000
03FFF0000000
03FFF0000000
03FFF0000000
03FFF0000000
03FFF0000000
03FFF0000000
03FFF0000000
03FFF0000000
03FFF0000000
03FFF0000000
ENDCHAR
STARTCHAR 0047
ENCODING 71
SWIDTH 821 0
DWIDTH 73 0
BBX 70 65 3 -1
BITMAP
00000000E000000000
0000007FFFC0000000
000003FFFFFC000000
00001FFFFFFF000000
00007FFFFFFFC00000
0001FFFFFFFFE00000
0003FFFFFFFFF80000
000FFFFFFFFFFC0000
001FFFFFFFFFFE0000
003FFFFFFFFFFF0000
007FFFFFFFFFFF8000
00FFFFFFFFFFFF0000
01FFFFFFFFFFFE0000
01FFFFF801FFFC0000
03FFFF80003FF80000
07FFFE00001FF00000
07FFFC000007E00000
0FFFF8000003C00000
0FFFE0000001800000
1FFFC0000000000000
1FFFC0000000000000
3FFF80000000000000
3FFF00000000000000
3FFF00000000000000
7FFE00000000000000
7FFE00000000000000
7FFE00000000000000
7FFC0000FFFFFFFFFC
7FFC0000FFFFFFFFFC
FFFC0000FFFFFFFFFC
FFFC0000FFFFFFFFFC
FFFC0000FFFFFFFFFC
FFFC0000FFFFFFFFFC
FFFC0000FFFFFFFFFC
FFFC0000FFFFFFFFFC
FFFC0000FFFFFFFFFC
FFFC0000FFFFFFFFFC
7FFC0000FFFFFFFFFC
7FFC0000FFFFFFFFFC
7FFE000000001FFF80
7FFE000000003FFF80
7FFE000000003FFF00
3FFF000000003FFF00
3FFF000000007FFF00
3FFF800000007FFF00
1FFFC0000000FFFE00
1FFFE0000001FFFE00
0FFFF0000001FFFC00
0FFFF8000003FFFC00
07FFFC00000FFFF800
07FFFF00001FFFF800
03FFFFC0007FFFF000
01FFFFF807FFFFE000
00FFFFFFFFFFFFE000
00FFFFFFFFFFFFC000
007FFFFFFFFFFF8000
003FFFFFFFFFFF0000
001FFFFFFFFFFE0000
0007FFFFFFFFFC0000
0003FFFFFFFFF80000
0000FFFFFFFFE00000
00007FFFFFFF800000
00000FFFFFFE000000
000003FFFFF8000000
0000003FFF80000000
ENDCHAR
STARTCHAR 0048
ENCODING 72
SWIDTH 585 0
DWIDTH 52 0
BBX 46 62 2 0
BITMAP
03FFE000FFFC
03FFE000FFFC
03FFE000FFFC
03FFE000FFFC
03FFE000FFFC
03FFE000FFFC
03FFE000FFFC
03FFE000FFFC
03FFE000FFFC
03FFE000FFFC
03FFE000FFFC
03FFE000FFFC
03FFE000FFFC
03FFE000FFFC
03FFE000FFFC
03FFE000FFFC
03FFE000FFFC
03FFE000FFFC
03FFE000FFFC
03FFE000FFFC
03FFE000FFFC
03FFE000FFFC
03FFE000FFFC
03FFE000FFFC
03FFE000FFFC
03FFE000FFFC
03FFE000FFFC
FFFFFFFFFFFC
FFFFFFFFFFFC
FFFFFFFFFFFC
FFFFFFFFFFFC
FFFFFFFFFFFC
FFFFFFFFFFFC
FFFFFFFFFFFC
FFFFFFFFFFFC
FFFFFFFFFFFC
FFFFFFFFFFFC
FFFFFFFFFFFC
FFFFFFFFFFFC
FFFFFFFFFFFC
03FFE000FFFC
03FFE000FFFC
03FFE000FFFC
03FFE000FFFC
03FFE000FFFC
03FFE000FFFC
03FFE000FFFC
03FFE000FFFC
03FFE000FFFC
03FFE000FFFC
03FFE000FFFC
03FFE000FFFC
03FFE000FFFC
03FFE000FFFC
03FFE000FFFC
03FFE000FFFC
03FFE000FFFC
03FFE000FFFC
03FFE000FFFC
03FFE000FFFC
03FFE000FFFC
03FFE000FFFC
ENDCHAR
STARTCHAR 0049
ENCODING 73
SWIDTH 247 0
DWIDTH 22 0
BBX 27 71 -2 1
BITMAP
00040000
000C0000
000E0000
001E0000
001F0000
001F0000
003F0000
003F8000
03FFF000
FFFFFFE0
7FFFFFC0
3FFFFF00
1FFFFE00
0FFFFC00
07FFF800
01FFF000
01FFF000
03FFF000
03FFF000
03FFF000
03FFF800
03E1F800
07C07800
07001800
04000C00
00000000
00000000
00000000
00000000
00000000
00000000
00000000
00000000
01FFF000
01FFF000
01FFF000
01FFF000
01FFF000
01FFF000
01FFF000
01FFF000
01FFF000
01FFF000
01FFF000
01FFF000
01FFF000
01FFF000
01FFF000
01FFF000
01FFF000
01FFF000
01FFF000
01FFF000
01FFF000
01FFF000
01FFF000
01FFF000
01FFF000
01FFF000
01FFF000
01FFF000
01FFF000
01FFF000
01FFF000
01FFF000
01FFF000
01FFF000
01FFF000
01FFF000
01FFF000
01FFF000
ENDCHAR
STARTCHAR 004A
ENCODING 74
SWIDTH 483 0
DWIDTH 43 0
BBX 37 63 2 -1
BITMAP
00007FFFF8
00007FFFF8
00007FFFF8
00007FFFF8
00007FFFF8
00007FFFF8
00007FFFF8
00007FFFF8
00007FFFF8
00007FFFF8
00007FFFF8
00007FFFF8
000001FFF8
000001FFF8
000001FFF8
000001FFF8
000001FFF8
000001FFF8
000001FFF8
000001FFF8
000001FFF8
000001FFF8
000001FFF8
000001FFF8
000001FFF8
000001FFF8
000001FFF8
000001FFF8
000001FFF8
000001FFF8
000001FFF8
000001FFF8
000001FFF8
000001FFF8
000001FFF8
000001FFF8
000001FFF8
000001FFF8
000001FFF8
000001FFF8
000001FFF8
000001FFF8
000001FFF8
000001FFF8
000001FFF8
000001FFF0
002001FFF0
00E003FFF0
01F003FFF0
07F807FFF0
1FFE1FFFE0
3FFFFFFFE0
FFFFFFFFE0
FFFFFFFFC0
FFFFFFFFC0
7FFFFFFF80
3FFFFFFF00
1FFFFFFE00
0FFFFFFC00
07FFFFF800
03FFFFF000
00FFFFC000
001FFE0000
ENDCHAR
STARTCHAR 004B
ENCODING 75
SWIDTH 585 0
DWIDTH 52 0
BBX 46 62 2 0
BITMAP
03FFE007FFC0
03FFE007FFC0
03FFE007FFC0
03FFE007FFC0
03FFE007FFC0
03FFE007FFC0
03FFE007FFC0
03FFE007FFC0
03FFE007FFC0
03FFE007FFC0
03FFE007FFC0
03FFE007FFC0
03FFE007FFC0
03FFE007FFC0
03FFE007FFC0
03FFE007FFC0
03FFE007FFC0
03FFE007FFC0
03FFE00FFFC0
03FFE00FFFC0
03FFE00FFFC0
03FFE01FFF80
03FFE03FFF80
03FFE07FFF80
FFFFFFFFFF00
FFFFFFFFFF00
FFFFFFFFFF00
FFFFFFFFFE00
FFFFFFFFFE00
FFFFFFFFFF00
FFFFFFFFFF80
FFFFFFFFFFC0
FFFFFFFFFFC0
FFFFFFFFFFE0
FFFFFFFFFFF0
FFFFFFFFFFF0
03FFE00FFFF0
03FFE003FFF8
03FFE001FFF8
03FFE001FFF8
03FFE000FFF8
03FFE000FFFC
03FFE000FFFC
03FFE000FFFC
03FFE000FFFC
03FFE0007FFC
03FFE0007FFC
03FFE0007FFC
03FFE0007FFC
03FFE0007FFC
03FFE0007FFC
03FFE0007FFC
03FFE0007FFC
03FFE0007FFC
03FFE0007FFC
03FFE0007FFC
03FFE0007FFC
03FFE0007FFC
03FFE0007FFC
03FFE0007FFC
03FFE0007FFC
03FFE0007FFC
ENDCHAR
STARTCHAR 004C
ENCODING 76
SWIDTH 472 0
DWIDTH 42 0
BBX 35 62 5 0
BITMAP
FFF8000000
FFF8000000
FFF8000000
FFF8000000
FFF8000000
FFF8000000
FFF8000000
FFF8000000
FFF8000000
FFF8000000
FFF8000000
FFF8000000
FFF8000000
FFF8000000
FFF8000000
FFF8000000
FFF8000000
FFF8000000
FFF8000000
FFF8000000
FFF8000000
FFF8000000
FFF8000000
FFF8000000
FFF8000000
FFF8000000
FFF8000000
FFF8000000
FFF8000000
FFF8000000
FFF8000000
FFF8000000
FFF8000000
FFF8000000
FFF8000000
FFF8000000
FFF8000000
FFF8000000
FFF8000000
FFF8000000
FFF8000000
FFF8000000
FFF8000000
FFF8000000
FFF8000000
FFF8000000
FFF8000000
FFF8000000
FFF8000000
FFF8000000
FFFFFFFFE0
FFFFFFFFE0
FFFFFFFFE0
FFFFFFFFE0
FFFFFFFFE0
FFFFFFFFE0
FFFFFFFFE0
FFFFFFFFE0
FFFFFFFFE0
FFFFFFFFE0
FFFFFFFFE0
FFFFFFFFE0
ENDCHAR
STARTCHAR 004D
ENCODING 77
SWIDTH 888 0
DWIDTH 79 0
BBX 72 64 2 0
BITMAP
010000000000000000
03C00000F800000000
03E00000FC00001FFF
07F00000FE00001FFF
0FF80000FF80001FFF
1FFE0000FFC0001FFF
1FFF0000FFE0001FFF
3FFF8000FFF0001FFF
7FFFC000FFFC001FFF
FFFFF000FFFE001FFF
FFFFF800FFFF001FFF
7FFFFC00FFFFC01FFF
3FFFFF00FFFFE01FFF
1FFFFF80FFFFF01FFF
07FFFFC0FFFFF81FFF
03FFFFE0FFFFFE1FFF
03FFFFF8FFFFFF1FFF
03FFFFFCFFFFFF9FFF
03FFFFFEFFFFFFFFFF
03FFFFFFFFFFFFFFFF
03FFFFFFFFFFFFFFFF
03FFFFFFFFFFFFFFFF
03FFFFFFFFFFFFFFFF
03FFFFFFFFFFFFFFFF
03FFFFFFFFFFFFFFFF
03FFEFFFFFFDFFFFFF
03FFE3FFFFFC7FFFFF
03FFE1FFFFFC3FFFFF
03FFE0FFFFFC1FFFFF
03FFE07FFFFC0FFFFF
03FFE01FFFFC03FFFF
03FFE00FFFFC01FFFF
03FFE007FFFC00FFFF
03FFE001FFFC003FFF
03FFE000FFFC001FFF
03FFE000FFFC001FFF
03FFE000FFFC001FFF
03FFE000FFFC001FFF
03FFE000FFFC001FFF
03FFE000FFFC001FFF
03FFE000FFFC001FFF
03FFE000FFFC001FFF
03FFE000FFFC001FFF
03FFE000FFFC001FFF
03FFE000FFFC001FFF
03FFE000FFFC001FFF
03FFE000FFFC001FFF
03FFE000FFFC001FFF
03FFE000FFFC001FFF
03FFE000FFFC001FFF
03FFE000FFFC001FFF
03FFE000FFFC001FFF
03FFE000FFFC001FFF
03FFE000FFFC001FFF
03FFE000FFFC001FFF
03FFE000FFFC001FFF
03FFE000FFFC001FFF
03FFE000FFFC001FFF
03FFE000FFFC001FFF
03FFE000FFFC001FFF
03FFE000FFFC001FFF
03FFE000FFFC001FFF
03FFE000FFFC001FFF
03FFE000FFFC001FFF
ENDCHAR
STARTCHAR 004E
ENCODING 78
SWIDTH 585 0
DWIDTH 52 0
BBX 45 64 2 0
BITMAP
010000000000
03C000000000
03E00000FFF8
07F00000FFF8
0FF80000FFF8
1FFE0000FFF8
1FFF0000FFF8
3FFF8000FFF8
7FFFC000FFF8
FFFFF000FFF8
FFFFF800FFF8
7FFFFC00FFF8
3FFFFF00FFF8
1FFFFF80FFF8
07FFFFC0FFF8
07FFFFE0FFF8
07FFFFF8FFF8
07FFFFFCFFF8
07FFFFFEFFF8
07FFFFFFFFF8
07FFFFFFFFF8
07FFFFFFFFF8
07FFFFFFFFF8
07FFFFFFFFF8
07FFFFFFFFF8
07FFDFFFFFF8
07FFCFFFFFF8
07FFC3FFFFF8
07FFC1FFFFF8
07FFC0FFFFF8
07FFC03FFFF8
07FFC01FFFF8
07FFC00FFFF8
07FFC007FFF8
07FFC001FFF8
07FFC000FFF8
07FFC000FFF8
07FFC000FFF8
07FFC000FFF8
07FFC000FFF8
07FFC000FFF8
07FFC000FFF8
07FFC000FFF8
07FFC000FFF8
07FFC000FFF8
07FFC000FFF8
07FFC000FFF8
07FFC000FFF8
07FFC000FFF8
07FFC000FFF8
07FFC000FFF8
07FFC000FFF8
07FFC000FFF8
07FFC000FFF8
07FFC000FFF8
07FFC000FFF8
07FFC000FFF8
07FFC000FFF8
07FFC000FFF8
07FFC000FFF8
07FFC000FFF8
07FFC000FFF8
07FFC000FFF8
07FFC000FFF8
ENDCHAR
STARTCHAR 004F
ENCODING 79
SWIDTH 821 0
DWIDTH 73 0
BBX 67 65 3 -1
BITMAP
00000000E000000000
0000007FFFE0000000
000003FFFFFC000000
00001FFFFFFF000000
00007FFFFFFFC00000
0001FFFFFFFFF00000
0003FFFFFFFFFC0000
000FFFFFFFFFFE0000
001FFFFFFFFFFF0000
003FFFFFFFFFFF8000
007FFFFFFFFFFFC000
00FFFFFFFFFFFFE000
01FFFFFFFFFFFFF000
01FFFFF801FFFFF800
03FFFFC0003FFFFC00
07FFFF00000FFFFC00
07FFFC000003FFFE00
0FFFF8000001FFFF00
0FFFE0000000FFFF00
1FFFE00000007FFF00
1FFFC00000003FFF80
3FFF800000001FFF80
3FFF000000001FFFC0
3FFF000000000FFFC0
7FFE000000000FFFC0
7FFE0000000007FFE0
7FFE0000000007FFE0
7FFC0000000007FFE0
7FFC0000000003FFE0
FFFC0000000003FFE0
FFFC0000000003FFE0
FFFC0000000003FFE0
FFFC0000000003FFE0
FFFC0000000003FFE0
FFFC0000000003FFE0
FFFC0000000003FFE0
FFFC0000000003FFE0
7FFC0000000007FFE0
7FFC0000000007FFE0
7FFE0000000007FFE0
7FFE0000000007FFC0
7FFE000000000FFFC0
3FFF000000000FFFC0
3FFF000000001FFFC0
3FFF800000003FFF80
1FFFC00000003FFF80
1FFFE00000007FFF00
0FFFF0000000FFFF00
0FFFF8000001FFFE00
07FFFC000007FFFE00
07FFFF00000FFFFC00
03FFFFC0007FFFFC00
01FFFFFC03FFFFF800
00FFFFFFFFFFFFF000
00FFFFFFFFFFFFE000
007FFFFFFFFFFFC000
003FFFFFFFFFFF8000
001FFFFFFFFFFF0000
0007FFFFFFFFFE0000
0003FFFFFFFFF80000
0000FFFFFFFFF00000
00007FFFFFFFC00000
00000FFFFFFF000000
000003FFFFF8000000
0000003FFFC0000000
ENDCHAR
STARTCHAR 0050
ENCODING 80
SWIDTH 585 0
DWIDTH 52 0
BBX 48 62 2 0
BITMAP
07FFFFFF8000
07FFFFFFF000
07FFFFFFFE00
07FFFFFFFF00
07FFFFFFFFC0
07FFFFFFFFE0
07FFFFFFFFF0
07FFFFFFFFF8
07FFFFFFFFFC
07FFFFFFFFFC
07FFFFFFFFFE
07FFFFFFFFFE
07FFC003FFFE
07FFC000FFFF
07FFC0003FFF
07FFC0003FFF
07FFC0001FFF
07FFC0001FFF
07FFC0001FFF
07FFC0000FFF
07FFC0001FFF
07FFC0001FFF
07FFC0001FFF
07FFC0001FFF
07FFC0003FFF
07FFC0007FFF
07FFC001FFFE
07FFC03FFFFE
FFFFFFFFFFFE
FFFFFFFFFFFC
FFFFFFFFFFF8
FFFFFFFFFFF8
FFFFFFFFFFF0
FFFFFFFFFFE0
FFFFFFFFFFC0
FFFFFFFFFF80
FFFFFFFFFE00
FFFFFFFFF800
FFFFFFFFC000
FFFFFFD00000
07FFC0000000
07FFC0000000
07FFC0000000
07FFC0000000
07FFC0000000
07FFC0000000
07FFC0000000
07FFC0000000
07FFC0000000
07FFC0000000
07FFC0000000
07FFC0000000
07FFC0000000
07FFC0000000
07FFC0000000
07FFC0000000
07FFC0000000
07FFC0000000
07FFC0000000
07FFC0000000
07FFC0000000
07FFC0000000
ENDCHAR
STARTCHAR 0051
ENCODING 81
SWIDTH 821 0
DWIDTH 73 0
BBX 67 67 3 -3
BITMAP
00000000E000000000
0000007FFFE0000000
000003FFFFFC000000
00001FFFFFFF000000
00007FFFFFFFC00000
0001FFFFFFFFF00000
0003FFFFFFFFFC0000
000FFFFFFFFFFE0000
001FFFFFFFFFFF0000
003FFFFFFFFFFF8000
007FFFFFFFFFFFC000
00FFFFFFFFFFFFE000
01FFFFFFFFFFFFF000
01FFFFF801FFFFF800
03FFFFC0003FFFFC00
07FFFF00000FFFFC00
07FFFC000003FFFE00
0FFFF8000001FFFF00
0FFFE0000000FFFF00
1FFFE00000007FFF00
1FFFC00000003FFF80
3FFF800000001FFF80
3FFF000000001FFFC0
3FFF000000000FFFC0
7FFE000000000FFFC0
7FFE0000000007FFE0
7FFE0000000007FFE0
7FFC0000000007FFE0
7FFC0000000003FFE0
FFFC0000000003FFE0
FFFC0000000003FFE0
FFFC0000000003FFE0
FFFC0000000003FFE0
FFFC0000000003FFE0
FFFC0000000003FFE0
FFFC0000000003FFE0
FFFC0000000003FFE0
7FFC0000000007FFE0
7FFC0000000007FFE0
7FFE0000000007FFE0
7FFE0000000007FFC0
7FFE000000000FFFC0
3FFF000000000FFFC0
3FFF000000001FFFC0
3FFF800000003FFF80
1FFFC00000003FFF80
1FFFE00000007FFF00
0FFFF0000000FFFF00
0FFFF8000001FFFE00
07FFFC000007FFFE00
07FFFF00000FFFFC00
03FFFFC0007FFFFC00
01FFFFFC03FFFFF800
00FFFFFFFFFFFFF800
00FFFFFFFFFFFFFC00
007FFFFFFFFFFFFE00
003FFFFFFFFFFFFF00
001FFFFFFFFFFFFF80
0007FFFFFFFFFFFF80
0003FFFFFFFFFFFF00
0000FFFFFFFFFFFE00
00007FFFFFFFFFFC00
00000FFFFFFF1FF800
000003FFFFF80FF000
0000003FFFC007E000
00000000000003C000
000000000000018000
ENDCHAR
STARTCHAR 0052
ENCODING 82
SWIDTH 618 0
DWIDTH 55 0
BBX 51 62 2 0
BITMAP
03FFFFFFE00000
03FFFFFFFE0000
03FFFFFFFF8000
03FFFFFFFFE000
03FFFFFFFFF000
03FFFFFFFFF800
03FFFFFFFFFC00
03FFFFFFFFFE00
03FFFFFFFFFF00
03FFFFFFFFFF00
03FFFFFFFFFF80
03FFFFFFFFFF80
03FFE000FFFFC0
03FFE0003FFFC0
03FFE0000FFFC0
03FFE00007FFC0
03FFE00007FFC0
03FFE00007FFC0
03FFE00003FFE0
03FFE00003FFE0
03FFE00003FFC0
03FFE00007FFC0
03FFE00007FFC0
03FFE0000FFFC0
03FFE0001FFFC0
03FFE0003FFFC0
03FFE003FFFF80
FFFFFFFFFFFF80
FFFFFFFFFFFF00
FFFFFFFFFFFF00
FFFFFFFFFFFE00
FFFFFFFFFFFC00
FFFFFFFFFFF800
FFFFFFFFFFF000
FFFFFFFFFFE000
FFFFFFFFFFF000
FFFFFFFFFFF800
FFFFFFFFFFF800
FFFFFFFFFFFC00
03FFE003FFFC00
03FFE000FFFE00
03FFE0007FFE00
03FFE0007FFE00
03FFE0003FFE00
03FFE0003FFF00
03FFE0003FFF00
03FFE0003FFF00
03FFE0001FFF00
03FFE0001FFF00
03FFE0001FFF00
03FFE0001FFF00
03FFE0001FFF00
03FFE0001FFF00
03FFE0001FFF00
03FFE0001FFF00
03FFE0001FFF00
03FFE0001FFF00
03FFE0001FFF00
03FFE0001FFF00
03FFE0001FFF00
03FFE0001FFF00
03FFE0001FFF00
ENDCHAR
STARTCHAR 0053
ENCODING 83
SWIDTH 517 0
DWIDTH 46 0
BBX 41 65 3 -1
BITMAP
00007E000000
0007FFF00000
003FFFFC0000
007FFFFF0000
01FFFFFF8000
03FFFFFFC000
07FFFFFFE000
07FFFFFFF000
0FFFFFFFF800
1FFFFFFFF800
1FFFFFFFFC00
1FFFFFFFFC00
3FFFFFFFFE00
3FFFC1FFFE00
3FFF807FFE00
3FFF007FFE00
3FFE003FFC00
3FFE001FC000
3FFE001E0000
3FFF00000000
3FFF00000000
3FFF80000000
1FFFC0000000
1FFFF0000000
1FFFF8000000
0FFFFE000000
07FFFF000000
07FFFFC00000
03FFFFF00000
01FFFFF80000
00FFFFFE0000
007FFFFF0000
001FFFFF8000
000FFFFFC000
0007FFFFE000
0001FFFFF000
0000FFFFF800
00003FFFFC00
00000FFFFC00
000007FFFE00
000003FFFE00
000000FFFF00
0000007FFF00
0000003FFF00
0000003FFF00
0018001FFF80
00F8001FFF80
07F8001FFF80
3FFC001FFF80
FFFC001FFF00
FFFE003FFF00
7FFF007FFF00
7FFFE3FFFF00
7FFFFFFFFF00
3FFFFFFFFE00
3FFFFFFFFE00
1FFFFFFFFC00
0FFFFFFFFC00
07FFFFFFF800
03FFFFFFF000
01FFFFFFE000
00FFFFFFC000
003FFFFF0000
000FFFFC0000
0001FFE00000
ENDCHAR
STARTCHAR 0054
ENCODING 84
SWIDTH 528 0
DWIDTH 47 0
BBX 43 62 2 0
BITMAP
FFFFFFFFFFE0
FFFFFFFFFFE0
FFFFFFFFFFE0
FFFFFFFFFFE0
FFFFFFFFFFE0
FFFFFFFFFFE0
FFFFFFFFFFE0
FFFFFFFFFFE0
FFFFFFFFFFE0
FFFFFFFFFFE0
FFFFFFFFFFE0
FFFFFFFFFFE0
0001FFF00000
0001FFF00000
0001FFF00000
0001FFF00000
0001FFF00000
0001FFF00000
0001FFF00000
0001FFF00000
0001FFF00000
0001FFF00000
0001FFF00000
0001FFF00000
0001FFF00000
0001FFF00000
0001FFF00000
0001FFF00000
0001FFF00000
0001FFF00000
0001FFF00000
0001FFF00000
0001FFF00000
0001FFF00000
0001FFF00000
0001FFF00000
0001FFF00000
0001FFF00000
0001FFF00000
0001FFF00000
0001FFF00000
0001FFF00000
0001FFF00000
0001FFF00000
0001FFF00000
0001FFF00000
0001FFF00000
0001FFF00000
0001FFF00000
0001FFF00000
0001FFF00000
0001FFF00000
0001FFF00000
0001FFF00000
0001FFF00000
0001FFF00000
0001FFF00000
0001FFF00000
0001FFF00000
0001FFF00000
0001FFF00000
0001FFF00000
ENDCHAR
STARTCHAR 0055
ENCODING 85
SWIDTH 540 0
DWIDTH 48 0
BBX 40 63 4 -1
BITMAP
FFFC001FFF
FFFC001FFF
FFFC001FFF
FFFC001FFF
FFFC001FFF
FFFC001FFF
FFFC001FFF
FFFC001FFF
FFFC001FFF
FFFC001FFF
FFFC001FFF
FFFC001FFF
FFFC001FFF
FFFC001FFF
FFFC001FFF
FFFC001FFF
FFFC001FFF
FFFC001FFF
FFFC001FFF
FFFC001FFF
FFFC001FFF
FFFC001FFF
FFFC001FFF
FFFC001FFF
FFFC001FFF
FFFC001FFF
FFFC001FFF
FFFC001FFF
FFFC001FFF
FFFC001FFF
FFFC001FFF
FFFC001FFF
FFFC001FFF
FFFC001FFF
FFFC001FFF
FFFC001FFF
FFFC001FFF
FFFC001FFF
FFFC001FFF
FFFC001FFF
FFFC001FFF
FFFC001FFF
FFFC001FFF
FFFC001FFF
FFFC001FFF
FFFC001FFF
7FFC003FFF
7FFE003FFF
7FFE007FFE
7FFF00FFFE
3FFFC3FFFE
3FFFFFFFFE
3FFFFFFFFC
1FFFFFFFFC
1FFFFFFFF8
0FFFFFFFF0
07FFFFFFF0
03FFFFFFE0
01FFFFFFC0
00FFFFFF00
003FFFFE00
001FFFF800
0003FFC000
ENDCHAR
STARTCHAR 0056
ENCODING 86
SWIDTH 506 0
DWIDTH 45 0
BBX 39 62 1 0
BITMAP
FFFC003FFE
FFFC003FFE
FFFC003FFE
FFFC003FFE
FFFC003FFE
FFFC003FFE
FFFC003FFE
FFFC003FFE
FFFC003FFE
FFFC003FFE
FFFC003FFE
FFFC003FFE
FFFC003FFE
FFFC003FFE
FFFC003FFE
FFFC003FFE
FFFC003FFE
FFFC003FFE
FFFC003FFE
FFFC003FFE
FFFC003FFE
FFFC003FFE
FFFC003FFE
FFFC003FFE
FFFC003FFE
FFFC003FFE
FFFC003FFE
FFFC003FFE
FFFC003FFE
FFFC003FFE
FFFC003FFE
FFFC003FFE
7FFC003FFE
7FFC003FFE
7FFC007FFE
7FFC007FFE
7FFC007FFE
7FFE007FFC
7FFE007FFC
7FFE007FFC
3FFE00FFFC
3FFF00FFFC
3FFF00FFF8
3FFF01FFF8
1FFF01FFF8
1FFF81FFF8
1FFF83FFF0
0FFFC3FFF0
0FFFC3FFE0
07FFE7FFE0
07FFE7FFE0
07FFEFFFC0
03FFFFFFC0
01FFFFFF80
01FFFFFF00
00FFFFFF00
00FFFFFE00
007FFFFC00
003FFFFC00
001FFFF800
001FFFF000
000FFFE000
ENDCHAR
STARTCHAR 0057
ENCODING 87
SWIDTH 787 0
DWIDTH 70 0
BBX 65 62 1 0
BITMAP
FFFC003FFE000FFF80
FFFC003FFE000FFF80
FFFC003FFE000FFF80
FFFC003FFE000FFF80
FFFC003FFE000FFF80
FFFC003FFE000FFF80
FFFC003FFE000FFF80
FFFC003FFE000FFF80
FFFC003FFE000FFF80
FFFC003FFE000FFF80
FFFC003FFE000FFF80
FFFC003FFE000FFF80
FFFC003FFE000FFF80
FFFC003FFE000FFF80
FFFC003FFE000FFF80
FFFC003FFE000FFF80
FFFC003FFE000FFF80
FFFC003FFE000FFF80
FFFC003FFE000FFF80
FFFC003FFE000FFF80
FFFC003FFE000FFF80
FFFC003FFE000FFF80
FFFC003FFE000FFF80
FFFC003FFE000FFF80
FFFC003FFE000FFF80
FFFC003FFE000FFF80
FFFC003FFE000FFF80
FFFC003FFE000FFF80
FFFC003FFE000FFF80
FFFC003FFE000FFF80
FFFC003FFF000FFF80
FFFC003FFF000FFF80
7FFC003FFF001FFF80
7FFC003FFF001FFF80
7FFC007FFF001FFF80
7FFC007FFF001FFF80
7FFC007FFF001FFF00
7FFE007FFF001FFF00
7FFE007FFF803FFF00
7FFE007FFF803FFF00
3FFE00FFFF803FFF00
3FFF00FFFF803FFE00
3FFF00FFFFC03FFE00
3FFF01FFFFC07FFE00
1FFF01FFFFC07FFE00
1FFF81FFFFE07FFC00
1FFF83FFFFE0FFFC00
0FFFC3FFFFE0FFFC00
0FFFC3FFFFF1FFF800
07FFE7FFFFF1FFF800
07FFE7FFFFFBFFF000
07FFEFFFFFFBFFF000
03FFFFFFFFFFFFE000
01FFFFFFFFFFFFE000
01FFFFFF7FFFFFC000
00FFFFFF3FFFFFC000
00FFFFFE3FFFFF8000
007FFFFC1FFFFF0000
003FFFFC0FFFFE0000
001FFFF80FFFFE0000
001FFFF007FFFC0000
000FFFE003FFF80000
ENDCHAR
STARTCHAR 0058
ENCODING 88
SWIDTH 551 0
DWIDTH 49 0
BBX 40 62 5 0
BITMAP
FFF8003FFF
FFF8003FFF
FFF8003FFF
FFF8003FFF
FFF8003FFF
FFF8003FFF
FFF8003FFF
FFF8003FFF
FFF8003FFF
FFF8003FFF
FFF8003FFF
FFF8003FFF
FFF8003FFF
FFF8003FFF
FFF8003FFF
FFF8003FFF
FFFC003FFE
FFFC007FFE
FFFE007FFE
7FFF00FFFE
7FFFC3FFFC
7FFFFFFFFC
3FFFFFFFF8
3FFFFFFFF8
1FFFFFFFF0
0FFFFFFFF0
0FFFFFFFE0
0FFFFFFFE0
0FFFFFFFF0
1FFFFFFFF0
3FFFFFFFF8
3FFFFFFFF8
7FFFFFFFFC
7FFFE7FFFC
7FFF00FFFE
FFFE007FFE
FFFC007FFE
FFFC003FFE
FFF8003FFF
FFF8003FFF
FFF8003FFF
FFF8003FFF
FFF8003FFF
FFF8003FFF
FFF8003FFF
FFF8003FFF
FFF8003FFF
FFF8003FFF
FFF8003FFF
FFF8003FFF
FFF8003FFF
FFF8003FFF
FFF8003FFF
FFF8003FFF
FFF8003FFF
FFF8003FFF
FFF8003FFF
FFF8003FFF
FFF8003FFF
FFF8003FFF
FFF8003FFF
FFF8003FFF
ENDCHAR
STARTCHAR 0059
ENCODING 89
SWIDTH 528 0
DWIDTH 47 0
BBX 40 62 4 0
BITMAP
FFF8001FFF
FFF8001FFF
FFF8001FFF
FFF8001FFF
FFF8001FFF
FFF8001FFF
FFF8001FFF
FFF8001FFF
FFF8001FFF
FFF8001FFF
FFF8001FFF
FFF8001FFF
FFF8001FFF
FFF8001FFF
FFF8001FFF
FFF8001FFF
FFF8001FFF
FFF8001FFF
FFF8001FFF
FFF8001FFF
FFF8001FFF
FFF8001FFF
FFF8001FFF
FFF8001FFF
FFF8001FFF
FFF8001FFF
FFF8001FFF
FFF8001FFF
FFF8003FFF
FFF8003FFF
FFFC003FFF
FFFC003FFE
FFFC007FFE
7FFE007FFE
7FFF01FFFE
7FFFEFFFFC
3FFFFFFFFC
3FFFFFFFFC
1FFFFFFFF8
1FFFFFFFF0
0FFFFFFFF0
07FFFFFFE0
03FFFFFFC0
01FFFFFF80
00FFFFFE00
007FFFFC00
000FFFF000
0007FFC000
0007FFC000
0007FFC000
0007FFC000
0007FFC000
0007FFC000
0007FFC000
0007FFC000
0007FFC000
0007FFC000
0007FFC000
0007FFC000
0007FFC000
0007FFC000
0007FFC000
ENDCHAR
STARTCHAR 005A
ENCODING 90
SWIDTH 540 0
DWIDTH 48 0
BBX 44 62 2 0
BITMAP
7FFFFFFFFFF0
7FFFFFFFFFF0
7FFFFFFFFFF0
7FFFFFFFFFF0
7FFFFFFFFFF0
7FFFFFFFFFF0
7FFFFFFFFFE0
7FFFFFFFFFE0
7FFFFFFFFFC0
7FFFFFFFFFC0
7FFFFFFFFF80
7FFFFFFFFF00
0000007FFF00
0000007FFE00
000000FFFE00
000000FFFC00
000001FFF800
000001FFF800
000003FFF000
000007FFF000
000007FFE000
00000FFFE000
00000FFFC000
00001FFF8000
00003FFF8000
00003FFF0000
00007FFF0000
00007FFE0000
0000FFFC0000
0001FFFC0000
0001FFF80000
0003FFF80000
0003FFF00000
0007FFF00000
000FFFE00000
000FFFC00000
001FFFC00000
001FFF800000
003FFF800000
007FFF000000
007FFE000000
00FFFE000000
00FFFC000000
01FFFC000000
01FFF8000000
03FFF0000000
07FFF0000000
07FFE0000000
0FFFE0000000
0FFFC0000000
1FFFFFFFFFC0
3FFFFFFFFFC0
3FFFFFFFFFC0
7FFFFFFFFFC0
7FFFFFFFFFC0
FFFFFFFFFFC0
FFFFFFFFFFC0
FFFFFFFFFFC0
FFFFFFFFFFC0
FFFFFFFFFFC0
FFFFFFFFFFC0
FFFFFFFFFFC0
ENDCHAR
STARTCHAR 005B
ENCODING 91
SWIDTH 281 0
DWIDTH 25 0
BBX 15 88 5 -14
BITMAP
FFFE
FFFE
FFFE
FFFE
FFFE
FFFE
FFFE
FFFE
FF80
FF80
FF80
FF80
FF80
FF80
FF80
FF80
FF80
FF80
FF80
FF80
FF80
FF80
FF80
FF80
FF80
FF80
FF80
FF80
FF80
FF80
FF80
FF80
FF80
FF80
FF80
FF80
FF80
FF80
FF80
FF80
FF80
FF80
FF80
FF80
FF80
FF80
FF80
FF80
FF80
FF80
FF80
FF80
FF80
FF80
FF80
FF80
FF80
FF80
FF80
FF80
FF80
FF80
FF80
FF80
FF80
FF80
FF80
FF80
FF80
FF80
FF80
FF80
FF80
FF80
FF80
FF80
FF80
FF80
FF80
FF80
FFFE
FFFE
FFFE
FFFE
FFFE
FFFE
FFFE
FFFE
ENDCHAR
STARTCHAR 005C
ENCODING 92
SWIDTH 438 0
DWIDTH 39 0
BBX 29 65 5 -1
BITMAP
FFE00000
FFE00000
7FE00000
7FF00000
7FF00000
3FF00000
3FF00000
3FF80000
3FF80000
1FF80000
1FFC0000
1FFC0000
0FFC0000
0FFC0000
0FFE0000
0FFE0000
07FE0000
07FF0000
07FF0000
03FF0000
03FF0000
03FF8000
03FF8000
01FF8000
01FFC000
01FFC000
00FFC000
00FFC000
00FFE000
00FFE000
007FE000
007FF000
007FF000
003FF000
003FF000
003FF800
003FF800
001FF800
001FFC00
001FFC00
000FFC00
000FFC00
000FFE00
000FFE00
0007FE00
0007FF00
0007FF00
0003FF00
0003FF00
0003FF80
0003FF80
0001FF80
0001FFC0
0001FFC0
0000FFC0
0000FFC0
0000FFE0
0000FFE0
00007FE0
00007FF0
00007FF0
00003FF0
00003FF0
00003FF8
00003FF8
ENDCHAR
STARTCHAR 005D
ENCODING 93
SWIDTH 281 0
DWIDTH 25 0
BBX 15 88 5 -14
BITMAP
FFFE
FFFE
FFFE
FFFE
FFFE
FFFE
FFFE
FFFE
01FE
01FE
01FE
01FE
01FE
01FE
01FE
01FE
01FE
01FE
01FE
01FE
01FE
01FE
01FE
01FE
01FE
01FE
01FE
01FE
01FE
01FE
01FE
01FE
01FE
01FE
01FE
01FE
01FE
01FE
01FE
01FE
01FE
01FE
01FE
01FE
01FE
01FE
01FE
01FE
01FE
01FE
01FE
01FE
01FE
01FE
01FE
01FE
01FE
01FE
01FE
01FE
01FE
01FE
01FE
01FE
01FE
01FE
01FE
01FE
01FE
01FE
01FE
01FE
01FE
01FE
01FE
01FE
01FE
01FE
01FE
01FE
FFFE
FFFE
FFFE
FFFE
FFFE
FFFE
FFFE
FFFE
ENDCHAR
STARTCHAR 005E
ENCODING 94
SWIDTH 540 0
DWIDTH 48 0
BBX 38 24 5 30
BITMAP
0007FF8000
000FFFC000
000FFFC000
001FFFE000
001FFFE000
003FFFF000
003FFFF000
007FFFF800
007FDFFC00
00FFCFFC00
00FF8FFE00
01FF87FE00
03FF07FF00
03FF03FF00
07FE01FF80
07FE01FF80
0FFC00FFC0
0FFC00FFE0
1FF8007FE0
1FF0003FF0
3FF0003FF0
7FE0001FF8
7FE0001FF8
FFC0000FFC
ENDCHAR
STARTCHAR 005F
ENCODING 95
SWIDTH 551 0
DWIDTH 49 0
BBX 39 7 5 -11
BITMAP
FFFFFFFFFE
FFFFFFFFFE
FFFFFFFFFE
FFFFFFFFFE
FFFFFFFFFE
FFFFFFFFFE
FFFFFFFFFE
ENDCHAR
STARTCHAR 0060
ENCODING 96
SWIDTH 168 0
DWIDTH 15 0
BBX 14 11 0 69
BITMAP
FFC0
7FC0
7FE0
3FE0
1FE0
1FF0
0FF0
07F8
07F8
03FC
01FC
ENDCHAR
STARTCHAR 0061
ENCODING 97
SWIDTH 573 0
DWIDTH 51 0
BBX 46 64 4 0
BITMAP
000008000000
0003FFE00000
001FFFFC0000
007FFFFE0000
00FFFFFF8000
01FFFFFFC000
03FFFFFFE000
07FFFFFFF000
0FFFFFFFF800
0FFFFFFFF800
1FFFFFFFFC00
1FFFFFFFFC00
3FFFFFFFFE00
3FFFC1FFFE00
7FFF007FFF00
7FFE003FFF00
7FFE003FFF00
7FFC001FFF00
7FFC001FFF00
7FFC001FFF80
FFFC001FFF80
FFFC001FFF80
FFFC001FFF80
FFFC001FFF80
FFFC001FFF80
FFFC001FFF80
FFFC001FFF80
FFFC001FFF80
FFFC001FFF80
FFFC001FFF80
FFFC001FFF80
FFFC001FFF80
FFFC001FFF80
FFFC001FFF80
FFFC001FFF80
FFFC001FFF80
FFFC001FFF80
FFFC001FFF80
FFFC001FFF80
FFFC001FFF80
FFFC001FFF80
FFFC001FFF80
FFFC001FFF80
FFFC001FFF80
FFFC001FFF80
FFFC001FFF80
FFFC001FFF80
FFFC001FFF80
FFFC001FFF80
FFFC001FFF80
FFFC001FFF80
FFFC001FFF80
FFFFFFFFFFFC
FFFFFFFFFFFC
FFFFFFFFFFFC
FFFFFFFFFFFC
FFFFFFFFFFFC
FFFFFFFFFFFC
FFFFFFFFFFFC
FFFFFFFFFFFC
FFFFFFFFFFFC
FFFFFFFFFFFC
FFFFFFFFFFFC
FFFFFFFFFFFC
ENDCHAR
STARTCHAR 0062
ENCODING 98
SWIDTH 641 0
DWIDTH 57 0
BBX 52 62 3 0
BITMAP
03FFFFFFF00000
03FFFFFFFE0000
03FFFFFFFF8000
03FFFFFFFFE000
03FFFFFFFFF000
03FFFFFFFFF800
03FFFFFFFFFC00
03FFFFFFFFFE00
03FFFFFFFFFF00
03FFFFFFFFFF00
03FFFFFFFFFF80
03FFFFFFFFFF80
03FFC000FFFFC0
03FFC0003FFFC0
03FFC0000FFFC0
03FFC0000FFFC0
03FFC00007FFC0
03FFC00007FFC0
03FFC00007FFC0
03FFC00007FFC0
03FFC0000FFFC0
03FFC0000FFFC0
03FFC0001FFFC0
03FFC0003FFF80
FFFFFFFFFFFF80
FFFFFFFFFFFF80
FFFFFFFFFFFF00
FFFFFFFFFFFE00
FFFFFFFFFFFE00
FFFFFFFFFFFC00
FFFFFFFFFFFE00
FFFFFFFFFFFF00
FFFFFFFFFFFF00
FFFFFFFFFFFF80
FFFFFFFFFFFFC0
FFFFFFFFFFFFC0
03FFC001FFFFE0
03FFC0001FFFE0
03FFC00007FFE0
03FFC00007FFF0
03FFC00003FFF0
03FFC00003FFF0
03FFC00003FFF0
03FFC00003FFF0
03FFC00003FFF0
03FFC00003FFF0
03FFC00007FFF0
03FFC00007FFE0
03FFC0001FFFE0
03FFC001FFFFE0
03FFFFFFFFFFE0
03FFFFFFFFFFC0
03FFFFFFFFFFC0
03FFFFFFFFFF80
03FFFFFFFFFF00
03FFFFFFFFFF00
03FFFFFFFFFE00
03FFFFFFFFF800
03FFFFFFFFF000
03FFFFFFFFC000
03FFFFFFFF0000
03FFFFFFF00000
ENDCHAR
STARTCHAR 0063
ENCODING 99
SWIDTH 686 0
DWIDTH 61 0
BBX 57 65 3 -1
BITMAP
00000001F0000000
0000007FFFC00000
000007FFFFF80000
00001FFFFFFF0000
00007FFFFFFFC000
0001FFFFFFFFE000
0003FFFFFFFFF800
000FFFFFFFFFFC00
001FFFFFFFFFFE00
003FFFFFFFFFFF00
007FFFFFFFFFFF80
00FFFFFFFFFFFF00
01FFFFFFFFFFFE00
03FFFFF803FFFC00
03FFFFC0007FF800
07FFFF00001FF000
07FFFC000007E000
0FFFF8000003C000
1FFFF00000018000
1FFFE00000000000
1FFFC00000000000
3FFF800000000000
3FFF000000000000
3FFF000000000000
7FFE000000000000
7FFE000000000000
7FFE000000000000
7FFC000000000000
7FFC000000000000
FFFC000000000000
FFFC000000000000
FFFC000000000000
FFFC000000000000
FFFC000000000000
FFFC000000000000
FFFC000000000000
FFFC000000000000
7FFC000000000000
7FFC000000000000
7FFE000000000000
7FFE000000000000
7FFE000000000000
3FFF000000000000
3FFF000000000000
3FFF800000000000
1FFFC00000000000
1FFFE00000000000
0FFFF00000018000
0FFFF8000007C000
07FFFC00000FE000
07FFFF00001FF000
03FFFFC0007FF800
01FFFFFC07FFFC00
00FFFFFFFFFFFE00
00FFFFFFFFFFFF00
007FFFFFFFFFFF80
003FFFFFFFFFFF00
001FFFFFFFFFFE00
0007FFFFFFFFFC00
0003FFFFFFFFF000
0000FFFFFFFFE000
00007FFFFFFF8000
00001FFFFFFE0000
000003FFFFF80000
0000003FFF800000
ENDCHAR
STARTCHAR 0064
ENCODING 100
SWIDTH 686 0
DWIDTH 61 0
BBX 53 62 5 0
BITMAP
FFFFFFF0000000
FFFFFFFF000000
FFFFFFFFE00000
FFFFFFFFF80000
FFFFFFFFFE0000
FFFFFFFFFF8000
FFFFFFFFFFC000
FFFFFFFFFFE000
FFFFFFFFFFF800
FFFFFFFFFFF800
FFFFFFFFFFFC00
FFFFFFFFFFFE00
FFF801FFFFFF00
FFF8000FFFFF80
FFF80003FFFF80
FFF80000FFFFC0
FFF800003FFFC0
FFF800001FFFE0
FFF800000FFFE0
FFF8000007FFE0
FFF8000007FFF0
FFF8000003FFF0
FFF8000003FFF0
FFF8000001FFF8
FFF8000001FFF8
FFF8000001FFF8
FFF8000001FFF8
FFF8000000FFF8
FFF8000000FFF8
FFF8000000FFF8
FFF8000000FFF8
FFF8000000FFF8
FFF8000000FFF8
FFF8000000FFF8
FFF8000000FFF8
FFF8000001FFF8
FFF8000001FFF8
FFF8000001FFF8
FFF8000001FFF0
FFF8000003FFF0
FFF8000003FFF0
FFF8000007FFF0
FFF800000FFFE0
FFF800000FFFE0
FFF800001FFFE0
FFF800007FFFC0
FFF80000FFFFC0
FFF80003FFFF80
FFF8001FFFFF00
FFF80FFFFFFF00
FFFFFFFFFFFE00
FFFFFFFFFFFC00
FFFFFFFFFFF800
FFFFFFFFFFF000
FFFFFFFFFFE000
FFFFFFFFFFC000
FFFFFFFFFF8000
FFFFFFFFFE0000
FFFFFFFFF80000
FFFFFFFFE00000
FFFFFFFF000000
FFFFFFE0000000
ENDCHAR
STARTCHAR 0065
ENCODING 101
SWIDTH 517 0
DWIDTH 46 0
BBX 44 62 2 0
BITMAP
03FFFFFF8000
03FFFFFF8000
03FFFFFF8000
03FFFFFF8000
03FFFFFF8000
03FFFFFF8000
03FFFFFF8000
03FFFFFF8000
03FFFFFF8000
03FFFFFF8000
03FFFFFF8000
03FFFFFF8000
03FFE0000000
03FFE0000000
03FFE0000000
03FFE0000000
03FFE0000000
03FFE0000000
03FFE0000000
03FFE0000000
03FFE0000000
03FFE0000000
03FFE0000000
03FFE0000000
03FFE0000000
FFFFFFFFF000
FFFFFFFFF000
FFFFFFFFF000
FFFFFFFFF000
FFFFFFFFF000
FFFFFFFFF000
FFFFFFFFF000
FFFFFFFFF000
FFFFFFFFF000
FFFFFFFFF000
FFFFFFFFF000
FFFFFFFFF000
03FFE0000000
03FFE0000000
03FFE0000000
03FFE0000000
03FFE0000000
03FFE0000000
03FFE0000000
03FFE0000000
03FFE0000000
03FFE0000000
03FFE0000000
03FFE0000000
03FFE0000000
03FFFFFFFFF0
03FFFFFFFFF0
03FFFFFFFFF0
03FFFFFFFFF0
03FFFFFFFFF0
03FFFFFFFFF0
03FFFFFFFFF0
03FFFFFFFFF0
03FFFFFFFFF0
03FFFFFFFFF0
03FFFFFFFFF0
03FFFFFFFFF0
ENDCHAR
STARTCHAR 0066
ENCODING 102
SWIDTH 483 0
DWIDTH 43 0
BBX 41 62 2 0
BITMAP
03FFFFFFFF80
03FFFFFFFF80
03FFFFFFFF80
03FFFFFFFF80
03FFFFFFFF80
03FFFFFFFF80
03FFFFFFFF80
03FFFFFFFF80
03FFFFFFFF80
03FFFFFFFF80
03FFFFFFFF80
03FFFFFFFF80
03FFF0000000
03FFF0000000
03FFF0000000
03FFF0000000
03FFF0000000
03FFF0000000
03FFF0000000
03FFF0000000
03FFF0000000
03FFF0000000
03FFF0000000
03FFF0000000
03FFF0000000
03FFF0000000
03FFF0000000
FFFFFFFFFC00
FFFFFFFFFC00
FFFFFFFFFC00
FFFFFFFFFC00
FFFFFFFFFC00
FFFFFFFFFC00
FFFFFFFFFC00
FFFFFFFFFC00
FFFFFFFFFC00
FFFFFFFFFC00
FFFFFFFFFC00
FFFFFFFFFC00
03FFF0000000
03FFF0000000
03FFF0000000
03FFF0000000
03FFF0000000
03FFF0000000
03FFF0000000
03FFF0000000
03FFF0000000
03FFF0000000
03FFF0000000
03FFF0000000
03FFF0000000
03FFF0000000
03FFF0000000
03FFF0000000
03FFF0000000
03FFF0000000
03FFF0000000
03FFF0000000
03FFF0000000
03FFF0000000
03FFF0000000
ENDCHAR
STARTCHAR 0067
ENCODING 103
SWIDTH 821 0
DWIDTH 73 0
BBX 70 65 3 -1
BITMAP
00000000E000000000
0000007FFFC0000000
000003FFFFFC000000
00001FFFFFFF000000
00007FFFFFFFC00000
0001FFFFFFFFE00000
0003FFFFFFFFF80000
000FFFFFFFFFFC0000
001FFFFFFFFFFE0000
003FFFFFFFFFFF0000
007FFFFFFFFFFF8000
00FFFFFFFFFFFF0000
01FFFFFFFFFFFE0000
01FFFFF801FFFC0000
03FFFF80003FF80000
07FFFE00001FF00000
07FFFC000007E00000
0FFFF8000003C00000
0FFFE0000001800000
1FFFC0000000000000
1FFFC0000000000000
3FFF80000000000000
3FFF00000000000000
3FFF00000000000000
7FFE00000000000000
7FFE00000000000000
7FFE00000000000000
7FFC0000FFFFFFFFFC
7FFC0000FFFFFFFFFC
FFFC0000FFFFFFFFFC
FFFC0000FFFFFFFFFC
FFFC0000FFFFFFFFFC
FFFC0000FFFFFFFFFC
FFFC0000FFFFFFFFFC
FFFC0000FFFFFFFFFC
FFFC0000FFFFFFFFFC
FFFC0000FFFFFFFFFC
7FFC0000FFFFFFFFFC
7FFC0000FFFFFFFFFC
7FFE000000001FFF80
7FFE000000003FFF80
7FFE000000003FFF00
3FFF000000003FFF00
3FFF000000007FFF00
3FFF800000007FFF00
1FFFC0000000FFFE00
1FFFE0000001FFFE00
0FFFF0000001FFFC00
0FFFF8000003FFFC00
07FFFC00000FFFF800
07FFFF00001FFFF800
03FFFFC0007FFFF000
01FFFFF807FFFFE000
00FFFFFFFFFFFFE000
00FFFFFFFFFFFFC000
007FFFFFFFFFFF8000
003FFFFFFFFFFF0000
001FFFFFFFFFFE0000
0007FFFFFFFFFC0000
0003FFFFFFFFF80000
0000FFFFFFFFE00000
00007FFFFFFF800000
00000FFFFFFE000000
000003FFFFF8000000
0000003FFF80000000
ENDCHAR
STARTCHAR 0068
ENCODING 104
SWIDTH 585 0
DWIDTH 52 0
BBX 46 62 2 0
BITMAP
03FFE000FFFC
03FFE000FFFC
03FFE000FFFC
03FFE000FFFC
03FFE000FFFC
03FFE000FFFC
03FFE000FFFC
03FFE000FFFC
03FFE000FFFC
03FFE000FFFC
03FFE000FFFC
03FFE000FFFC
03FFE000FFFC
03FFE000FFFC
03FFE000FFFC
03FFE000FFFC
03FFE000FFFC
03FFE000FFFC
03FFE000FFFC
03FFE000FFFC
03FFE000FFFC
03FFE000FFFC
03FFE000FFFC
03FFE000FFFC
03FFE000FFFC
03FFE000FFFC
03FFE000FFFC
FFFFFFFFFFFC
FFFFFFFFFFFC
FFFFFFFFFFFC
FFFFFFFFFFFC
FFFFFFFFFFFC
FFFFFFFFFFFC
FFFFFFFFFFFC
FFFFFFFFFFFC
FFFFFFFFFFFC
FFFFFFFFFFFC
FFFFFFFFFFFC
FFFFFFFFFFFC
FFFFFFFFFFFC
03FFE000FFFC
03FFE000FFFC
03FFE000FFFC
03FFE000FFFC
03FFE000FFFC
03FFE000FFFC
03FFE000FFFC
03FFE000FFFC
03FFE000FFFC
03FFE000FFFC
03FFE000FFFC
03FFE000FFFC
03FFE000FFFC
03FFE000FFFC
03FFE000FFFC
03FFE000FFFC
03FFE000FFFC
03FFE000FFFC
03FFE000FFFC
03FFE000FFFC
03FFE000FFFC
03FFE000FFFC
ENDCHAR
STARTCHAR 0069
ENCODING 105
SWIDTH 247 0
DWIDTH 22 0
BBX 27 71 -2 1
BITMAP
00040000
000C0000
000E0000
001E0000
001F0000
001F0000
003F0000
003F8000
03FFF000
FFFFFFE0
7FFFFFC0
3FFFFF00
1FFFFE00
0FFFFC00
07FFF800
01FFF000
01FFF000
03FFF000
03FFF000
03FFF000
03FFF800
03E1F800
07C07800
07001800
04000C00
00000000
00000000
00000000
00000000
00000000
00000000
00000000
00000000
01FFF000
01FFF000
01FFF000
01FFF000
01FFF000
01FFF000
01FFF000
01FFF000
01FFF000
01FFF000
01FFF000
01FFF000
01FFF000
01FFF000
01FFF000
01FFF000
01FFF000
01FFF000
01FFF000
01FFF000
01FFF000
01FFF000
01FFF000
01FFF000
01FFF000
01FFF000
01FFF000
01FFF000
01FFF000
01FFF000
01FFF000
01FFF000
01FFF000
01FFF000
01FFF000
01FFF000
01FFF000
01FFF000
ENDCHAR
STARTCHAR 006A
ENCODING 106
SWIDTH 483 0
DWIDTH 43 0
BBX 37 63 2 -1
BITMAP
00007FFFF8
00007FFFF8
00007FFFF8
00007FFFF8
00007FFFF8
00007FFFF8
00007FFFF8
00007FFFF8
00007FFFF8
00007FFFF8
00007FFFF8
00007FFFF8
000001FFF8
000001FFF8
000001FFF8
000001FFF8
000001FFF8
000001FFF8
000001FFF8
000001FFF8
000001FFF8
000001FFF8
000001FFF8
000001FFF8
000001FFF8
000001FFF8
000001FFF8
000001FFF8
000001FFF8
000001FFF8
000001FFF8
000001FFF8
000001FFF8
000001FFF8
000001FFF8
000001FFF8
000001FFF8
000001FFF8
000001FFF8
000001FFF8
000001FFF8
000001FFF8
000001FFF8
000001FFF8
000001FFF8
000001FFF0
002001FFF0
00E003FFF0
01F003FFF0
07F807FFF0
1FFE1FFFE0
3FFFFFFFE0
FFFFFFFFE0
FFFFFFFFC0
FFFFFFFFC0
7FFFFFFF80
3FFFFFFF00
1FFFFFFE00
0FFFFFFC00
07FFFFF800
03FFFFF000
00FFFFC000
001FFE0000
ENDCHAR
STARTCHAR 006B
ENCODING 107
SWIDTH 585 0
DWIDTH 52 0
BBX 46 62 2 0
BITMAP
03FFE007FFC0
03FFE007FFC0
03FFE007FFC0
03FFE007FFC0
03FFE007FFC0
03FFE007FFC0
03FFE007FFC0
03FFE007FFC0
03FFE007FFC0
03FFE007FFC0
03FFE007FFC0
03FFE007FFC0
03FFE007FFC0
03FFE007FFC0
03FFE007FFC0
03FFE007FFC0
03FFE007FFC0
03FFE007FFC0
03FFE00FFFC0
03FFE00FFFC0
03FFE00FFFC0
03FFE01FFF80
03FFE03FFF80
03FFE07FFF80
FFFFFFFFFF00
FFFFFFFFFF00
FFFFFFFFFF00
FFFFFFFFFE00
FFFFFFFFFE00
FFFFFFFFFF00
FFFFFFFFFF80
FFFFFFFFFFC0
FFFFFFFFFFC0
FFFFFFFFFFE0
FFFFFFFFFFF0
FFFFFFFFFFF0
03FFE00FFFF0
03FFE003FFF8
03FFE001FFF8
03FFE001FFF8
03FFE000FFF8
03FFE000FFFC
03FFE000FFFC
03FFE000FFFC
03FFE000FFFC
03FFE0007FFC
03FFE0007FFC
03FFE0007FFC
03FFE0007FFC
03FFE0007FFC
03FFE0007FFC
03FFE0007FFC
03FFE0007FFC
03FFE0007FFC
03FFE0007FFC
03FFE0007FFC
03FFE0007FFC
03FFE0007FFC
03FFE0007FFC
03FFE0007FFC
03FFE0007FFC
03FFE0007FFC
ENDCHAR
STARTCHAR 006C
ENCODING 108
SWIDTH 472 0
DWIDTH 42 0
BBX 35 62 5 0
BITMAP
FFF8000000
FFF8000000
FFF8000000
FFF8000000
FFF8000000
FFF8000000
FFF8000000
FFF8000000
FFF8000000
FFF8000000
FFF8000000
FFF8000000
FFF8000000
FFF8000000
FFF8000000
FFF8000000
FFF8000000
FFF8000000
FFF8000000
FFF8000000
FFF8000000
FFF8000000
FFF8000000
FFF8000000
FFF8000000
FFF8000000
FFF8000000
FFF8000000
FFF8000000
FFF8000000
FFF8000000
FFF8000000
FFF8000000
FFF8000000
FFF8000000
FFF8000000
FFF8000000
FFF8000000
FFF8000000
FFF8000000
FFF8000000
FFF8000000
FFF8000000
FFF8000000
FFF8000000
FFF8000000
FFF8000000
FFF8000000
FFF8000000
FFF8000000
FFFFFFFFE0
FFFFFFFFE0
FFFFFFFFE0
FFFFFFFFE0
FFFFFFFFE0
FFFFFFFFE0
FFFFFFFFE0
FFFFFFFFE0
FFFFFFFFE0
FFFFFFFFE0
FFFFFFFFE0
FFFFFFFFE0
ENDCHAR
STARTCHAR 006D
ENCODING 109
SWIDTH 888 0
DWIDTH 79 0
BBX 72 64 2 0
BITMAP
010000000000000000
03C00000F800000000
03E00000FC00001FFF
07F00000FE00001FFF
0FF80000FF80001FFF
1FFE0000FFC0001FFF
1FFF0000FFE0001FFF
3FFF8000FFF0001FFF
7FFFC000FFFC001FFF
FFFFF000FFFE001FFF
FFFFF800FFFF001FFF
7FFFFC00FFFFC01FFF
3FFFFF00FFFFE01FFF
1FFFFF80FFFFF01FFF
07FFFFC0FFFFF81FFF
03FFFFE0FFFFFE1FFF
03FFFFF8FFFFFF1FFF
03FFFFFCFFFFFF9FFF
03FFFFFEFFFFFFFFFF
03FFFFFFFFFFFFFFFF
03FFFFFFFFFFFFFFFF
03FFFFFFFFFFFFFFFF
03FFFFFFFFFFFFFFFF
03FFFFFFFFFFFFFFFF
03FFFFFFFFFFFFFFFF
03FFEFFFFFFDFFFFFF
03FFE3FFFFFC7FFFFF
03FFE1FFFFFC3FFFFF
03FFE0FFFFFC1FFFFF
03FFE07FFFFC0FFFFF
03FFE01FFFFC03FFFF
03FFE00FFFFC01FFFF
03FFE007FFFC00FFFF
03FFE001FFFC003FFF
03FFE000FFFC001FFF
03FFE000FFFC001FFF
03FFE000FFFC001FFF
03FFE000FFFC001FFF
03FFE000FFFC001FFF
03FFE000FFFC001FFF
03FFE000FFFC001FFF
03FFE000FFFC001FFF
03FFE000FFFC001FFF
03FFE000FFFC001FFF
03FFE000FFFC001FFF
03FFE000FFFC001FFF
03FFE000FFFC001FFF
03FFE000FFFC001FFF
03FFE000FFFC001FFF
03FFE000FFFC001FFF
03FFE000FFFC001FFF
03FFE000FFFC001FFF
03FFE000FFFC001FFF
03FFE000FFFC001FFF
03FFE000FFFC001FFF
03FFE000FFFC001FFF
03FFE000FFFC001FFF
03FFE000FFFC001FFF
03FFE000FFFC001FFF
03FFE000FFFC001FFF
03FFE000FFFC001FFF
03FFE000FFFC001FFF
03FFE000FFFC001FFF
03FFE000FFFC001FFF
ENDCHAR
STARTCHAR 006E
ENCODING 110
SWIDTH 585 0
DWIDTH 52 0
BBX 45 64 2 0
BITMAP
010000000000
03C000000000
03E00000FFF8
07F00000FFF8
0FF80000FFF8
1FFE0000FFF8
1FFF0000FFF8
3FFF8000FFF8
7FFFC000FFF8
FFFFF000FFF8
FFFFF800FFF8
7FFFFC00FFF8
3FFFFF00FFF8
1FFFFF80FFF8
07FFFFC0FFF8
07FFFFE0FFF8
07FFFFF8FFF8
07FFFFFCFFF8
07FFFFFEFFF8
07FFFFFFFFF8
07FFFFFFFFF8
07FFFFFFFFF8
07FFFFFFFFF8
07FFFFFFFFF8
07FFFFFFFFF8
07FFDFFFFFF8
07FFCFFFFFF8
07FFC3FFFFF8
07FFC1FFFFF8
07FFC0FFFFF8
07FFC03FFFF8
07FFC01FFFF8
07FFC00FFFF8
07FFC007FFF8
07FFC001FFF8
07FFC000FFF8
07FFC000FFF8
07FFC000FFF8
07FFC000FFF8
07FFC000FFF8
07FFC000FFF8
07FFC000FFF8
07FFC000FFF8
07FFC000FFF8
07FFC000FFF8
07FFC000FFF8
07FFC000FFF8
07FFC000FFF8
07FFC000FFF8
07FFC000FFF8
07FFC000FFF8
07FFC000FFF8
07FFC000FFF8
07FFC000FFF8
07FFC000FFF8
07FFC000FFF8
07FFC000FFF8
07FFC000FFF8
07FFC000FFF8
07FFC000FFF8
07FFC000FFF8
07FFC000FFF8
07FFC000FFF8
07FFC000FFF8
ENDCHAR
STARTCHAR 006F
ENCODING 111
SWIDTH 821 0
DWIDTH 73 0
BBX 67 65 3 -1
BITMAP
00000000E000000000
0000007FFFE0000000
000003FFFFFC000000
00001FFFFFFF000000
00007FFFFFFFC00000
0001FFFFFFFFF00000
0003FFFFFFFFFC0000
000FFFFFFFFFFE0000
001FFFFFFFFFFF0000
003FFFFFFFFFFF8000
007FFFFFFFFFFFC000
00FFFFFFFFFFFFE000
01FFFFFFFFFFFFF000
01FFFFF801FFFFF800
03FFFFC0003FFFFC00
07FFFF00000FFFFC00
07FFFC000003FFFE00
0FFFF8000001FFFF00
0FFFE0000000FFFF00
1FFFE00000007FFF00
1FFFC00000003FFF80
3FFF800000001FFF80
3FFF000000001FFFC0
3FFF000000000FFFC0
7FFE000000000FFFC0
7FFE0000000007FFE0
7FFE0000000007FFE0
7FFC0000000007FFE0
7FFC0000000003FFE0
FFFC0000000003FFE0
FFFC0000000003FFE0
FFFC0000000003FFE0
FFFC0000000003FFE0
FFFC0000000003FFE0
FFFC0000000003FFE0
FFFC0000000003FFE0
FFFC0000000003FFE0
7FFC0000000007FFE0
7FFC0000000007FFE0
7FFE0000000007FFE0
7FFE0000000007FFC0
7FFE000000000FFFC0
3FFF000000000FFFC0
3FFF000000001FFFC0
3FFF800000003FFF80
1FFFC00000003FFF80
1FFFE00000007FFF00
0FFFF0000000FFFF00
0FFFF8000001FFFE00
07FFFC000007FFFE00
07FFFF00000FFFFC00
03FFFFC0007FFFFC00
01FFFFFC03FFFFF800
00FFFFFFFFFFFFF000
00FFFFFFFFFFFFE000
007FFFFFFFFFFFC000
003FFFFFFFFFFF8000
001FFFFFFFFFFF0000
0007FFFFFFFFFE0000
0003FFFFFFFFF80000
0000FFFFFFFFF00000
00007FFFFFFFC00000
00000FFFFFFF000000
000003FFFFF8000000
0000003FFFC0000000
ENDCHAR
STARTCHAR 0070
ENCODING 112
SWIDTH 585 0
DWIDTH 52 0
BBX 48 62 2 0
BITMAP
07FFFFFF8000
07FFFFFFF000
07FFFFFFFE00
07FFFFFFFF00
07FFFFFFFFC0
07FFFFFFFFE0
07FFFFFFFFF0
07FFFFFFFFF8
07FFFFFFFFFC
07FFFFFFFFFC
07FFFFFFFFFE
07FFFFFFFFFE
07FFC003FFFE
07FFC000FFFF
07FFC0003FFF
07FFC0003FFF
07FFC0001FFF
07FFC0001FFF
07FFC0001FFF
07FFC0000FFF
07FFC0001FFF
07FFC0001FFF
07FFC0001FFF
07FFC0001FFF
07FFC0003FFF
07FFC0007FFF
07FFC001FFFE
07FFC03FFFFE
FFFFFFFFFFFE
FFFFFFFFFFFC
FFFFFFFFFFF8
FFFFFFFFFFF8
FFFFFFFFFFF0
FFFFFFFFFFE0
FFFFFFFFFFC0
FFFFFFFFFF80
FFFFFFFFFE00
FFFFFFFFF800
FFFFFFFFC000
FFFFFFD00000
07FFC0000000
07FFC0000000
07FFC0000000
07FFC0000000
07FFC0000000
07FFC0000000
07FFC0000000
07FFC0000000
07FFC0000000
07FFC0000000
07FFC0000000
07FFC0000000
07FFC0000000
07FFC0000000
07FFC0000000
07FFC0000000
07FFC0000000
07FFC0000000
07FFC0000000
07FFC0000000
07FFC0000000
07FFC0000000
ENDCHAR
STARTCHAR 0071
ENCODING 113
SWIDTH 821 0
DWIDTH 73 0
BBX 67 67 3 -3
BITMAP
00000000E000000000
0000007FFFE0000000
000003FFFFFC000000
00001FFFFFFF000000
00007FFFFFFFC00000
0001FFFFFFFFF00000
0003FFFFFFFFFC0000
000FFFFFFFFFFE0000
001FFFFFFFFFFF0000
003FFFFFFFFFFF8000
007FFFFFFFFFFFC000
00FFFFFFFFFFFFE000
01FFFFFFFFFFFFF000
01FFFFF801FFFFF800
03FFFFC0003FFFFC00
07FFFF00000FFFFC00
07FFFC000003FFFE00
0FFFF8000001FFFF00
0FFFE0000000FFFF00
1FFFE00000007FFF00
1FFFC00000003FFF80
3FFF800000001FFF80
3FFF000000001FFFC0
3FFF000000000FFFC0
7FFE000000000FFFC0
7FFE0000000007FFE0
7FFE0000000007FFE0
7FFC0000000007FFE0
7FFC0000000003FFE0
FFFC0000000003FFE0
FFFC0000000003FFE0
FFFC0000000003FFE0
FFFC0000000003FFE0
FFFC0000000003FFE0
FFFC0000000003FFE0
FFFC0000000003FFE0
FFFC0000000003FFE0
7FFC0000000007FFE0
7FFC0000000007FFE0
7FFE0000000007FFE0
7FFE0000000007FFC0
7FFE000000000FFFC0
3FFF000000000FFFC0
3FFF000000001FFFC0
3FFF800000003FFF80
1FFFC00000003FFF80
1FFFE00000007FFF00
0FFFF0000000FFFF00
0FFFF8000001FFFE00
07FFFC000007FFFE00
07FFFF00000FFFFC00
03FFFFC0007FFFFC00
01FFFFFC03FFFFF800
00FFFFFFFFFFFFF800
00FFFFFFFFFFFFFC00
007FFFFFFFFFFFFE00
003FFFFFFFFFFFFF00
001FFFFFFFFFFFFF80
0007FFFFFFFFFFFF80
0003FFFFFFFFFFFF00
0000FFFFFFFFFFFE00
00007FFFFFFFFFFC00
00000FFFFFFF1FF800
000003FFFFF80FF000
0000003FFFC007E000
00000000000003C000
000000000000018000
ENDCHAR
STARTCHAR 0072
ENCODING 114
SWIDTH 618 0
DWIDTH 55 0
BBX 51 62 2 0
BITMAP
03FFFFFFE00000
03FFFFFFFE0000
03FFFFFFFF8000
03FFFFFFFFE000
03FFFFFFFFF000
03FFFFFFFFF800
03FFFFFFFFFC00
03FFFFFFFFFE00
03FFFFFFFFFF00
03FFFFFFFFFF00
03FFFFFFFFFF80
03FFFFFFFFFF80
03FFE000FFFFC0
03FFE0003FFFC0
03FFE0000FFFC0
03FFE00007FFC0
03FFE00007FFC0
03FFE00007FFC0
03FFE00003FFE0
03FFE00003FFE0
03FFE00003FFC0
03FFE00007FFC0
03FFE00007FFC0
03FFE0000FFFC0
03FFE0001FFFC0
03FFE0003FFFC0
03FFE003FFFF80
FFFFFFFFFFFF80
FFFFFFFFFFFF00
FFFFFFFFFFFF00
FFFFFFFFFFFE00
FFFFFFFFFFFC00
FFFFFFFFFFF800
FFFFFFFFFFF000
FFFFFFFFFFE000
FFFFFFFFFFF000
FFFFFFFFFFF800
FFFFFFFFFFF800
FFFFFFFFFFFC00
03FFE003FFFC00
03FFE000FFFE00
03FFE0007FFE00
03FFE0007FFE00
03FFE0003FFE00
03FFE0003FFF00
03FFE0003FFF00
03FFE0003FFF00
03FFE0001FFF00
03FFE0001FFF00
03FFE0001FFF00
03FFE0001FFF00
03FFE0001FFF00
03FFE0001FFF00
03FFE0001FFF00
03FFE0001FFF00
03FFE0001FFF00
03FFE0001FFF00
03FFE0001FFF00
03FFE0001FFF00
03FFE0001FFF00
03FFE0001FFF00
03FFE0001FFF00
ENDCHAR
STARTCHAR 0073
ENCODING 115
SWIDTH 517 0
DWIDTH 46 0
BBX 41 65 3 -1
BITMAP
00007E000000
0007FFF00000
003FFFFC0000
007FFFFF0000
01FFFFFF8000
03FFFFFFC000
07FFFFFFE000
07FFFFFFF000
0FFFFFFFF800
1FFFFFFFF800
1FFFFFFFFC00
1FFFFFFFFC00
3FFFFFFFFE00
3FFFC1FFFE00
3FFF807FFE00
3FFF007FFE00
3FFE003FFC00
3FFE001FC000
3FFE001E0000
3FFF00000000
3FFF00000000
3FFF80000000
1FFFC0000000
1FFFF0000000
1FFFF8000000
0FFFFE000000
07FFFF000000
07FFFFC00000
03FFFFF00000
01FFFFF80000
00FFFFFE0000
007FFFFF0000
001FFFFF8000
000FFFFFC000
0007FFFFE000
0001FFFFF000
0000FFFFF800
00003FFFFC00
00000FFFFC00
000007FFFE00
000003FFFE00
000000FFFF00
0000007FFF00
0000003FFF00
0000003FFF00
0018001FFF80
00F8001FFF80
07F8001FFF80
3FFC001FFF80
FFFC001FFF00
FFFE003FFF00
7FFF007FFF00
7FFFE3FFFF00
7FFFFFFFFF00
3FFFFFFFFE00
3FFFFFFFFE00
1FFFFFFFFC00
0FFFFFFFFC00
07FFFFFFF800
03FFFFFFF000
01FFFFFFE000
00FFFFFFC000
003FFFFF0000
000FFFFC0000
0001FFE00000
ENDCHAR
STARTCHAR 0074
ENCODING 116
SWIDTH 528 0
DWIDTH 47 0
BBX 43 62 2 0
BITMAP
FFFFFFFFFFE0
FFFFFFFFFFE0
FFFFFFFFFFE0
FFFFFFFFFFE0
FFFFFFFFFFE0
FFFFFFFFFFE0
FFFFFFFFFFE0
FFFFFFFFFFE0
FFFFFFFFFFE0
FFFFFFFFFFE0
FFFFFFFFFFE0
FFFFFFFFFFE0
0001FFF00000
0001FFF00000
0001FFF00000
0001FFF00000
0001FFF00000
0001FFF00000
0001FFF00000
0001FFF00000
0001FFF00000
0001FFF00000
0001FFF00000
0001FFF00000
0001FFF00000
0001FFF00000
0001FFF00000
0001FFF00000
0001FFF00000
0001FFF00000
0001FFF00000
0001FFF00000
0001FFF00000
0001FFF00000
0001FFF00000
0001FFF00000
0001FFF00000
0001FFF00000
0001FFF00000
0001FFF00000
0001FFF00000
0001FFF00000
0001FFF00000
0001FFF00000
0001FFF00000
0001FFF00000
0001FFF00000
0001FFF00000
0001FFF00000
0001FFF00000
0001FFF00000
0001FFF00000
0001FFF00000
0001FFF00000
0001FFF00000
0001FFF00000
0001FFF00000
0001FFF00000
0001FFF00000
0001FFF00000
0001FFF00000
0001FFF00000
ENDCHAR
STARTCHAR 0075
ENCODING 117
SWIDTH 540 0
DWIDTH 48 0
BBX 40 63 4 -1
BITMAP
FFFC001FFF
FFFC001FFF
FFFC001FFF
FFFC001FFF
FFFC001FFF
FFFC001FFF
FFFC001FFF
FFFC001FFF
FFFC001FFF
FFFC001FFF
FFFC001FFF
FFFC001FFF
FFFC001FFF
FFFC001FFF
FFFC001FFF
FFFC001FFF
FFFC001FFF
FFFC001FFF
FFFC001FFF
FFFC001FFF
FFFC001FFF
FFFC001FFF
FFFC001FFF
FFFC001FFF
FFFC001FFF
FFFC001FFF
FFFC001FFF
FFFC001FFF
FFFC001FFF
FFFC001FFF
FFFC001FFF
FFFC001FFF
FFFC001FFF
FFFC001FFF
FFFC001FFF
FFFC001FFF
FFFC001FFF
FFFC001FFF
FFFC001FFF
FFFC001FFF
FFFC001FFF
FFFC001FFF
FFFC001FFF
FFFC001FFF
FFFC001FFF
FFFC001FFF
7FFC003FFF
7FFE003FFF
7FFE007FFE
7FFF00FFFE
3FFFC3FFFE
3FFFFFFFFE
3FFFFFFFFC
1FFFFFFFFC
1FFFFFFFF8
0FFFFFFFF0
07FFFFFFF0
03FFFFFFE0
01FFFFFFC0
00FFFFFF00
003FFFFE00
001FFFF800
0003FFC000
ENDCHAR
STARTCHAR 0076
ENCODING 118
SWIDTH 506 0
DWIDTH 45 0
BBX 39 62 1 0
BITMAP
FFFC003FFE
FFFC003FFE
FFFC003FFE
FFFC003FFE
FFFC003FFE
FFFC003FFE
FFFC003FFE
FFFC003FFE
FFFC003FFE
FFFC003FFE
FFFC003FFE
FFFC003FFE
FFFC003FFE
FFFC003FFE
FFFC003FFE
FFFC003FFE
FFFC003FFE
FFFC003FFE
FFFC003FFE
FFFC003FFE
FFFC003FFE
FFFC003FFE
FFFC003FFE
FFFC003FFE
FFFC003FFE
FFFC003FFE
FFFC003FFE
FFFC003FFE
FFFC003FFE
FFFC003FFE
FFFC003FFE
FFFC003FFE
7FFC003FFE
7FFC003FFE
7FFC007FFE
7FFC007FFE
7FFC007FFE
7FFE007FFC
7FFE007FFC
7FFE007FFC
3FFE00FFFC
3FFF00FFFC
3FFF00FFF8
3FFF01FFF8
1FFF01FFF8
1FFF81FFF8
1FFF83FFF0
0FFFC3FFF0
0FFFC3FFE0
07FFE7FFE0
07FFE7FFE0
07FFEFFFC0
03FFFFFFC0
01FFFFFF80
01FFFFFF00
00FFFFFF00
00FFFFFE00
007FFFFC00
003FFFFC00
001FFFF800
001FFFF000
000FFFE000
ENDCHAR
STARTCHAR 0077
ENCODING 119
SWIDTH 787 0
DWIDTH 70 0
BBX 65 62 1 0
BITMAP
FFFC003FFE000FFF80
FFFC003FFE000FFF80
FFFC003FFE000FFF80
FFFC003FFE000FFF80
FFFC003FFE000FFF80
FFFC003FFE000FFF80
FFFC003FFE000FFF80
FFFC003FFE000FFF80
FFFC003FFE000FFF80
FFFC003FFE000FFF80
FFFC003FFE000FFF80
FFFC003FFE000FFF80
FFFC003FFE000FFF80
FFFC003FFE000FFF80
FFFC003FFE000FFF80
FFFC003FFE000FFF80
FFFC003FFE000FFF80
FFFC003FFE000FFF80
FFFC003FFE000FFF80
FFFC003FFE000FFF80
FFFC003FFE000FFF80
FFFC003FFE000FFF80
FFFC003FFE000FFF80
FFFC003FFE000FFF80
FFFC003FFE000FFF80
FFFC003FFE000FFF80
FFFC003FFE000FFF80
FFFC003FFE000FFF80
FFFC003FFE000FFF80
FFFC003FFE000FFF80
FFFC003FFF000FFF80
FFFC003FFF000FFF80
7FFC003FFF001FFF80
7FFC003FFF001FFF80
7FFC007FFF001FFF80
7FFC007FFF001FFF80
7FFC007FFF001FFF00
7FFE007FFF001FFF00
7FFE007FFF803FFF00
7FFE007FFF803FFF00
3FFE00FFFF803FFF00
3FFF00FFFF803FFE00
3FFF00FFFFC03FFE00
3FFF01FFFFC07FFE00
1FFF01FFFFC07FFE00
1FFF81FFFFE07FFC00
1FFF83FFFFE0FFFC00
0FFFC3FFFFE0FFFC00
0FFFC3FFFFF1FFF800
07FFE7FFFFF1FFF800
07FFE7FFFFFBFFF000
07FFEFFFFFFBFFF000
03FFFFFFFFFFFFE000
01FFFFFFFFFFFFE000
01FFFFFF7FFFFFC000
00FFFFFF3FFFFFC000
00FFFFFE3FFFFF8000
007FFFFC1FFFFF0000
003FFFFC0FFFFE0000
001FFFF80FFFFE0000
001FFFF007FFFC0000
000FFFE003FFF80000
ENDCHAR
STARTCHAR 0078
ENCODING 120
SWIDTH 551 0
DWIDTH 49 0
BBX 40 62 5 0
BITMAP
FFF8003FFF
FFF8003FFF
FFF8003FFF
FFF8003FFF
FFF8003FFF
FFF8003FFF
FFF8003FFF
FFF8003FFF
FFF8003FFF
FFF8003FFF
FFF8003FFF
FFF8003FFF
FFF8003FFF
FFF8003FFF
FFF8003FFF
FFF8003FFF
FFFC003FFE
FFFC007FFE
FFFE007FFE
7FFF00FFFE
7FFFC3FFFC
7FFFFFFFFC
3FFFFFFFF8
3FFFFFFFF8
1FFFFFFFF0
0FFFFFFFF0
0FFFFFFFE0
0FFFFFFFE0
0FFFFFFFF0
1FFFFFFFF0
3FFFFFFFF8
3FFFFFFFF8
7FFFFFFFFC
7FFFE7FFFC
7FFF00FFFE
FFFE007FFE
FFFC007FFE
FFFC003FFE
FFF8003FFF
FFF8003FFF
FFF8003FFF
FFF8003FFF
FFF8003FFF
FFF8003FFF
FFF8003FFF
FFF8003FFF
FFF8003FFF
FFF8003FFF
FFF8003FFF
FFF8003FFF
FFF8003FFF
FFF8003FFF
FFF8003FFF
FFF8003FFF
FFF8003FFF
FFF8003FFF
FFF8003FFF
FFF8003FFF
FFF8003FFF
FFF8003FFF
FFF8003FFF
FFF8003FFF
ENDCHAR
STARTCHAR 0079
ENCODING 121
SWIDTH 528 0
DWIDTH 47 0
BBX 40 62 4 0
BITMAP
FFF8001FFF
FFF8001FFF
FFF8001FFF
FFF8001FFF
FFF8001FFF
FFF8001FFF
FFF8001FFF
FFF8001FFF
FFF8001FFF
FFF8001FFF
FFF8001FFF
FFF8001FFF
FFF8001FFF
FFF8001FFF
FFF8001FFF
FFF8001FFF
FFF8001FFF
FFF8001FFF
FFF8001FFF
FFF8001FFF
FFF8001FFF
FFF8001FFF
FFF8001FFF
FFF8001FFF
FFF8001FFF
FFF8001FFF
FFF8001FFF
FFF8001FFF
FFF8003FFF
FFF8003FFF
FFFC003FFF
FFFC003FFE
FFFC007FFE
7FFE007FFE
7FFF01FFFE
7FFFEFFFFC
3FFFFFFFFC
3FFFFFFFFC
1FFFFFFFF8
1FFFFFFFF0
0FFFFFFFF0
07FFFFFFE0
03FFFFFFC0
01FFFFFF80
00FFFFFE00
007FFFFC00
000FFFF000
0007FFC000
0007FFC000
0007FFC000
0007FFC000
0007FFC000
0007FFC000
0007FFC000
0007FFC000
0007FFC000
0007FFC000
0007FFC000
0007FFC000
0007FFC000
0007FFC000
0007FFC000
ENDCHAR
STARTCHAR 007A
ENCODING 122
SWIDTH 540 0
DWIDTH 48 0
BBX 44 62 2 0
BITMAP
7FFFFFFFFFF0
7FFFFFFFFFF0
7FFFFFFFFFF0
7FFFFFFFFFF0
7FFFFFFFFFF0
7FFFFFFFFFF0
7FFFFFFFFFE0
7FFFFFFFFFE0
7FFFFFFFFFC0
7FFFFFFFFFC0
7FFFFFFFFF80
7FFFFFFFFF00
0000007FFF00
0000007FFE00
000000FFFE00
000000FFFC00
000001FFF800
000001FFF800
000003FFF000
000007FFF000
000007FFE000
00000FFFE000
00000FFFC000
00001FFF8000
00003FFF8000
00003FFF0000
00007FFF0000
00007FFE0000
0000FFFC0000
0001FFFC0000
0001FFF80000
0003FFF80000
0003FFF00000
0007FFF00000
000FFFE00000
000FFFC00000
001FFFC00000
001FFF800000
003FFF800000
007FFF000000
007FFE000000
00FFFE000000
00FFFC000000
01FFFC000000
01FFF8000000
03FFF0000000
07FFF0000000
07FFE0000000
0FFFE0000000
0FFFC0000000
1FFFFFFFFFC0
3FFFFFFFFFC0
3FFFFFFFFFC0
7FFFFFFFFFC0
7FFFFFFFFFC0
FFFFFFFFFFC0
FFFFFFFFFFC0
FFFFFFFFFFC0
FFFFFFFFFFC0
FFFFFFFFFFC0
FFFFFFFFFFC0
FFFFFFFFFFC0
ENDCHAR
STARTCHAR 007B
ENCODING 123
SWIDTH 348 0
DWIDTH 31 0
BBX 21 88 5 -14
BITMAP
0007F8
003FF8
007FF8
00FFF8
00FFF8
01FFF8
01FFF8
03FFF8
03FFF8
03FF00
03FE00
03FE00
03FE00
03FE00
03FE00
03FE00
03FE00
03FE00
03FE00
03FE00
03FE00
03FE00
03FE00
03FE00
03FE00
03FE00
03FE00
03FE00
03FE00
03FE00
03FE00
03FE00
03FE00
03FE00
07FE00
07FC00
07FC00
0FFC00
3FF800
FFF800
FFF000
FFF000
FFE000
FFC000
FFE000
FFE000
FFF000
FFF800
7FF800
1FFC00
0FFC00
07FC00
07FC00
07FE00
03FE00
03FE00
03FE00
03FE00
03FE00
03FE00
03FE00
03FE00
03FE00
03FE00
03FE00
03FE00
03FE00
03FE00
03FE00
03FE00
03FE00
03FE00
03FE00
03FE00
03FE00
03FE00
03FE00
03FE00
03FF00
03FFF8
01FFF8
01FFF8
01FFF8
00FFF8
007FF8
003FF8
001FF8
0003F8
ENDCHAR
STARTCHAR 007C
ENCODING 124
SWIDTH 180 0
DWIDTH 16 0
BBX 7 73 5 -10
BITMAP
FE
FE
FE
FE
FE
FE
FE
FE
FE
FE
FE
FE
FE
FE
FE
FE
FE
FE
FE
FE
FE
FE
FE
FE
FE
FE
FE
FE
FE
FE
FE
FE
FE
FE
FE
FE
FE
FE
FE
FE
FE
FE
FE
FE
FE
FE
FE
FE
FE
FE
FE
FE
FE
FE
FE
FE
FE
FE
FE
FE
FE
FE
FE
FE
FE
FE
FE
FE
FE
FE
FE
FE
FE
ENDCHAR
STARTCHAR 007D
ENCODING 125
SWIDTH 348 0
DWIDTH 31 0
BBX 21 88 5 -14
BITMAP
FF0000
FFE000
FFF000
FFF800
FFFC00
FFFC00
FFFC00
FFFE00
FFFE00
03FE00
03FE00
03FE00
03FE00
03FE00
03FE00
03FE00
03FE00
03FE00
03FE00
03FE00
03FE00
03FE00
03FE00
03FE00
03FE00
03FE00
03FE00
03FE00
03FE00
03FE00
03FE00
03FE00
03FE00
03FF00
01FF00
01FF00
01FF80
01FF80
00FFE0
00FFF8
007FF8
007FF8
003FF8
001FF8
003FF8
003FF8
007FF8
00FFF8
00FFF0
00FFC0
01FF80
01FF00
01FF00
01FF00
03FF00
03FE00
03FE00
03FE00
03FE00
03FE00
03FE00
03FE00
03FE00
03FE00
03FE00
03FE00
03FE00
03FE00
03FE00
03FE00
03FE00
03FE00
03FE00
03FE00
03FE00
03FE00
03FE00
03FE00
07FE00
FFFE00
FFFE00
FFFC00
FFFC00
FFF800
FFF800
FFF000
FFC000
FE0000
ENDCHAR
STARTCHAR 007E
ENCODING 126
SWIDTH 562 0
DWIDTH 50 0
BBX 40 12 5 23
BITMAP
3FFF000000
FFFFF80001
FFFFFFE01F
FFFFFFFFFF
FFFFFFFFFF
FFFFFFFFFF
FFFFFFFFFF
FFFFFFFFFF
FFFFFFFFFF
F81FFFFFFF
80007FFFFF
000001FFF8
ENDCHAR
STARTCHAR 00A1
ENCODING 161
SWIDTH 281 0
DWIDTH 25 0
BBX 15 64 5 -10
BITMAP
03C0
1FF0
3FF8
7FFC
7FFE
FFFE
FFFE
FFFE
FFFE
FFFE
FFFE
7FFE
3FFC
1FF8
0FF0
0000
0000
0000
0000
0000
0000
0000
0000
7FF8
7FF8
7FF8
7FF8
7FF8
7FF8
7FF8
7FF8
7FF8
7FF8
7FF8
7FF8
7FF8
7FF8
7FF8
7FF8
7FF8
7FF8
7FF8
7FF8
7FF8
7FF8
7FF8
7FF8
7FF8
7FF8
7FF8
7FF8
7FF8
7FF8
7FF8
7FF8
7FF8
7FF8
7FF8
7FF8
7FF8
7FF8
7FF8
7FF8
7FF8
ENDCHAR
STARTCHAR 00A2
ENCODING 162
SWIDTH 528 0
DWIDTH 47 0
BBX 37 55 5 4
BITMAP
0000FF8000
0000FF8000
0000FF8000
0000FF8000
0000FF8000
0000FF8000
0000FF8000
0001FFF000
000FFFFE00
003FFFFF80
007FFFFFC0
00FFFFFFE0
03FFFFFFF0
03FFFFFFF8
07FFFFFFF0
0FFFFFFFE0
1FFFFBFFC0
1FFF803F80
3FFE000F00
3FFC000600
7FF8000000
7FF0000000
7FF0000000
FFE0000000
FFE0000000
FFE0000000
FFC0000000
FFC0000000
FFC0000000
FFC0000000
FFE0000000
FFE0000000
7FE0000000
7FF0000000
7FF0000000
7FF8000000
3FFC000600
3FFE001F00
1FFF807F80
1FFFFFFFC0
0FFFFFFFE0
07FFFFFFF0
03FFFFFFF8
01FFFFFFF0
00FFFFFFE0
007FFFFFC0
001FFFFF00
0007FFFC00
0001FFF000
0000FF8000
0000FF8000
0000FF8000
0000FF8000
0000FF8000
0000FF8000
ENDCHAR
STARTCHAR 00A3
ENCODING 163
SWIDTH 573 0
DWIDTH 51 0
BBX 41 64 5 0
BITMAP
0000000B0000
000007FFFC00
00003FFFFF80
0000FFFFFF80
0003FFFFFF80
0007FFFFFF80
000FFFFFFF80
001FFFFFFF80
003FFFFFFF80
007FFFFFFF80
00FFFFFFFF80
00FFFFFFFF80
01FFFFFFFF80
01FFFFF87F80
03FFFF800380
03FFFE000080
03FFFC000000
03FFF8000000
07FFF0000000
07FFF0000000
07FFE0000000
07FFE0000000
07FFE0000000
07FFE0000000
03FFE0000000
03FFE0000000
03FFF0000000
03FFF0000000
03FFF0000000
FFFFFFFFE000
FFFFFFFFE000
FFFFFFFFE000
FFFFFFFFE000
FFFFFFFFE000
FFFFFFFFE000
FFFFFFFFE000
FFFFFFFFE000
FFFFFFFFE000
003FFE000000
003FFF000000
003FFF000000
003FFF000000
001FFF000000
001FFF000000
001FFF000000
003FFF000000
003FFF000000
007FFF000000
007FFE000000
01FFFE000000
07FFFC000000
FFFFFC000000
FFFFF8000000
FFFFFFFFFF80
FFFFFFFFFF80
FFFFFFFFFF80
FFFFFFFFFF80
FFFFFFFFFF80
FFFFFFFFFF80
FFFFFFFFFF80
FFFFFFFFFF80
FFFFFFFFFF80
FFFFFFFFFF80
FFFFFFFFFF80
ENDCHAR
STARTCHAR 00A4
ENCODING 164
SWIDTH 618 0
DWIDTH 55 0
BBX 45 45 5 6
BITMAP
020000000100
070000000380
0F80000007C0
1FC003000FE0
3FE0FFF81FF0
7FF3FFFF3FF8
FFFFFFFFFFF8
7FFFFFFFFFF0
3FFFFFFFFFE0
1FFFFFFFFFC0
0FFFFFFFFF80
07FFF8FFFF00
03FFC00FFE00
03FF0003FF00
07FE0001FF00
07FC0000FF80
0FF80000FF80
0FF800007FC0
0FF000007FC0
0FF000003FC0
1FF000003FC0
1FE000003FC0
1FE000003FC0
1FE000003FC0
1FF000003FC0
0FF000003FC0
0FF000007FC0
0FF800007FC0
0FF80000FF80
07FC0000FF80
07FE0001FF80
07FF0003FF00
03FF800FFF00
03FFF03FFF00
07FFFFFFFF80
0FFFFFFFFFC0
1FFFFFFFFFE0
3FFFFFFFFFF0
7FFFFFFFFFF8
7FF7FFFF7FF8
3FE0FFFC3FF0
1FC00FC01FE0
0F8000000FC0
070000000780
020000000300
ENDCHAR
STARTCHAR 00A5
ENCODING 165
SWIDTH 675 0
DWIDTH 60 0
BBX 50 62 5 0
BITMAP
FFFE00000FFFC0
7FFF00001FFFC0
7FFF00001FFFC0
3FFF80003FFF80
3FFF80003FFF80
1FFFC0007FFF00
1FFFC0007FFF00
0FFFE000FFFE00
0FFFE000FFFE00
07FFF001FFFC00
07FFF001FFFC00
03FFF801FFF800
03FFF803FFF800
01FFFC03FFF000
01FFFC07FFF000
00FFFE07FFE000
00FFFE0FFFE000
007FFF0FFFC000
007FFF1FFFC000
003FFF9FFF8000
003FFFBFFF8000
001FFFFFFF0000
001FFFFFFF0000
000FFFFFFE0000
000FFFFFFE0000
0007FFFFFC0000
0007FFFFFC0000
0003FFFFF80000
0003FFFFF80000
0001FFFFF00000
0001FFFFF00000
03FFFFFFFFF000
03FFFFFFFFF000
03FFFFFFFFF000
03FFFFFFFFF000
03FFFFFFFFF000
03FFFFFFFFF000
03FFFFFFFFF000
03FFFFFFFFF000
00001FFF000000
00001FFF000000
00001FFF000000
00001FFF000000
03FFFFFFFFF000
03FFFFFFFFF000
03FFFFFFFFF000
03FFFFFFFFF000
03FFFFFFFFF000
03FFFFFFFFF000
03FFFFFFFFF000
03FFFFFFFFF000
03FFFFFFFFF000
00001FFF000000
00001FFF000000
00001FFF000000
00001FFF000000
00001FFF000000
00001FFF000000
00001FFF000000
00001FFF000000
00001FFF000000
00001FFF000000
ENDCHAR
STARTCHAR 00A6
ENCODING 166
SWIDTH 180 0
DWIDTH 16 0
BBX 7 73 5 -10
BITMAP
FE
FE
FE
FE
FE
FE
FE
FE
FE
FE
FE
FE
FE
FE
FE
FE
FE
FE
FE
FE
FE
FE
FE
FE
FE
FE
FE
FE
00
00
00
00
00
00
00
00
00
00
00
00
00
00
00
00
00
FE
FE
FE
FE
FE
FE
FE
FE
FE
FE
FE
FE
FE
FE
FE
FE
FE
FE
FE
FE
FE
FE
FE
FE
FE
FE
FE
FE
ENDCHAR
STARTCHAR 00A7
ENCODING 167
SWIDTH 506 0
DWIDTH 45 0
BBX 34 75 6 -11
BITMAP
0001C00000
003FFE0000
00FFFF8000
01FFFFE000
07FFFFF000
0FFFFFF800
1FFFFFFC00
1FFFFFFE00
3FFFFFFE00
3FFFFFFF00
7FFFFFFF00
7FFFFFFF80
7FFE1FFF80
7FFC07FFC0
7FF807FF80
7FF803F800
7FF803C000
7FFC000000
3FFE000000
3FFF000000
1FFF800000
1FFFE00000
0FFFF80000
07FFFC0000
03FFFF0000
01FFFFC000
007FFFE000
03FFFFF000
07FFFFF800
1FFFFFFC00
3FFFFFFE00
3FFFFFFF00
7FFFFFFF00
7FF81FFF80
FFF007FF80
FFE007FF80
FFE003FF80
FFE003FF80
FFE003FF80
FFF003FF80
FFF807FF80
7FFC0FFF80
7FFFFFFF00
3FFFFFFE00
3FFFFFFE00
1FFFFFFC00
0FFFFFF800
07FFFFE000
03FFFF8000
00FFFFC000
007FFFE000
001FFFF000
0007FFF800
0001FFFC00
0000FFFC00
00007FFE00
00001FFE00
00001FFF00
00E00FFF00
0FE00FFF00
7FF00FFF00
FFF81FFF00
FFFC3FFF00
FFFFFFFF00
7FFFFFFF00
7FFFFFFE00
3FFFFFFE00
3FFFFFFE00
1FFFFFFC00
0FFFFFF800
07FFFFF000
03FFFFE000
00FFFF8000
003FFE0000
0002C00000
ENDCHAR
STARTCHAR 00A8
ENCODING 168
SWIDTH 416 0
DWIDTH 37 0
BBX 38 16 0 66
BITMAP
0080000400
0FF0003FC0
1FF8007FE0
3FFC00FFF0
7FFE01FFF8
7FFE01FFF8
7FFF01FFFC
FFFF03FFFC
FFFF03FFFC
7FFF03FFFC
7FFE01FFF8
7FFE01FFF8
3FFC00FFF0
1FFC007FF0
0FF0003FC0
03C0000F00
ENDCHAR
STARTCHAR 00A9
ENCODING 169
SWIDTH 855 0
DWIDTH 76 0
BBX 66 66 5 -2
BITMAP
00000007F800000000
000000FFFFE0000000
000007FFFFFC000000
00003FFFFFFF000000
0000FFFFFFFFC00000
0001FFFFFFFFF00000
0007FFF003FFF80000
000FFF00003FFC0000
001FFC000007FE0000
003FF0000001FF8000
007FC0000000FFC000
00FF800000003FE000
01FE000000001FE000
03FC000000000FF000
03F80000000007F800
07F00000000003F800
0FF0000FFE0001FC00
0FE0003FFF8001FE00
1FC000FFFFE000FE00
1FC003FFFFF0007F00
3F8007FFFFF8007F00
3F800FFFFFF8007F00
3F001FFFFFF0003F80
7F001FFFFFE0003F80
7F003FFC0FC0001F80
7E003FF00380001F80
7E007FE00100001FC0
FE007FC00000001FC0
FE007F800000000FC0
FE00FF800000000FC0
FC00FF800000000FC0
FC00FF800000000FC0
FC00FF800000000FC0
FC00FF800000000FC0
FC00FF800000000FC0
FC00FF800000000FC0
FE00FF800000000FC0
FE007FC00000000FC0
FE007FC00000001FC0
7E007FE00100001FC0
7E003FF00380001F80
7F003FFE1FC0001F80
7F001FFFFFE0003F80
3F000FFFFFF0003F80
3F8007FFFFF8007F00
3F8003FFFFF8007F00
1FC001FFFFF000FE00
1FC000FFFFC000FE00
0FE0003FFF8001FC00
0FF00007FC0003FC00
07F80000000003F800
03FC0000000007F800
03FE000000000FF000
01FF000000001FE000
00FF800000007FC000
007FC0000000FF8000
003FF0000003FF0000
001FFC00000FFE0000
000FFF80007FFC0000
0003FFFC07FFF80000
0001FFFFFFFFE00000
00007FFFFFFFC00000
00001FFFFFFF000000
000007FFFFF8000000
0000007FFFC0000000
000000004000000000
ENDCHAR
STARTCHAR 00AB
ENCODING 171
SWIDTH 641 0
DWIDTH 57 0
BBX 47 39 5 8
BITMAP
0001FFE01FFE
0003FFC03FFC
0007FF803FFC
0007FF007FF8
000FFF00FFF0
001FFE01FFE0
003FFC01FFE0
003FF803FFC0
007FF807FF80
00FFF00FFF00
01FFE00FFF00
01FFC01FFE00
03FFC03FFC00
07FF807FF800
0FFF007FF000
0FFE00FFF000
1FFE01FFE000
3FFC01FFC000
7FF803FF8000
7FF007FF8000
FFF807FF8000
7FF803FFC000
3FFC03FFE000
1FFE01FFE000
0FFF00FFF000
0FFF007FF800
07FF803FFC00
03FFC03FFC00
01FFE01FFE00
01FFF00FFF00
00FFF007FF80
007FF807FFC0
003FFC03FFC0
001FFE01FFE0
001FFE00FFF0
000FFF007FF8
0007FF807FF8
0003FFC03FFC
0003FFC01FFE
ENDCHAR
STARTCHAR 00AC
ENCODING 172
SWIDTH 585 0
DWIDTH 52 0
BBX 42 25 5 9
BITMAP
FFFFFFFFFFC0
FFFFFFFFFFC0
FFFFFFFFFFC0
FFFFFFFFFFC0
FFFFFFFFFFC0
FFFFFFFFFFC0
FFFFFFFFFFC0
FFFFFFFFFFC0
FFFFFFFFFFC0
FFFFFFFFFFC0
00000000FFC0
00000000FFC0
00000000FFC0
00000000FFC0
00000000FFC0
00000000FFC0
00000000FFC0
00000000FFC0
00000000FFC0
00000000FFC0
00000000FFC0
00000000FFC0
00000000FFC0
00000000FFC0
00000000FFC0
ENDCHAR
STARTCHAR 00AE
ENCODING 174
SWIDTH 517 0
DWIDTH 46 0
BBX 36 35 5 29
BITMAP
000FFF0000
003FFFE000
00FFFFF000
01FFFFFC00
03F801FE00
07E0003F00
0F80001F80
1F00000F80
3E000007C0
3E07FE03E0
7C07FF83E0
7807FF81E0
78078F81F0
F80787C0F0
F80787C0F0
F0078F80F0
F03FFF80F0
F03FFF00F0
F03FFF00F0
F03FFF00F0
F8078F80F0
F8078780F0
78078781F0
7C078781E0
7C078783E0
3E078783E0
3E000007C0
1F00000F80
0F80001F80
07E0007F00
03F801FE00
01FFFFFC00
00FFFFF000
003FFFE000
000FFF0000
ENDCHAR
STARTCHAR 00AF
ENCODING 175
SWIDTH 281 0
DWIDTH 25 0
BBX 25 9 0 69
BITMAP
FFFFFF80
FFFFFF80
FFFFFF80
FFFFFF80
FFFFFF80
FFFFFF80
FFFFFF80
FFFFFF80
FFFFFF80
ENDCHAR
STARTCHAR 00B0
ENCODING 176
SWIDTH 360 0
DWIDTH 32 0
BBX 22 22 5 42
BITMAP
003000
03FF00
0FFF80
1FFFE0
3FFFF0
3FFFF0
7F03F8
7C00F8
FC00FC
F8007C
F8007C
F8007C
F8007C
FC00FC
7C00F8
7E01F8
7F03F8
3FFFF0
1FFFE0
0FFFC0
07FF80
01FE00
ENDCHAR
STARTCHAR 00B1
ENCODING 177
SWIDTH 585 0
DWIDTH 52 0
BBX 42 40 5 8
BITMAP
0000FFC00000
0000FFC00000
0000FFC00000
0000FFC00000
0000FFC00000
0000FFC00000
0000FFC00000
0000FFC00000
0000FFC00000
FFFFFFFFFFC0
FFFFFFFFFFC0
FFFFFFFFFFC0
FFFFFFFFFFC0
FFFFFFFFFFC0
FFFFFFFFFFC0
FFFFFFFFFFC0
FFFFFFFFFFC0
FFFFFFFFFFC0
FFFFFFFFFFC0
0000FFC00000
0000FFC00000
0000FFC00000
0000FFC00000
0000FFC00000
0000FFC00000
0000FFC00000
0000FFC00000
0000FFC00000
000000000000
000000000000
000000000000
000000000000
FFFFFFFFFFC0
FFFFFFFFFFC0
FFFFFFFFFFC0
FFFFFFFFFFC0
FFFFFFFFFFC0
FFFFFFFFFFC0
FFFFFFFFFFC0
FFFFFFFFFFC0
ENDCHAR
STARTCHAR 00B4
ENCODING 180
SWIDTH 168 0
DWIDTH 15 0
BBX 14 11 0 69
BITMAP
07FC
0FFC
0FF8
0FF0
1FF0
1FE0
3FE0
3FC0
7F80
7F80
FF00
ENDCHAR
STARTCHAR 00B6
ENCODING 182
SWIDTH 540 0
DWIDTH 48 0
BBX 38 73 5 -10
BITMAP
0001FF81FC
001FFF81FC
007FFF81FC
00FFFF81FC
03FFFF81FC
07FFFF81FC
0FFFFF81FC
0FFFFF81FC
1FFFFF81FC
3FFFFF81FC
3FFFFF81FC
7FFFFF81FC
7FFFFF81FC
7FFFFF81FC
FFFFFF81FC
FFFFFF81FC
FFFFFF81FC
FFFFFF81FC
FFFFFF81FC
FFFFFF81FC
FFFFFF81FC
FFFFFF81FC
7FFFFF81FC
7FFFFF81FC
7FFFFF81FC
3FFFFF81FC
3FFFFF81FC
1FFFFF81FC
1FFFFF81FC
0FFFFF81FC
07FFFF81FC
03FFFF81FC
01FFFF81FC
00FFFF81FC
003FFF81FC
0007FF81FC
00007F81FC
00003F81FC
00003F81FC
00003F81FC
00003F81FC
00003F81FC
00003F81FC
00003F81FC
00003F81FC
00003F81FC
00003F81FC
00003F81FC
00003F81FC
00003F81FC
00003F81FC
00003F81FC
00003F81FC
00003F81FC
00003F81FC
00003F81FC
00003F81FC
00003F81FC
00003F81FC
00003F81FC
00003F81FC
00003F81FC
00003F81FC
00003F81FC
00003F81FC
00003F81FC
00003F81FC
00003F81FC
00003F81FC
00003F81FC
00003F81FC
00003F81FC
00003F81FC
ENDCHAR
STARTCHAR 00B7
ENCODING 183
SWIDTH 281 0
DWIDTH 25 0
BBX 15 16 5 16
BITMAP
03C0
1FF0
3FF8
7FFC
7FFE
FFFE
FFFE
FFFE
FFFE
FFFE
FFFE
7FFE
3FFC
3FF8
0FF0
0100
ENDCHAR
STARTCHAR 00B8
ENCODING 184
SWIDTH 225 0
DWIDTH 20 0
BBX 21 20 0 -20
BITMAP
001F80
003F00
003F00
007E00
007F80
007FC0
007FE0
0007F0
0003F0
0003F8
0C03F8
1E03F8
3F07F8
7FFFF0
FFFFF0
7FFFF0
3FFFE0
1FFFC0
07FF80
00FC00
ENDCHAR
STARTCHAR 00BB
ENCODING 187
SWIDTH 641 0
DWIDTH 57 0
BBX 47 39 5 8
BITMAP
FFF807FF8000
7FF807FFC000
3FFC03FFC000
3FFE01FFE000
1FFF00FFF000
0FFF00FFF800
07FF807FF800
03FFC03FFC00
03FFC01FFE00
01FFE01FFF00
00FFF00FFF00
007FF807FF80
007FF803FFC0
003FFC01FFE0
001FFE01FFE0
000FFF00FFF0
000FFF007FF8
0007FF803FFC
0003FFC03FFC
0001FFE01FFE
0001FFE01FFE
0003FFC03FFC
0007FF803FFC
000FFF007FF8
000FFF00FFF0
001FFE01FFE0
003FFC01FFC0
007FF803FFC0
007FF007FF80
00FFF00FFF00
01FFE00FFE00
03FFC01FFC00
03FF803FFC00
07FF007FF800
0FFF007FF000
1FFE00FFE000
1FFC01FFE000
3FF803FFC000
7FF807FF8000
ENDCHAR
STARTCHAR 00BF
ENCODING 191
SWIDTH 461 0
DWIDTH 41 0
BBX 31 65 5 -10
BITMAP
0000E000
0007F800
000FFE00
001FFF00
001FFF00
003FFF80
003FFF80
003FFF80
003FFF80
003FFF80
003FFF80
001FFF00
001FFF00
000FFE00
0007FC00
0000E000
00000000
00000000
00000000
00000000
00000000
00000000
00000000
001FFE00
001FFE00
001FFE00
001FFE00
001FFE00
001FFE00
001FFC00
003FFC00
003FFC00
003FFC00
007FF800
007FF800
00FFF000
00FFF000
01FFE000
03FFE000
07FFC000
07FFC000
0FFF8000
1FFF0000
1FFE0000
3FFE0000
3FFC0000
7FF80000
7FF80000
FFF00000
FFF00000
FFF00700
FFF00FE0
FFF80FF8
FFF81FFE
FFFFFFFE
7FFFFFFC
7FFFFFFC
7FFFFFF8
3FFFFFF8
3FFFFFF0
1FFFFFE0
0FFFFFC0
03FFFF80
01FFFE00
003FF000
ENDCHAR
STARTCHAR 00C0
ENCODING 192
SWIDTH 573 0
DWIDTH 51 0
BBX 46 80 4 0
BITMAP
003FE0000000
003FF0000000
001FF0000000
000FF8000000
000FF8000000
0007FC000000
0003FC000000
0003FC000000
0001FE000000
0000FE000000
0000FF000000
000000000000
000000000000
000000000000
000000000000
000000000000
000008000000
0003FFE00000
001FFFFC0000
007FFFFE0000
00FFFFFF8000
01FFFFFFC000
03FFFFFFE000
07FFFFFFF000
0FFFFFFFF800
0FFFFFFFF800
1FFFFFFFFC00
1FFFFFFFFC00
3FFFFFFFFE00
3FFFC1FFFE00
7FFF007FFF00
7FFE003FFF00
7FFE003FFF00
7FFC001FFF00
7FFC001FFF00
7FFC001FFF80
FFFC001FFF80
FFFC001FFF80
FFFC001FFF80
FFFC001FFF80
FFFC001FFF80
FFFC001FFF80
FFFC001FFF80
FFFC001FFF80
FFFC001FFF80
FFFC001FFF80
FFFC001FFF80
FFFC001FFF80
FFFC001FFF80
FFFC001FFF80
FFFC001FFF80
FFFC001FFF80
FFFC001FFF80
FFFC001FFF80
FFFC001FFF80
FFFC001FFF80
FFFC001FFF80
FFFC001FFF80
FFFC001FFF80
FFFC001FFF80
FFFC001FFF80
FFFC001FFF80
FFFC001FFF80
FFFC001FFF80
FFFC001FFF80
FFFC001FFF80
FFFC001FFF80
FFFC001FFF80
FFFFFFFFFFFC
FFFFFFFFFFFC
FFFFFFFFFFFC
FFFFFFFFFFFC
FFFFFFFFFFFC
FFFFFFFFFFFC
FFFFFFFFFFFC
FFFFFFFFFFFC
FFFFFFFFFFFC
FFFFFFFFFFFC
FFFFFFFFFFFC
FFFFFFFFFFFC
ENDCHAR
STARTCHAR 00C1
ENCODING 193
SWIDTH 573 0
DWIDTH 51 0
BBX 46 80 4 0
BITMAP
000003FE0000
000007FE0000
000007FC0000
00000FF80000
00000FF80000
00000FF00000
00001FE00000
00001FE00000
00003FC00000
00003F800000
00007F800000
000000000000
000000000000
000000000000
000000000000
000000000000
000008000000
0003FFE00000
001FFFFC0000
007FFFFE0000
00FFFFFF8000
01FFFFFFC000
03FFFFFFE000
07FFFFFFF000
0FFFFFFFF800
0FFFFFFFF800
1FFFFFFFFC00
1FFFFFFFFC00
3FFFFFFFFE00
3FFFC1FFFE00
7FFF007FFF00
7FFE003FFF00
7FFE003FFF00
7FFC001FFF00
7FFC001FFF00
7FFC001FFF80
FFFC001FFF80
FFFC001FFF80
FFFC001FFF80
FFFC001FFF80
FFFC001FFF80
FFFC001FFF80
FFFC001FFF80
FFFC001FFF80
FFFC001FFF80
FFFC001FFF80
FFFC001FFF80
FFFC001FFF80
FFFC001FFF80
FFFC001FFF80
FFFC001FFF80
FFFC001FFF80
FFFC001FFF80
FFFC001FFF80
FFFC001FFF80
FFFC001FFF80
FFFC001FFF80
FFFC001FFF80
FFFC001FFF80
FFFC001FFF80
FFFC001FFF80
FFFC001FFF80
FFFC001FFF80
FFFC001FFF80
FFFC001FFF80
FFFC001FFF80
FFFC001FFF80
FFFC001FFF80
FFFFFFFFFFFC
FFFFFFFFFFFC
FFFFFFFFFFFC
FFFFFFFFFFFC
FFFFFFFFFFFC
FFFFFFFFFFFC
FFFFFFFFFFFC
FFFFFFFFFFFC
FFFFFFFFFFFC
FFFFFFFFFFFC
FFFFFFFFFFFC
FFFFFFFFFFFC
ENDCHAR
STARTCHAR 00C2
ENCODING 194
SWIDTH 573 0
DWIDTH 51 0
BBX 46 81 4 0
BITMAP
000008000000
00001C000000
00003E000000
00007F000000
0000FF800000
0000FFC00000
0001FFC00000
0003FFE00000
0007FFF00000
000FFFF80000
001FFFFC0000
003FFFFE0000
007FFFFF0000
000000000000
000000000000
000000000000
000000000000
000008000000
0003FFE00000
001FFFFC0000
007FFFFE0000
00FFFFFF8000
01FFFFFFC000
03FFFFFFE000
07FFFFFFF000
0FFFFFFFF800
0FFFFFFFF800
1FFFFFFFFC00
1FFFFFFFFC00
3FFFFFFFFE00
3FFFC1FFFE00
7FFF007FFF00
7FFE003FFF00
7FFE003FFF00
7FFC001FFF00
7FFC001FFF00
7FFC001FFF80
FFFC001FFF80
FFFC001FFF80
FFFC001FFF80
FFFC001FFF80
FFFC001FFF80
FFFC001FFF80
FFFC001FFF80
FFFC001FFF80
FFFC001FFF80
FFFC001FFF80
FFFC001FFF80
FFFC001FFF80
FFFC001FFF80
FFFC001FFF80
FFFC001FFF80
FFFC001FFF80
FFFC001FFF80
FFFC001FFF80
FFFC001FFF80
FFFC001FFF80
FFFC001FFF80
FFFC001FFF80
FFFC001FFF80
FFFC001FFF80
FFFC001FFF80
FFFC001FFF80
FFFC001FFF80
FFFC001FFF80
FFFC001FFF80
FFFC001FFF80
FFFC001FFF80
FFFC001FFF80
FFFFFFFFFFFC
FFFFFFFFFFFC
FFFFFFFFFFFC
FFFFFFFFFFFC
FFFFFFFFFFFC
FFFFFFFFFFFC
FFFFFFFFFFFC
FFFFFFFFFFFC
FFFFFFFFFFFC
FFFFFFFFFFFC
FFFFFFFFFFFC
FFFFFFFFFFFC
ENDCHAR
STARTCHAR 00C3
ENCODING 195
SWIDTH 573 0
DWIDTH 51 0
BBX 46 80 4 0
BITMAP
000F80000000
007FF0040000
007FFFFC0000
007FFFFC0000
007FFFFC0000
007FFFFC0000
007FFFFC0000
007FFFFC0000
00707FFC0000
00000FF00000
000000000000
000000000000
000000000000
000000000000
000000000000
000000000000
000008000000
0003FFE00000
001FFFFC0000
007FFFFE0000
00FFFFFF8000
01FFFFFFC000
03FFFFFFE000
07FFFFFFF000
0FFFFFFFF800
0FFFFFFFF800
1FFFFFFFFC00
1FFFFFFFFC00
3FFFFFFFFE00
3FFFC1FFFE00
7FFF007FFF00
7FFE003FFF00
7FFE003FFF00
7FFC001FFF00
7FFC001FFF00
7FFC001FFF80
FFFC001FFF80
FFFC001FFF80
FFFC001FFF80
FFFC001FFF80
FFFC001FFF80
FFFC001FFF80
FFFC001FFF80
FFFC001FFF80
FFFC001FFF80
FFFC001FFF80
FFFC001FFF80
FFFC001FFF80
FFFC001FFF80
FFFC001FFF80
FFFC001FFF80
FFFC001FFF80
FFFC001FFF80
FFFC001FFF80
FFFC001FFF80
FFFC001FFF80
FFFC001FFF80
FFFC001FFF80
FFFC001FFF80
FFFC001FFF80
FFFC001FFF80
FFFC001FFF80
FFFC001FFF80
FFFC001FFF80
FFFC001FFF80
FFFC001FFF80
FFFC001FFF80
FFFC001FFF80
FFFFFFFFFFFC
FFFFFFFFFFFC
FFFFFFFFFFFC
FFFFFFFFFFFC
FFFFFFFFFFFC
FFFFFFFFFFFC
FFFFFFFFFFFC
FFFFFFFFFFFC
FFFFFFFFFFFC
FFFFFFFFFFFC
FFFFFFFFFFFC
FFFFFFFFFFFC
ENDCHAR
STARTCHAR 00C4
ENCODING 196
SWIDTH 573 0
DWIDTH 51 0
BBX 46 82 4 0
BITMAP
002000010000
03FC000FF000
07FE001FF800
0FFF003FFC00
1FFF807FFE00
1FFF807FFE00
1FFFC07FFF00
3FFFC0FFFF00
3FFFC0FFFF00
3FFFC0FFFF00
1FFF807FFE00
1FFF807FFE00
0FFF003FFC00
07FF001FFC00
03FC000FF000
00F00003C000
000000000000
000000000000
000008000000
0003FFE00000
001FFFFC0000
007FFFFE0000
00FFFFFF8000
01FFFFFFC000
03FFFFFFE000
07FFFFFFF000
0FFFFFFFF800
0FFFFFFFF800
1FFFFFFFFC00
1FFFFFFFFC00
3FFFFFFFFE00
3FFFC1FFFE00
7FFF007FFF00
7FFE003FFF00
7FFE003FFF00
7FFC001FFF00
7FFC001FFF00
7FFC001FFF80
FFFC001FFF80
FFFC001FFF80
FFFC001FFF80
FFFC001FFF80
FFFC001FFF80
FFFC001FFF80
FFFC001FFF80
FFFC001FFF80
FFFC001FFF80
FFFC001FFF80
FFFC001FFF80
FFFC001FFF80
FFFC001FFF80
FFFC001FFF80
FFFC001FFF80
FFFC001FFF80
FFFC001FFF80
FFFC001FFF80
FFFC001FFF80
FFFC001FFF80
FFFC001FFF80
FFFC001FFF80
FFFC001FFF80
FFFC001FFF80
FFFC001FFF80
FFFC001FFF80
FFFC001FFF80
FFFC001FFF80
FFFC001FFF80
FFFC001FFF80
FFFC001FFF80
FFFC001FFF80
FFFFFFFFFFFC
FFFFFFFFFFFC
FFFFFFFFFFFC
FFFFFFFFFFFC
FFFFFFFFFFFC
FFFFFFFFFFFC
FFFFFFFFFFFC
FFFFFFFFFFFC
FFFFFFFFFFFC
FFFFFFFFFFFC
FFFFFFFFFFFC
FFFFFFFFFFFC
ENDCHAR
STARTCHAR 00C5
ENCODING 197
SWIDTH 573 0
DWIDTH 51 0
BBX 46 86 4 0
BITMAP
00001C000000
0000FF800000
0001FFE00000
0007FFE00000
0007FFF00000
000FFFF80000
000FE3F80000
001F81FC0000
001F80FC0000
001F80FC0000
001F80FC0000
001F80FC0000
000FC1F80000
000FFFF80000
0007FFF00000
0007FFF00000
0003FFE00000
0000FFC00000
00003E000000
000000000000
000000000000
000000000000
000008000000
0003FFE00000
001FFFFC0000
007FFFFE0000
00FFFFFF8000
01FFFFFFC000
03FFFFFFE000
07FFFFFFF000
0FFFFFFFF800
0FFFFFFFF800
1FFFFFFFFC00
1FFFFFFFFC00
3FFFFFFFFE00
3FFFC1FFFE00
7FFF007FFF00
7FFE003FFF00
7FFE003FFF00
7FFC001FFF00
7FFC001FFF00
7FFC001FFF80
FFFC001FFF80
FFFC001FFF80
FFFC001FFF80
FFFC001FFF80
FFFC001FFF80
FFFC001FFF80
FFFC001FFF80
FFFC001FFF80
FFFC001FFF80
FFFC001FFF80
FFFC001FFF80
FFFC001FFF80
FFFC001FFF80
FFFC001FFF80
FFFC001FFF80
FFFC001FFF80
FFFC001FFF80
FFFC001FFF80
FFFC001FFF80
FFFC001FFF80
FFFC001FFF80
FFFC001FFF80
FFFC001FFF80
FFFC001FFF80
FFFC001FFF80
FFFC001FFF80
FFFC001FFF80
FFFC001FFF80
FFFC001FFF80
FFFC001FFF80
FFFC001FFF80
FFFC001FFF80
FFFFFFFFFFFC
FFFFFFFFFFFC
FFFFFFFFFFFC
FFFFFFFFFFFC
FFFFFFFFFFFC
FFFFFFFFFFFC
FFFFFFFFFFFC
FFFFFFFFFFFC
FFFFFFFFFFFC
FFFFFFFFFFFC
FFFFFFFFFFFC
FFFFFFFFFFFC
ENDCHAR
STARTCHAR 00C7
ENCODING 199
SWIDTH 686 0
DWIDTH 61 0
BBX 57 84 3 -20
BITMAP
00000001F0000000
0000007FFFC00000
000007FFFFF80000
00001FFFFFFF0000
00007FFFFFFFC000
0001FFFFFFFFE000
0003FFFFFFFFF800
000FFFFFFFFFFC00
001FFFFFFFFFFE00
003FFFFFFFFFFF00
007FFFFFFFFFFF80
00FFFFFFFFFFFF00
01FFFFFFFFFFFE00
03FFFFF803FFFC00
03FFFFC0007FF800
07FFFF00001FF000
07FFFC000007E000
0FFFF8000003C000
1FFFF00000018000
1FFFE00000000000
1FFFC00000000000
3FFF800000000000
3FFF000000000000
3FFF000000000000
7FFE000000000000
7FFE000000000000
7FFE000000000000
7FFC000000000000
7FFC000000000000
FFFC000000000000
FFFC000000000000
FFFC000000000000
FFFC000000000000
FFFC000000000000
FFFC000000000000
FFFC000000000000
FFFC000000000000
7FFC000000000000
7FFC000000000000
7FFE000000000000
7FFE000000000000
7FFE000000000000
3FFF000000000000
3FFF000000000000
3FFF800000000000
1FFFC00000000000
1FFFE00000000000
0FFFF00000018000
0FFFF8000007C000
07FFFC00000FE000
07FFFF00001FF000
03FFFFC0007FF800
01FFFFFC07FFFC00
00FFFFFFFFFFFE00
00FFFFFFFFFFFF00
007FFFFFFFFFFF80
003FFFFFFFFFFF00
000FFFFFFFFFFE00
0007FFFFFFFFFC00
0003FFFFFFFFF000
0000FFFFFFFFE000
00003FFFFFFF8000
00000FFFFFFE0000
000003FFFFF80000
0000003FFF800000
0000000FE0000000
0000000FC0000000
0000000FC0000000
0000000FE0000000
0000000FF8000000
0000000FF8000000
00000001FC000000
00000000FE000000
00000000FE000000
00000300FE000000
00000780FE000000
00000FE1FE000000
00001FFFFE000000
00003FFFFC000000
00001FFFFC000000
00000FFFF8000000
000003FFF0000000
000001FFE0000000
0000003F00000000
ENDCHAR
STARTCHAR 00C8
ENCODING 200
SWIDTH 517 0
DWIDTH 46 0
BBX 44 80 2 0
BITMAP
00FFC0000000
007FC0000000
003FE0000000
003FE0000000
001FF0000000
000FF0000000
000FF8000000
0007F8000000
0003FC000000
0003FC000000
0001FC000000
000000000000
000000000000
000000000000
000000000000
000000000000
000000000000
000000000000
03FFFFFF8000
03FFFFFF8000
03FFFFFF8000
03FFFFFF8000
03FFFFFF8000
03FFFFFF8000
03FFFFFF8000
03FFFFFF8000
03FFFFFF8000
03FFFFFF8000
03FFFFFF8000
03FFFFFF8000
03FFE0000000
03FFE0000000
03FFE0000000
03FFE0000000
03FFE0000000
03FFE0000000
03FFE0000000
03FFE0000000
03FFE0000000
03FFE0000000
03FFE0000000
03FFE0000000
03FFE0000000
FFFFFFFFF000
FFFFFFFFF000
FFFFFFFFF000
FFFFFFFFF000
FFFFFFFFF000
FFFFFFFFF000
FFFFFFFFF000
FFFFFFFFF000
FFFFFFFFF000
FFFFFFFFF000
FFFFFFFFF000
FFFFFFFFF000
03FFE0000000
03FFE0000000
03FFE0000000
03FFE0000000
03FFE0000000
03FFE0000000
03FFE0000000
03FFE0000000
03FFE0000000
03FFE0000000
03FFE0000000
03FFE0000000
03FFE0000000
03FFFFFFFFF0
03FFFFFFFFF0
03FFFFFFFFF0
03FFFFFFFFF0
03FFFFFFFFF0
03FFFFFFFFF0
03FFFFFFFFF0
03FFFFFFFFF0
03FFFFFFFFF0
03FFFFFFFFF0
03FFFFFFFFF0
03FFFFFFFFF0
ENDCHAR
STARTCHAR 00C9
ENCODING 201
SWIDTH 517 0
DWIDTH 46 0
BBX 44 80 2 0
BITMAP
00000FFC0000
00000FF80000
00000FF80000
00001FF00000
00001FE00000
00003FE00000
00003FC00000
00007F800000
00007F800000
0000FF000000
0000FF000000
000000000000
000000000000
000000000000
000000000000
000000000000
000000000000
000000000000
03FFFFFF8000
03FFFFFF8000
03FFFFFF8000
03FFFFFF8000
03FFFFFF8000
03FFFFFF8000
03FFFFFF8000
03FFFFFF8000
03FFFFFF8000
03FFFFFF8000
03FFFFFF8000
03FFFFFF8000
03FFE0000000
03FFE0000000
03FFE0000000
03FFE0000000
03FFE0000000
03FFE0000000
03FFE0000000
03FFE0000000
03FFE0000000
03FFE0000000
03FFE0000000
03FFE0000000
03FFE0000000
FFFFFFFFF000
FFFFFFFFF000
FFFFFFFFF000
FFFFFFFFF000
FFFFFFFFF000
FFFFFFFFF000
FFFFFFFFF000
FFFFFFFFF000
FFFFFFFFF000
FFFFFFFFF000
FFFFFFFFF000
FFFFFFFFF000
03FFE0000000
03FFE0000000
03FFE0000000
03FFE0000000
03FFE0000000
03FFE0000000
03FFE0000000
03FFE0000000
03FFE0000000
03FFE0000000
03FFE0000000
03FFE0000000
03FFE0000000
03FFFFFFFFF0
03FFFFFFFFF0
03FFFFFFFFF0
03FFFFFFFFF0
03FFFFFFFFF0
03FFFFFFFFF0
03FFFFFFFFF0
03FFFFFFFFF0
03FFFFFFFFF0
03FFFFFFFFF0
03FFFFFFFFF0
03FFFFFFFFF0
ENDCHAR
STARTCHAR 00CA
ENCODING 202
SWIDTH 517 0
DWIDTH 46 0
BBX 44 81 2 0
BITMAP
000010000000
000038000000
00007C000000
0000FE000000
0001FE000000
0003FF000000
0007FF800000
0007FFC00000
000FFFE00000
001FFFF00000
003FFFF80000
007FFFF80000
00FFFFFC0000
000000000000
000000000000
000000000000
000000000000
000000000000
000000000000
03FFFFFF8000
03FFFFFF8000
03FFFFFF8000
03FFFFFF8000
03FFFFFF8000
03FFFFFF8000
03FFFFFF8000
03FFFFFF8000
03FFFFFF8000
03FFFFFF8000
03FFFFFF8000
03FFFFFF8000
03FFE0000000
03FFE0000000
03FFE0000000
03FFE0000000
03FFE0000000
03FFE0000000
03FFE0000000
03FFE0000000
03FFE0000000
03FFE0000000
03FFE0000000
03FFE0000000
03FFE0000000
FFFFFFFFF000
FFFFFFFFF000
FFFFFFFFF000
FFFFFFFFF000
FFFFFFFFF000
FFFFFFFFF000
FFFFFFFFF000
FFFFFFFFF000
FFFFFFFFF000
FFFFFFFFF000
FFFFFFFFF000
FFFFFFFFF000
03FFE0000000
03FFE0000000
03FFE0000000
03FFE0000000
03FFE0000000
03FFE0000000
03FFE0000000
03FFE0000000
03FFE0000000
03FFE0000000
03FFE0000000
03FFE0000000
03FFE0000000
03FFFFFFFFF0
03FFFFFFFFF0
03FFFFFFFFF0
03FFFFFFFFF0
03FFFFFFFFF0
03FFFFFFFFF0
03FFFFFFFFF0
03FFFFFFFFF0
03FFFFFFFFF0
03FFFFFFFFF0
03FFFFFFFFF0
03FFFFFFFFF0
ENDCHAR
STARTCHAR 00CB
ENCODING 203
SWIDTH 517 0
DWIDTH 46 0
BBX 44 81 2 1
BITMAP
07F8001FE000
0FFC007FF000
1FFE007FF800
3FFF00FFFC00
3FFF01FFFC00
7FFF01FFFC00
7FFF01FFFC00
7FFF01FFFC00
7FFF01FFFC00
7FFF01FFFC00
3FFF00FFFC00
3FFE00FFF800
1FFC007FF000
0FF8003FE000
01E000078000
000000000000
000000000000
000000000000
000000000000
03FFFFFF8000
03FFFFFF8000
03FFFFFF8000
03FFFFFF8000
03FFFFFF8000
03FFFFFF8000
03FFFFFF8000
03FFFFFF8000
03FFFFFF8000
03FFFFFF8000
03FFFFFF8000
03FFFFFF8000
03FFE0000000
03FFE0000000
03FFE0000000
03FFE0000000
03FFE0000000
03FFE0000000
03FFE0000000
03FFE0000000
03FFE0000000
03FFE0000000
03FFE0000000
03FFE0000000
03FFE0000000
FFFFFFFFF000
FFFFFFFFF000
FFFFFFFFF000
FFFFFFFFF000
FFFFFFFFF000
FFFFFFFFF000
FFFFFFFFF000
FFFFFFFFF000
FFFFFFFFF000
FFFFFFFFF000
FFFFFFFFF000
FFFFFFFFF000
03FFE0000000
03FFE0000000
03FFE0000000
03FFE0000000
03FFE0000000
03FFE0000000
03FFE0000000
03FFE0000000
03FFE0000000
03FFE0000000
03FFE0000000
03FFE0000000
03FFE0000000
03FFFFFFFFF0
03FFFFFFFFF0
03FFFFFFFFF0
03FFFFFFFFF0
03FFFFFFFFF0
03FFFFFFFFF0
03FFFFFFFFF0
03FFFFFFFFF0
03FFFFFFFFF0
03FFFFFFFFF0
03FFFFFFFFF0
03FFFFFFFFF0
ENDCHAR
STARTCHAR 00CC
ENCODING 204
SWIDTH 258 0
DWIDTH 23 0
BBX 17 56 1 0
BITMAP
FF8000
7FC000
7FC000
3FE000
3FE000
1FF000
0FF000
0FF800
07F800
03F800
03FC00
000000
000000
000000
000000
000000
000000
000000
0FFF80
0FFF80
0FFF80
0FFF80
0FFF80
0FFF80
0FFF80
0FFF80
0FFF80
0FFF80
0FFF80
0FFF80
0FFF80
0FFF80
0FFF80
0FFF80
0FFF80
0FFF80
0FFF80
0FFF80
0FFF80
0FFF80
0FFF80
0FFF80
0FFF80
0FFF80
0FFF80
0FFF80
0FFF80
0FFF80
0FFF80
0FFF80
0FFF80
0FFF80
0FFF80
0FFF80
0FFF80
0FFF80
ENDCHAR
STARTCHAR 00CD
ENCODING 205
SWIDTH 258 0
DWIDTH 23 0
BBX 18 56 5 0
BITMAP
00FFC0
00FF80
01FF00
01FF00
03FE00
03FC00
07FC00
07F800
0FF000
0FF000
0FE000
000000
000000
000000
000000
000000
000000
000000
FFF800
FFF800
FFF800
FFF800
FFF800
FFF800
FFF800
FFF800
FFF800
FFF800
FFF800
FFF800
FFF800
FFF800
FFF800
FFF800
FFF800
FFF800
FFF800
FFF800
FFF800
FFF800
FFF800
FFF800
FFF800
FFF800
FFF800
FFF800
FFF800
FFF800
FFF800
FFF800
FFF800
FFF800
FFF800
FFF800
FFF800
FFF800
ENDCHAR
STARTCHAR 00CE
ENCODING 206
SWIDTH 258 0
DWIDTH 23 0
BBX 22 57 1 0
BITMAP
002000
007000
00F800
01FC00
01FE00
03FF00
07FF80
0FFF80
1FFFC0
3FFFE0
7FFFF0
7FFFF8
FFFFFC
000000
000000
000000
000000
000000
000000
0FFF80
0FFF80
0FFF80
0FFF80
0FFF80
0FFF80
0FFF80
0FFF80
0FFF80
0FFF80
0FFF80
0FFF80
0FFF80
0FFF80
0FFF80
0FFF80
0FFF80
0FFF80
0FFF80
0FFF80
0FFF80
0FFF80
0FFF80
0FFF80
0FFF80
0FFF80
0FFF80
0FFF80
0FFF80
0FFF80
0FFF80
0FFF80
0FFF80
0FFF80
0FFF80
0FFF80
0FFF80
0FFF80
ENDCHAR
STARTCHAR 00CF
ENCODING 207
SWIDTH 258 0
DWIDTH 23 0
BBX 37 58 -6 0
BITMAP
0100000400
1FE0007F80
3FF000FFC0
7FF801FFE0
FFFC03FFF0
FFFC03FFF0
FFFE03FFF8
FFFE07FFF8
FFFE07FFF8
FFFE03FFF8
FFFE03FFF0
FFFC03FFF0
7FFC01FFE0
3FF800FFE0
1FF0007F80
0780001E00
0000000000
0000000000
0000000000
0000000000
001FFF0000
001FFF0000
001FFF0000
001FFF0000
001FFF0000
001FFF0000
001FFF0000
001FFF0000
001FFF0000
001FFF0000
001FFF0000
001FFF0000
001FFF0000
001FFF0000
001FFF0000
001FFF0000
001FFF0000
001FFF0000
001FFF0000
001FFF0000
001FFF0000
001FFF0000
001FFF0000
001FFF0000
001FFF0000
001FFF0000
001FFF0000
001FFF0000
001FFF0000
001FFF0000
001FFF0000
001FFF0000
001FFF0000
001FFF0000
001FFF0000
001FFF0000
001FFF0000
001FFF0000
ENDCHAR
STARTCHAR 00D1
ENCODING 209
SWIDTH 585 0
DWIDTH 52 0
BBX 45 80 2 0
BITMAP
0001F0000000
000FFF008000
000FFFFF8000
000FFFFF8000
000FFFFF8000
000FFFFF8000
000FFFFF8000
000FFFFF8000
000E0FFF8000
000000FF0000
000000000000
000000000000
000000000000
000000000000
000000000000
000000000000
010000000000
03C000000000
03E00000FFF8
07F00000FFF8
0FF80000FFF8
1FFE0000FFF8
1FFF0000FFF8
3FFF8000FFF8
7FFFC000FFF8
FFFFF000FFF8
FFFFF800FFF8
7FFFFC00FFF8
3FFFFF00FFF8
1FFFFF80FFF8
07FFFFC0FFF8
07FFFFE0FFF8
07FFFFF8FFF8
07FFFFFCFFF8
07FFFFFEFFF8
07FFFFFFFFF8
07FFFFFFFFF8
07FFFFFFFFF8
07FFFFFFFFF8
07FFFFFFFFF8
07FFFFFFFFF8
07FFDFFFFFF8
07FFCFFFFFF8
07FFC3FFFFF8
07FFC1FFFFF8
07FFC0FFFFF8
07FFC03FFFF8
07FFC01FFFF8
07FFC00FFFF8
07FFC007FFF8
07FFC001FFF8
07FFC000FFF8
07FFC000FFF8
07FFC000FFF8
07FFC000FFF8
07FFC000FFF8
07FFC000FFF8
07FFC000FFF8
07FFC000FFF8
07FFC000FFF8
07FFC000FFF8
07FFC000FFF8
07FFC000FFF8
07FFC000FFF8
07FFC000FFF8
07FFC000FFF8
07FFC000FFF8
07FFC000FFF8
07FFC000FFF8
07FFC000FFF8
07FFC000FFF8
07FFC000FFF8
07FFC000FFF8
07FFC000FFF8
07FFC000FFF8
07FFC000FFF8
07FFC000FFF8
07FFC000FFF8
07FFC000FFF8
07FFC000FFF8
ENDCHAR
STARTCHAR 00D2
ENCODING 210
SWIDTH 821 0
DWIDTH 73 0
BBX 67 81 3 -1
BITMAP
000001FF8000000000
000000FF8000000000
000000FF8000000000
0000007FC000000000
0000003FC000000000
0000003FE000000000
0000001FE000000000
0000000FF000000000
0000000FF000000000
00000007F800000000
00000003F800000000
000000000000000000
000000000000000000
000000000000000000
000000000000000000
000000000000000000
00000000E000000000
0000007FFFE0000000
000003FFFFFC000000
00001FFFFFFF000000
00007FFFFFFFC00000
0001FFFFFFFFF00000
0003FFFFFFFFFC0000
000FFFFFFFFFFE0000
001FFFFFFFFFFF0000
003FFFFFFFFFFF8000
007FFFFFFFFFFFC000
00FFFFFFFFFFFFE000
01FFFFFFFFFFFFF000
01FFFFF801FFFFF800
03FFFFC0003FFFFC00
07FFFF00000FFFFC00
07FFFC000003FFFE00
0FFFF8000001FFFF00
0FFFE0000000FFFF00
1FFFE00000007FFF00
1FFFC00000003FFF80
3FFF800000001FFF80
3FFF000000001FFFC0
3FFF000000000FFFC0
7FFE000000000FFFC0
7FFE0000000007FFE0
7FFE0000000007FFE0
7FFC0000000007FFE0
7FFC0000000003FFE0
FFFC0000000003FFE0
FFFC0000000003FFE0
FFFC0000000003FFE0
FFFC0000000003FFE0
FFFC0000000003FFE0
FFFC0000000003FFE0
FFFC0000000003FFE0
FFFC0000000003FFE0
7FFC0000000007FFE0
7FFC0000000007FFE0
7FFE0000000007FFE0
7FFE0000000007FFC0
7FFE000000000FFFC0
3FFF000000000FFFC0
3FFF000000001FFFC0
3FFF800000003FFF80
1FFFC00000003FFF80
1FFFE00000007FFF00
0FFFF0000000FFFF00
0FFFF8000001FFFE00
07FFFC000007FFFE00
07FFFF00000FFFFC00
03FFFFC0007FFFFC00
01FFFFFC03FFFFF800
00FFFFFFFFFFFFF000
00FFFFFFFFFFFFE000
007FFFFFFFFFFFC000
003FFFFFFFFFFF8000
001FFFFFFFFFFF0000
0007FFFFFFFFFE0000
0003FFFFFFFFF80000
0000FFFFFFFFF00000
00007FFFFFFFC00000
00000FFFFFFF000000
000003FFFFF8000000
0000003FFFC0000000
ENDCHAR
STARTCHAR 00D3
ENCODING 211
SWIDTH 821 0
DWIDTH 73 0
BBX 67 81 3 -1
BITMAP
000000001FF8000000
000000001FF0000000
000000003FE0000000
000000003FE0000000
000000007FC0000000
000000007F80000000
00000000FF80000000
00000000FF00000000
00000000FE00000000
00000001FE00000000
00000001FC00000000
000000000000000000
000000000000000000
000000000000000000
000000000000000000
000000000000000000
00000000E000000000
0000007FFFE0000000
000003FFFFFC000000
00001FFFFFFF000000
00007FFFFFFFC00000
0001FFFFFFFFF00000
0003FFFFFFFFFC0000
000FFFFFFFFFFE0000
001FFFFFFFFFFF0000
003FFFFFFFFFFF8000
007FFFFFFFFFFFC000
00FFFFFFFFFFFFE000
01FFFFFFFFFFFFF000
01FFFFF801FFFFF800
03FFFFC0003FFFFC00
07FFFF00000FFFFC00
07FFFC000003FFFE00
0FFFF8000001FFFF00
0FFFE0000000FFFF00
1FFFE00000007FFF00
1FFFC00000003FFF80
3FFF800000001FFF80
3FFF000000001FFFC0
3FFF000000000FFFC0
7FFE000000000FFFC0
7FFE0000000007FFE0
7FFE0000000007FFE0
7FFC0000000007FFE0
7FFC0000000003FFE0
FFFC0000000003FFE0
FFFC0000000003FFE0
FFFC0000000003FFE0
FFFC0000000003FFE0
FFFC0000000003FFE0
FFFC0000000003FFE0
FFFC0000000003FFE0
FFFC0000000003FFE0
7FFC0000000007FFE0
7FFC0000000007FFE0
7FFE0000000007FFE0
7FFE0000000007FFC0
7FFE000000000FFFC0
3FFF000000000FFFC0
3FFF000000001FFFC0
3FFF800000003FFF80
1FFFC00000003FFF80
1FFFE00000007FFF00
0FFFF0000000FFFF00
0FFFF8000001FFFE00
07FFFC000007FFFE00
07FFFF00000FFFFC00
03FFFFC0007FFFFC00
01FFFFFC03FFFFF800
00FFFFFFFFFFFFF000
00FFFFFFFFFFFFE000
007FFFFFFFFFFFC000
003FFFFFFFFFFF8000
001FFFFFFFFFFF0000
0007FFFFFFFFFE0000
0003FFFFFFFFF80000
0000FFFFFFFFF00000
00007FFFFFFFC00000
00000FFFFFFF000000
000003FFFFF8000000
0000003FFFC0000000
ENDCHAR
STARTCHAR 00D4
ENCODING 212
SWIDTH 821 0
DWIDTH 73 0
BBX 67 82 3 -1
BITMAP
000000004000000000
00000000E000000000
00000001F000000000
00000001F800000000
00000003FC00000000
00000007FE00000000
0000000FFF00000000
0000001FFF80000000
0000003FFF80000000
0000007FFFC0000000
000000FFFFE0000000
000000FFFFF0000000
000001FFFFF8000000
000000000000000000
000000000000000000
000000000000000000
000000000000000000
00000000E000000000
0000007FFFE0000000
000003FFFFFC000000
00001FFFFFFF000000
00007FFFFFFFC00000
0001FFFFFFFFF00000
0003FFFFFFFFFC0000
000FFFFFFFFFFE0000
001FFFFFFFFFFF0000
003FFFFFFFFFFF8000
007FFFFFFFFFFFC000
00FFFFFFFFFFFFE000
01FFFFFFFFFFFFF000
01FFFFF801FFFFF800
03FFFFC0003FFFFC00
07FFFF00000FFFFC00
07FFFC000003FFFE00
0FFFF8000001FFFF00
0FFFE0000000FFFF00
1FFFE00000007FFF00
1FFFC00000003FFF80
3FFF800000001FFF80
3FFF000000001FFFC0
3FFF000000000FFFC0
7FFE000000000FFFC0
7FFE0000000007FFE0
7FFE0000000007FFE0
7FFC0000000007FFE0
7FFC0000000003FFE0
FFFC0000000003FFE0
FFFC0000000003FFE0
FFFC0000000003FFE0
FFFC0000000003FFE0
FFFC0000000003FFE0
FFFC0000000003FFE0
FFFC0000000003FFE0
FFFC0000000003FFE0
7FFC0000000007FFE0
7FFC0000000007FFE0
7FFE0000000007FFE0
7FFE0000000007FFC0
7FFE000000000FFFC0
3FFF000000000FFFC0
3FFF000000001FFFC0
3FFF800000003FFF80
1FFFC00000003FFF80
1FFFE00000007FFF00
0FFFF0000000FFFF00
0FFFF8000001FFFE00
07FFFC000007FFFE00
07FFFF00000FFFFC00
03FFFFC0007FFFFC00
01FFFFFC03FFFFF800
00FFFFFFFFFFFFF000
00FFFFFFFFFFFFE000
007FFFFFFFFFFFC000
003FFFFFFFFFFF8000
001FFFFFFFFFFF0000
0007FFFFFFFFFE0000
0003FFFFFFFFF80000
0000FFFFFFFFF00000
00007FFFFFFFC00000
00000FFFFFFF000000
000003FFFFF8000000
0000003FFFC0000000
ENDCHAR
STARTCHAR 00D5
ENCODING 213
SWIDTH 821 0
DWIDTH 73 0
BBX 67 81 3 -1
BITMAP
0000007C0000000000
000003FF8020000000
000003FFFFE0000000
000003FFFFE0000000
000003FFFFE0000000
000003FFFFE0000000
000003FFFFE0000000
000003FFFFE0000000
00000383FFE0000000
000000007FC0000000
000000000000000000
000000000000000000
000000000000000000
000000000000000000
000000000000000000
000000000000000000
00000000E000000000
0000007FFFE0000000
000003FFFFFC000000
00001FFFFFFF000000
00007FFFFFFFC00000
0001FFFFFFFFF00000
0003FFFFFFFFFC0000
000FFFFFFFFFFE0000
001FFFFFFFFFFF0000
003FFFFFFFFFFF8000
007FFFFFFFFFFFC000
00FFFFFFFFFFFFE000
01FFFFFFFFFFFFF000
01FFFFF801FFFFF800
03FFFFC0003FFFFC00
07FFFF00000FFFFC00
07FFFC000003FFFE00
0FFFF8000001FFFF00
0FFFE0000000FFFF00
1FFFE00000007FFF00
1FFFC00000003FFF80
3FFF800000001FFF80
3FFF000000001FFFC0
3FFF000000000FFFC0
7FFE000000000FFFC0
7FFE0000000007FFE0
7FFE0000000007FFE0
7FFC0000000007FFE0
7FFC0000000003FFE0
FFFC0000000003FFE0
FFFC0000000003FFE0
FFFC0000000003FFE0
FFFC0000000003FFE0
FFFC0000000003FFE0
FFFC0000000003FFE0
FFFC0000000003FFE0
FFFC0000000003FFE0
7FFC0000000007FFE0
7FFC0000000007FFE0
7FFE0000000007FFE0
7FFE0000000007FFC0
7FFE000000000FFFC0
3FFF000000000FFFC0
3FFF000000001FFFC0
3FFF800000003FFF80
1FFFC00000003FFF80
1FFFE00000007FFF00
0FFFF0000000FFFF00
0FFFF8000001FFFE00
07FFFC000007FFFE00
07FFFF00000FFFFC00
03FFFFC0007FFFFC00
01FFFFFC03FFFFF800
00FFFFFFFFFFFFF000
00FFFFFFFFFFFFE000
007FFFFFFFFFFFC000
003FFFFFFFFFFF8000
001FFFFFFFFFFF0000
0007FFFFFFFFFE0000
0003FFFFFFFFF80000
0000FFFFFFFFF00000
00007FFFFFFFC00000
00000FFFFFFF000000
000003FFFFF8000000
0000003FFFC0000000
ENDCHAR
STARTCHAR 00D6
ENCODING 214
SWIDTH 821 0
DWIDTH 73 0
BBX 67 83 3 -1
BITMAP
000001000004000000
00001FE0007F800000
00003FF800FFE00000
00007FFC01FFE00000
00007FFC03FFF00000
0000FFFE03FFF80000
0000FFFE03FFF80000
0000FFFE03FFF80000
0000FFFE03FFF80000
0000FFFE03FFF80000
0000FFFE03FFF80000
0000FFFC03FFF00000
00007FFC01FFF00000
00003FF800FFE00000
00001FF0007FC00000
00000780001E000000
000000000000000000
000000000000000000
00000000E000000000
0000007FFFE0000000
000003FFFFFC000000
00001FFFFFFF000000
00007FFFFFFFC00000
0001FFFFFFFFF00000
0003FFFFFFFFFC0000
000FFFFFFFFFFE0000
001FFFFFFFFFFF0000
003FFFFFFFFFFF8000
007FFFFFFFFFFFC000
00FFFFFFFFFFFFE000
01FFFFFFFFFFFFF000
01FFFFF801FFFFF800
03FFFFC0003FFFFC00
07FFFF00000FFFFC00
07FFFC000003FFFE00
0FFFF8000001FFFF00
0FFFE0000000FFFF00
1FFFE00000007FFF00
1FFFC00000003FFF80
3FFF800000001FFF80
3FFF000000001FFFC0
3FFF000000000FFFC0
7FFE000000000FFFC0
7FFE0000000007FFE0
7FFE0000000007FFE0
7FFC0000000007FFE0
7FFC0000000003FFE0
FFFC0000000003FFE0
FFFC0000000003FFE0
FFFC0000000003FFE0
FFFC0000000003FFE0
FFFC0000000003FFE0
FFFC0000000003FFE0
FFFC0000000003FFE0
FFFC0000000003FFE0
7FFC0000000007FFE0
7FFC0000000007FFE0
7FFE0000000007FFE0
7FFE0000000007FFC0
7FFE000000000FFFC0
3FFF000000000FFFC0
3FFF000000001FFFC0
3FFF800000003FFF80
1FFFC00000003FFF80
1FFFE00000007FFF00
0FFFF0000000FFFF00
0FFFF8000001FFFE00
07FFFC000007FFFE00
07FFFF00000FFFFC00
03FFFFC0007FFFFC00
01FFFFFC03FFFFF800
00FFFFFFFFFFFFF000
00FFFFFFFFFFFFE000
007FFFFFFFFFFFC000
003FFFFFFFFFFF8000
001FFFFFFFFFFF0000
0007FFFFFFFFFE0000
0003FFFFFFFFF80000
0000FFFFFFFFF00000
00007FFFFFFFC00000
00000FFFFFFF000000
000003FFFFF8000000
0000003FFFC0000000
ENDCHAR
STARTCHAR 00D7
ENCODING 215
SWIDTH 551 0
DWIDTH 49 0
BBX 39 39 5 10
BITMAP
0300000080
07800001C0
0FC00003E0
1FE00007F0
3FF0000FF8
7FF8001FFC
FFFC003FFE
7FFE007FFC
3FFF00FFF8
1FFF81FFF0
0FFFC3FFE0
07FFE7FFC0
03FFFFFF80
01FFFFFF00
00FFFFFE00
007FFFFC00
003FFFF800
001FFFF000
000FFFE000
0007FFE000
000FFFF000
001FFFF800
003FFFFC00
007FFFFE00
00FFFFFF00
01FFFFFF80
03FFFFFFC0
07FFE7FFE0
0FFFC3FFF0
1FFF81FFF8
3FFF00FFFC
7FFE007FFE
7FFC003FFE
3FF8001FFC
1FF0000FF8
0FE00007F0
07C00003E0
03800001C0
0100000080
ENDCHAR
STARTCHAR 00D8
ENCODING 216
SWIDTH 798 0
DWIDTH 71 0
BBX 67 70 2 -4
BITMAP
000000000000002000
000000000000007000
00000000F00000F800
0000007FFFE001FE00
000003FFFFFC03FF00
00001FFFFFFF87FF80
00007FFFFFFFE7FF00
0001FFFFFFFFFFFE00
0003FFFFFFFFFFFE00
0007FFFFFFFFFFFC00
001FFFFFFFFFFFF800
003FFFFFFFFFFFF000
007FFFFFFFFFFFE000
00FFFFFFFFFFFFE000
01FFFFFFFFFFFFF000
01FFFFF801FFFFF800
03FFFFC0003FFFFC00
07FFFF00001FFFFC00
07FFFC00003FFFFE00
0FFFF800007FFFFF00
0FFFF00000FFFFFF00
1FFFE00000FFFFFF80
1FFFC00001FFFFFF80
3FFF800003FF9FFF80
3FFF000007FF9FFFC0
3FFF00000FFF0FFFC0
7FFE00001FFE0FFFC0
7FFE00003FFC07FFE0
7FFE00007FF807FFE0
7FFC00007FF007FFE0
7FFC0000FFE003FFE0
7FFC0001FFE003FFE0
FFFC0003FFC003FFE0
FFFC0007FF8003FFE0
FFFC000FFF0003FFE0
FFFC001FFE0003FFE0
FFFC003FFC0003FFE0
FFFC003FF80003FFE0
7FFC007FF00003FFE0
7FFC00FFF00003FFE0
7FFC01FFE00007FFE0
7FFE03FFC00007FFE0
7FFE07FF800007FFE0
7FFE0FFF00000FFFC0
3FFF0FFE00000FFFC0
3FFF9FFC00001FFFC0
3FFFBFFC00001FFF80
1FFFFFF800003FFF80
1FFFFFF000007FFF00
0FFFFFE00000FFFF00
0FFFFFC00001FFFE00
07FFFF800007FFFE00
07FFFF00000FFFFC00
03FFFFC0007FFFFC00
01FFFFFC07FFFFF800
00FFFFFFFFFFFFF000
007FFFFFFFFFFFE000
00FFFFFFFFFFFFC000
01FFFFFFFFFFFF8000
01FFFFFFFFFFFF0000
03FFFFFFFFFFFE0000
07FFFFFFFFFFF80000
0FFFFFFFFFFFF00000
1FFE3FFFFFFFC00000
1FFC0FFFFFFF000000
0FF801FFFFF8000000
07F0003FFFC0000000
03E000000000000000
00C000000000000000
004000000000000000
ENDCHAR
STARTCHAR 00D9
ENCODING 217
SWIDTH 540 0
DWIDTH 48 0
BBX 40 81 4 -1
BITMAP
007FE00000
003FE00000
001FF00000
001FF00000
000FF80000
0007F80000
0007FC0000
0003FC0000
0001FE0000
0001FE0000
0000FE0000
0000000000
0000000000
0000000000
0000000000
0000000000
0000000000
0000000000
FFFC001FFF
FFFC001FFF
FFFC001FFF
FFFC001FFF
FFFC001FFF
FFFC001FFF
FFFC001FFF
FFFC001FFF
FFFC001FFF
FFFC001FFF
FFFC001FFF
FFFC001FFF
FFFC001FFF
FFFC001FFF
FFFC001FFF
FFFC001FFF
FFFC001FFF
FFFC001FFF
FFFC001FFF
FFFC001FFF
FFFC001FFF
FFFC001FFF
FFFC001FFF
FFFC001FFF
FFFC001FFF
FFFC001FFF
FFFC001FFF
FFFC001FFF
FFFC001FFF
FFFC001FFF
FFFC001FFF
FFFC001FFF
FFFC001FFF
FFFC001FFF
FFFC001FFF
FFFC001FFF
FFFC001FFF
FFFC001FFF
FFFC001FFF
FFFC001FFF
FFFC001FFF
FFFC001FFF
FFFC001FFF
FFFC001FFF
FFFC001FFF
FFFC001FFF
7FFC003FFF
7FFE003FFF
7FFE007FFE
7FFF00FFFE
3FFFC3FFFE
3FFFFFFFFE
3FFFFFFFFC
1FFFFFFFFC
1FFFFFFFF8
0FFFFFFFF0
07FFFFFFF0
03FFFFFFE0
01FFFFFFC0
00FFFFFF00
003FFFFE00
001FFFF800
0003FFC000
ENDCHAR
STARTCHAR 00DA
ENCODING 218
SWIDTH 540 0
DWIDTH 48 0
BBX 40 81 4 -1
BITMAP
000007FE00
000007FC00
000007FC00
00000FF800
00000FF000
00001FF000
00001FE000
00003FE000
00003FC000
00007F8000
00007F8000
0000000000
0000000000
0000000000
0000000000
0000000000
0000000000
0000000000
FFFC001FFF
FFFC001FFF
FFFC001FFF
FFFC001FFF
FFFC001FFF
FFFC001FFF
FFFC001FFF
FFFC001FFF
FFFC001FFF
FFFC001FFF
FFFC001FFF
FFFC001FFF
FFFC001FFF
FFFC001FFF
FFFC001FFF
FFFC001FFF
FFFC001FFF
FFFC001FFF
FFFC001FFF
FFFC001FFF
FFFC001FFF
FFFC001FFF
FFFC001FFF
FFFC001FFF
FFFC001FFF
FFFC001FFF
FFFC001FFF
FFFC001FFF
FFFC001FFF
FFFC001FFF
FFFC001FFF
FFFC001FFF
FFFC001FFF
FFFC001FFF
FFFC001FFF
FFFC001FFF
FFFC001FFF
FFFC001FFF
FFFC001FFF
FFFC001FFF
FFFC001FFF
FFFC001FFF
FFFC001FFF
FFFC001FFF
FFFC001FFF
FFFC001FFF
7FFC003FFF
7FFE003FFF
7FFE007FFE
7FFF00FFFE
3FFFC3FFFE
3FFFFFFFFE
3FFFFFFFFC
1FFFFFFFFC
1FFFFFFFF8
0FFFFFFFF0
07FFFFFFF0
03FFFFFFE0
01FFFFFFC0
00FFFFFF00
003FFFFE00
001FFFF800
0003FFC000
ENDCHAR
STARTCHAR 00DB
ENCODING 219
SWIDTH 540 0
DWIDTH 48 0
BBX 40 82 4 -1
BITMAP
0000080000
00001C0000
00003E0000
00007F0000
0000FF0000
0001FF8000
0003FFC000
0003FFE000
0007FFF000
000FFFF800
001FFFFC00
003FFFFC00
007FFFFE00
0000000000
0000000000
0000000000
0000000000
0000000000
0000000000
FFFC001FFF
FFFC001FFF
FFFC001FFF
FFFC001FFF
FFFC001FFF
FFFC001FFF
FFFC001FFF
FFFC001FFF
FFFC001FFF
FFFC001FFF
FFFC001FFF
FFFC001FFF
FFFC001FFF
FFFC001FFF
FFFC001FFF
FFFC001FFF
FFFC001FFF
FFFC001FFF
FFFC001FFF
FFFC001FFF
FFFC001FFF
FFFC001FFF
FFFC001FFF
FFFC001FFF
FFFC001FFF
FFFC001FFF
FFFC001FFF
FFFC001FFF
FFFC001FFF
FFFC001FFF
FFFC001FFF
FFFC001FFF
FFFC001FFF
FFFC001FFF
FFFC001FFF
FFFC001FFF
FFFC001FFF
FFFC001FFF
FFFC001FFF
FFFC001FFF
FFFC001FFF
FFFC001FFF
FFFC001FFF
FFFC001FFF
FFFC001FFF
FFFC001FFF
7FFC003FFF
7FFE003FFF
7FFE007FFE
7FFF00FFFE
3FFFC3FFFE
3FFFFFFFFE
3FFFFFFFFC
1FFFFFFFFC
1FFFFFFFF8
0FFFFFFFF0
07FFFFFFF0
03FFFFFFE0
01FFFFFFC0
00FFFFFF00
003FFFFE00
001FFFF800
0003FFC000
ENDCHAR
STARTCHAR 00DC
ENCODING 220
SWIDTH 540 0
DWIDTH 48 0
BBX 40 83 4 -1
BITMAP
0000000100
03FC000FE0
0FFE003FF8
0FFF007FFC
1FFF807FFC
3FFF80FFFE
3FFF80FFFE
3FFF80FFFE
3FFF80FFFE
3FFF80FFFE
3FFF80FFFE
1FFF807FFE
1FFF007FFC
0FFE003FF8
07FC001FF0
00F00007C0
0000000000
0000000000
0000000000
0000000000
FFFC001FFF
FFFC001FFF
FFFC001FFF
FFFC001FFF
FFFC001FFF
FFFC001FFF
FFFC001FFF
FFFC001FFF
FFFC001FFF
FFFC001FFF
FFFC001FFF
FFFC001FFF
FFFC001FFF
FFFC001FFF
FFFC001FFF
FFFC001FFF
FFFC001FFF
FFFC001FFF
FFFC001FFF
FFFC001FFF
FFFC001FFF
FFFC001FFF
FFFC001FFF
FFFC001FFF
FFFC001FFF
FFFC001FFF
FFFC001FFF
FFFC001FFF
FFFC001FFF
FFFC001FFF
FFFC001FFF
FFFC001FFF
FFFC001FFF
FFFC001FFF
FFFC001FFF
FFFC001FFF
FFFC001FFF
FFFC001FFF
FFFC001FFF
FFFC001FFF
FFFC001FFF
FFFC001FFF
FFFC001FFF
FFFC001FFF
FFFC001FFF
FFFC001FFF
7FFC003FFF
7FFE003FFF
7FFE007FFE
7FFF00FFFE
3FFFC3FFFE
3FFFFFFFFE
3FFFFFFFFC
1FFFFFFFFC
1FFFFFFFF8
0FFFFFFFF0
07FFFFFFF0
03FFFFFFE0
01FFFFFFC0
00FFFFFF00
003FFFFE00
001FFFF800
0003FFC000
ENDCHAR
STARTCHAR 00DD
ENCODING 221
SWIDTH 528 0
DWIDTH 47 0
BBX 40 80 4 0
BITMAP
000007FE00
000007FC00
00000FF800
00000FF800
00001FF000
00001FE000
00003FE000
00003FC000
00007F8000
00007F8000
00007F0000
0000000000
0000000000
0000000000
0000000000
0000000000
0000000000
0000000000
FFF8001FFF
FFF8001FFF
FFF8001FFF
FFF8001FFF
FFF8001FFF
FFF8001FFF
FFF8001FFF
FFF8001FFF
FFF8001FFF
FFF8001FFF
FFF8001FFF
FFF8001FFF
FFF8001FFF
FFF8001FFF
FFF8001FFF
FFF8001FFF
FFF8001FFF
FFF8001FFF
FFF8001FFF
FFF8001FFF
FFF8001FFF
FFF8001FFF
FFF8001FFF
FFF8001FFF
FFF8001FFF
FFF8001FFF
FFF8001FFF
FFF8001FFF
FFF8003FFF
FFF8003FFF
FFFC003FFF
FFFC003FFE
FFFC007FFE
7FFE007FFE
7FFF01FFFE
7FFFEFFFFC
3FFFFFFFFC
3FFFFFFFFC
1FFFFFFFF8
1FFFFFFFF0
0FFFFFFFF0
07FFFFFFE0
03FFFFFFC0
01FFFFFF80
00FFFFFE00
007FFFFC00
000FFFF000
0007FFC000
0007FFC000
0007FFC000
0007FFC000
0007FFC000
0007FFC000
0007FFC000
0007FFC000
0007FFC000
0007FFC000
0007FFC000
0007FFC000
0007FFC000
0007FFC000
0007FFC000
ENDCHAR
STARTCHAR 00E0
ENCODING 224
SWIDTH 573 0
DWIDTH 51 0
BBX 46 80 4 0
BITMAP
003FE0000000
003FF0000000
001FF0000000
000FF8000000
000FF8000000
0007FC000000
0003FC000000
0003FC000000
0001FE000000
0000FE000000
0000FF000000
000000000000
000000000000
000000000000
000000000000
000000000000
000008000000
0003FFE00000
001FFFFC0000
007FFFFE0000
00FFFFFF8000
01FFFFFFC000
03FFFFFFE000
07FFFFFFF000
0FFFFFFFF800
0FFFFFFFF800
1FFFFFFFFC00
1FFFFFFFFC00
3FFFFFFFFE00
3FFFC1FFFE00
7FFF007FFF00
7FFE003FFF00
7FFE003FFF00
7FFC001FFF00
7FFC001FFF00
7FFC001FFF80
FFFC001FFF80
FFFC001FFF80
FFFC001FFF80
FFFC001FFF80
FFFC001FFF80
FFFC001FFF80
FFFC001FFF80
FFFC001FFF80
FFFC001FFF80
FFFC001FFF80
FFFC001FFF80
FFFC001FFF80
FFFC001FFF80
FFFC001FFF80
FFFC001FFF80
FFFC001FFF80
FFFC001FFF80
FFFC001FFF80
FFFC001FFF80
FFFC001FFF80
FFFC001FFF80
FFFC001FFF80
FFFC001FFF80
FFFC001FFF80
FFFC001FFF80
FFFC001FFF80
FFFC001FFF80
FFFC001FFF80
FFFC001FFF80
FFFC001FFF80
FFFC001FFF80
FFFC001FFF80
FFFFFFFFFFFC
FFFFFFFFFFFC
FFFFFFFFFFFC
FFFFFFFFFFFC
FFFFFFFFFFFC
FFFFFFFFFFFC
FFFFFFFFFFFC
FFFFFFFFFFFC
FFFFFFFFFFFC
FFFFFFFFFFFC
FFFFFFFFFFFC
FFFFFFFFFFFC
ENDCHAR
STARTCHAR 00E1
ENCODING 225
SWIDTH 573 0
DWIDTH 51 0
BBX 46 80 4 0
BITMAP
000003FE0000
000007FE0000
000007FC0000
00000FF80000
00000FF80000
00000FF00000
00001FE00000
00001FE00000
00003FC00000
00003F800000
00007F800000
000000000000
000000000000
000000000000
000000000000
000000000000
000008000000
0003FFE00000
001FFFFC0000
007FFFFE0000
00FFFFFF8000
01FFFFFFC000
03FFFFFFE000
07FFFFFFF000
0FFFFFFFF800
0FFFFFFFF800
1FFFFFFFFC00
1FFFFFFFFC00
3FFFFFFFFE00
3FFFC1FFFE00
7FFF007FFF00
7FFE003FFF00
7FFE003FFF00
7FFC001FFF00
7FFC001FFF00
7FFC001FFF80
FFFC001FFF80
FFFC001FFF80
FFFC001FFF80
FFFC001FFF80
FFFC001FFF80
FFFC001FFF80
FFFC001FFF80
FFFC001FFF80
FFFC001FFF80
FFFC001FFF80
FFFC001FFF80
FFFC001FFF80
FFFC001FFF80
FFFC001FFF80
FFFC001FFF80
FFFC001FFF80
FFFC001FFF80
FFFC001FFF80
FFFC001FFF80
FFFC001FFF80
FFFC001FFF80
FFFC001FFF80
FFFC001FFF80
FFFC001FFF80
FFFC001FFF80
FFFC001FFF80
FFFC001FFF80
FFFC001FFF80
FFFC001FFF80
FFFC001FFF80
FFFC001FFF80
FFFC001FFF80
FFFFFFFFFFFC
FFFFFFFFFFFC
FFFFFFFFFFFC
FFFFFFFFFFFC
FFFFFFFFFFFC
FFFFFFFFFFFC
FFFFFFFFFFFC
FFFFFFFFFFFC
FFFFFFFFFFFC
FFFFFFFFFFFC
FFFFFFFFFFFC
FFFFFFFFFFFC
ENDCHAR
STARTCHAR 00E2
ENCODING 226
SWIDTH 573 0
DWIDTH 51 0
BBX 46 81 4 0
BITMAP
000008000000
00001C000000
00003E000000
00007F000000
0000FF800000
0000FFC00000
0001FFC00000
0003FFE00000
0007FFF00000
000FFFF80000
001FFFFC0000
003FFFFE0000
007FFFFF0000
000000000000
000000000000
000000000000
000000000000
000008000000
0003FFE00000
001FFFFC0000
007FFFFE0000
00FFFFFF8000
01FFFFFFC000
03FFFFFFE000
07FFFFFFF000
0FFFFFFFF800
0FFFFFFFF800
1FFFFFFFFC00
1FFFFFFFFC00
3FFFFFFFFE00
3FFFC1FFFE00
7FFF007FFF00
7FFE003FFF00
7FFE003FFF00
7FFC001FFF00
7FFC001FFF00
7FFC001FFF80
FFFC001FFF80
FFFC001FFF80
FFFC001FFF80
FFFC001FFF80
FFFC001FFF80
FFFC001FFF80
FFFC001FFF80
FFFC001FFF80
FFFC001FFF80
FFFC001FFF80
FFFC001FFF80
FFFC001FFF80
FFFC001FFF80
FFFC001FFF80
FFFC001FFF80
FFFC001FFF80
FFFC001FFF80
FFFC001FFF80
FFFC001FFF80
FFFC001FFF80
FFFC001FFF80
FFFC001FFF80
FFFC001FFF80
FFFC001FFF80
FFFC001FFF80
FFFC001FFF80
FFFC001FFF80
FFFC001FFF80
FFFC001FFF80
FFFC001FFF80
FFFC001FFF80
FFFC001FFF80
FFFFFFFFFFFC
FFFFFFFFFFFC
FFFFFFFFFFFC
FFFFFFFFFFFC
FFFFFFFFFFFC
FFFFFFFFFFFC
FFFFFFFFFFFC
FFFFFFFFFFFC
FFFFFFFFFFFC
FFFFFFFFFFFC
FFFFFFFFFFFC
FFFFFFFFFFFC
ENDCHAR
STARTCHAR 00E3
ENCODING 227
SWIDTH 573 0
DWIDTH 51 0
BBX 46 80 4 0
BITMAP
000F80000000
007FF0040000
007FFFFC0000
007FFFFC0000
007FFFFC0000
007FFFFC0000
007FFFFC0000
007FFFFC0000
00707FFC0000
00000FF00000
000000000000
000000000000
000000000000
000000000000
000000000000
000000000000
000008000000
0003FFE00000
001FFFFC0000
007FFFFE0000
00FFFFFF8000
01FFFFFFC000
03FFFFFFE000
07FFFFFFF000
0FFFFFFFF800
0FFFFFFFF800
1FFFFFFFFC00
1FFFFFFFFC00
3FFFFFFFFE00
3FFFC1FFFE00
7FFF007FFF00
7FFE003FFF00
7FFE003FFF00
7FFC001FFF00
7FFC001FFF00
7FFC001FFF80
FFFC001FFF80
FFFC001FFF80
FFFC001FFF80
FFFC001FFF80
FFFC001FFF80
FFFC001FFF80
FFFC001FFF80
FFFC001FFF80
FFFC001FFF80
FFFC001FFF80
FFFC001FFF80
FFFC001FFF80
FFFC001FFF80
FFFC001FFF80
FFFC001FFF80
FFFC001FFF80
FFFC001FFF80
FFFC001FFF80
FFFC001FFF80
FFFC001FFF80
FFFC001FFF80
FFFC001FFF80
FFFC001FFF80
FFFC001FFF80
FFFC001FFF80
FFFC001FFF80
FFFC001FFF80
FFFC001FFF80
FFFC001FFF80
FFFC001FFF80
FFFC001FFF80
FFFC001FFF80
FFFFFFFFFFFC
FFFFFFFFFFFC
FFFFFFFFFFFC
FFFFFFFFFFFC
FFFFFFFFFFFC
FFFFFFFFFFFC
FFFFFFFFFFFC
FFFFFFFFFFFC
FFFFFFFFFFFC
FFFFFFFFFFFC
FFFFFFFFFFFC
FFFFFFFFFFFC
ENDCHAR
STARTCHAR 00E4
ENCODING 228
SWIDTH 573 0
DWIDTH 51 0
BBX 46 82 4 0
BITMAP
002000010000
03FC000FF000
07FE001FF800
0FFF003FFC00
1FFF807FFE00
1FFF807FFE00
1FFFC07FFF00
3FFFC0FFFF00
3FFFC0FFFF00
3FFFC0FFFF00
1FFF807FFE00
1FFF807FFE00
0FFF003FFC00
07FF001FFC00
03FC000FF000
00F00003C000
000000000000
000000000000
000008000000
0003FFE00000
001FFFFC0000
007FFFFE0000
00FFFFFF8000
01FFFFFFC000
03FFFFFFE000
07FFFFFFF000
0FFFFFFFF800
0FFFFFFFF800
1FFFFFFFFC00
1FFFFFFFFC00
3FFFFFFFFE00
3FFFC1FFFE00
7FFF007FFF00
7FFE003FFF00
7FFE003FFF00
7FFC001FFF00
7FFC001FFF00
7FFC001FFF80
FFFC001FFF80
FFFC001FFF80
FFFC001FFF80
FFFC001FFF80
FFFC001FFF80
FFFC001FFF80
FFFC001FFF80
FFFC001FFF80
FFFC001FFF80
FFFC001FFF80
FFFC001FFF80
FFFC001FFF80
FFFC001FFF80
FFFC001FFF80
FFFC001FFF80
FFFC001FFF80
FFFC001FFF80
FFFC001FFF80
FFFC001FFF80
FFFC001FFF80
FFFC001FFF80
FFFC001FFF80
FFFC001FFF80
FFFC001FFF80
FFFC001FFF80
FFFC001FFF80
FFFC001FFF80
FFFC001FFF80
FFFC001FFF80
FFFC001FFF80
FFFC001FFF80
FFFC001FFF80
FFFFFFFFFFFC
FFFFFFFFFFFC
FFFFFFFFFFFC
FFFFFFFFFFFC
FFFFFFFFFFFC
FFFFFFFFFFFC
FFFFFFFFFFFC
FFFFFFFFFFFC
FFFFFFFFFFFC
FFFFFFFFFFFC
FFFFFFFFFFFC
FFFFFFFFFFFC
ENDCHAR
STARTCHAR 00E5
ENCODING 229
SWIDTH 573 0
DWIDTH 51 0
BBX 46 86 4 0
BITMAP
00001C000000
0000FF800000
0001FFE00000
0007FFE00000
0007FFF00000
000FFFF80000
000FE3F80000
001F81FC0000
001F80FC0000
001F80FC0000
001F80FC0000
001F80FC0000
000FC1F80000
000FFFF80000
0007FFF00000
0007FFF00000
0003FFE00000
0000FFC00000
00003E000000
000000000000
000000000000
000000000000
000008000000
0003FFE00000
001FFFFC0000
007FFFFE0000
00FFFFFF8000
01FFFFFFC000
03FFFFFFE000
07FFFFFFF000
0FFFFFFFF800
0FFFFFFFF800
1FFFFFFFFC00
1FFFFFFFFC00
3FFFFFFFFE00
3FFFC1FFFE00
7FFF007FFF00
7FFE003FFF00
7FFE003FFF00
7FFC001FFF00
7FFC001FFF00
7FFC001FFF80
FFFC001FFF80
FFFC001FFF80
FFFC001FFF80
FFFC001FFF80
FFFC001FFF80
FFFC001FFF80
FFFC001FFF80
FFFC001FFF80
FFFC001FFF80
FFFC001FFF80
FFFC001FFF80
FFFC001FFF80
FFFC001FFF80
FFFC001FFF80
FFFC001FFF80
FFFC001FFF80
FFFC001FFF80
FFFC001FFF80
FFFC001FFF80
FFFC001FFF80
FFFC001FFF80
FFFC001FFF80
FFFC001FFF80
FFFC001FFF80
FFFC001FFF80
FFFC001FFF80
FFFC001FFF80
FFFC001FFF80
FFFC001FFF80
FFFC001FFF80
FFFC001FFF80
FFFC001FFF80
FFFFFFFFFFFC
FFFFFFFFFFFC
FFFFFFFFFFFC
FFFFFFFFFFFC
FFFFFFFFFFFC
FFFFFFFFFFFC
FFFFFFFFFFFC
FFFFFFFFFFFC
FFFFFFFFFFFC
FFFFFFFFFFFC
FFFFFFFFFFFC
FFFFFFFFFFFC
ENDCHAR
STARTCHAR 00E7
ENCODING 231
SWIDTH 686 0
DWIDTH 61 0
BBX 57 84 3 -20
BITMAP
00000001F0000000
0000007FFFC00000
000007FFFFF80000
00001FFFFFFF0000
00007FFFFFFFC000
0001FFFFFFFFE000
0003FFFFFFFFF800
000FFFFFFFFFFC00
001FFFFFFFFFFE00
003FFFFFFFFFFF00
007FFFFFFFFFFF80
00FFFFFFFFFFFF00
01FFFFFFFFFFFE00
03FFFFF803FFFC00
03FFFFC0007FF800
07FFFF00001FF000
07FFFC000007E000
0FFFF8000003C000
1FFFF00000018000
1FFFE00000000000
1FFFC00000000000
3FFF800000000000
3FFF000000000000
3FFF000000000000
7FFE000000000000
7FFE000000000000
7FFE000000000000
7FFC000000000000
7FFC000000000000
FFFC000000000000
FFFC000000000000
FFFC000000000000
FFFC000000000000
FFFC000000000000
FFFC000000000000
FFFC000000000000
FFFC000000000000
7FFC000000000000
7FFC000000000000
7FFE000000000000
7FFE000000000000
7FFE000000000000
3FFF000000000000
3FFF000000000000
3FFF800000000000
1FFFC00000000000
1FFFE00000000000
0FFFF00000018000
0FFFF8000007C000
07FFFC00000FE000
07FFFF00001FF000
03FFFFC0007FF800
01FFFFFC07FFFC00
00FFFFFFFFFFFE00
00FFFFFFFFFFFF00
007FFFFFFFFFFF80
003FFFFFFFFFFF00
000FFFFFFFFFFE00
0007FFFFFFFFFC00
0003FFFFFFFFF000
0000FFFFFFFFE000
00003FFFFFFF8000
00000FFFFFFE0000
000003FFFFF80000
0000003FFF800000
0000000FE0000000
0000000FC0000000
0000000FC0000000
0000000FE0000000
0000000FF8000000
0000000FF8000000
00000001FC000000
00000000FE000000
00000000FE000000
00000300FE000000
00000780FE000000
00000FE1FE000000
00001FFFFE000000
00003FFFFC000000
00001FFFFC000000
00000FFFF8000000
000003FFF0000000
000001FFE0000000
0000003F00000000
ENDCHAR
STARTCHAR 00E8
ENCODING 232
SWIDTH 517 0
DWIDTH 46 0
BBX 44 80 2 0
BITMAP
00FFC0000000
007FC0000000
003FE0000000
003FE0000000
001FF0000000
000FF0000000
000FF8000000
0007F8000000
0003FC000000
0003FC000000
0001FC000000
000000000000
000000000000
000000000000
000000000000
000000000000
000000000000
000000000000
03FFFFFF8000
03FFFFFF8000
03FFFFFF8000
03FFFFFF8000
03FFFFFF8000
03FFFFFF8000
03FFFFFF8000
03FFFFFF8000
03FFFFFF8000
03FFFFFF8000
03FFFFFF8000
03FFFFFF8000
03FFE0000000
03FFE0000000
03FFE0000000
03FFE0000000
03FFE0000000
03FFE0000000
03FFE0000000
03FFE0000000
03FFE0000000
03FFE0000000
03FFE0000000
03FFE0000000
03FFE0000000
FFFFFFFFF000
FFFFFFFFF000
FFFFFFFFF000
FFFFFFFFF000
FFFFFFFFF000
FFFFFFFFF000
FFFFFFFFF000
FFFFFFFFF000
FFFFFFFFF000
FFFFFFFFF000
FFFFFFFFF000
FFFFFFFFF000
03FFE0000000
03FFE0000000
03FFE0000000
03FFE0000000
03FFE0000000
03FFE0000000
03FFE0000000
03FFE0000000
03FFE0000000
03FFE0000000
03FFE0000000
03FFE0000000
03FFE0000000
03FFFFFFFFF0
03FFFFFFFFF0
03FFFFFFFFF0
03FFFFFFFFF0
03FFFFFFFFF0
03FFFFFFFFF0
03FFFFFFFFF0
03FFFFFFFFF0
03FFFFFFFFF0
03FFFFFFFFF0
03FFFFFFFFF0
03FFFFFFFFF0
ENDCHAR
STARTCHAR 00E9
ENCODING 233
SWIDTH 517 0
DWIDTH 46 0
BBX 44 80 2 0
BITMAP
00000FFC0000
00000FF80000
00000FF80000
00001FF00000
00001FE00000
00003FE00000
00003FC00000
00007F800000
00007F800000
0000FF000000
0000FF000000
000000000000
000000000000
000000000000
000000000000
000000000000
000000000000
000000000000
03FFFFFF8000
03FFFFFF8000
03FFFFFF8000
03FFFFFF8000
03FFFFFF8000
03FFFFFF8000
03FFFFFF8000
03FFFFFF8000
03FFFFFF8000
03FFFFFF8000
03FFFFFF8000
03FFFFFF8000
03FFE0000000
03FFE0000000
03FFE0000000
03FFE0000000
03FFE0000000
03FFE0000000
03FFE0000000
03FFE0000000
03FFE0000000
03FFE0000000
03FFE0000000
03FFE0000000
03FFE0000000
FFFFFFFFF000
FFFFFFFFF000
FFFFFFFFF000
FFFFFFFFF000
FFFFFFFFF000
FFFFFFFFF000
FFFFFFFFF000
FFFFFFFFF000
FFFFFFFFF000
FFFFFFFFF000
FFFFFFFFF000
FFFFFFFFF000
03FFE0000000
03FFE0000000
03FFE0000000
03FFE0000000
03FFE0000000
03FFE0000000
03FFE0000000
03FFE0000000
03FFE0000000
03FFE0000000
03FFE0000000
03FFE0000000
03FFE0000000
03FFFFFFFFF0
03FFFFFFFFF0
03FFFFFFFFF0
03FFFFFFFFF0
03FFFFFFFFF0
03FFFFFFFFF0
03FFFFFFFFF0
03FFFFFFFFF0
03FFFFFFFFF0
03FFFFFFFFF0
03FFFFFFFFF0
03FFFFFFFFF0
ENDCHAR
STARTCHAR 00EA
ENCODING 234
SWIDTH 517 0
DWIDTH 46 0
BBX 44 81 2 0
BITMAP
000010000000
000038000000
00007C000000
0000FE000000
0001FE000000
0003FF000000
0007FF800000
0007FFC00000
000FFFE00000
001FFFF00000
003FFFF80000
007FFFF80000
00FFFFFC0000
000000000000
000000000000
000000000000
000000000000
000000000000
000000000000
03FFFFFF8000
03FFFFFF8000
03FFFFFF8000
03FFFFFF8000
03FFFFFF8000
03FFFFFF8000
03FFFFFF8000
03FFFFFF8000
03FFFFFF8000
03FFFFFF8000
03FFFFFF8000
03FFFFFF8000
03FFE0000000
03FFE0000000
03FFE0000000
03FFE0000000
03FFE0000000
03FFE0000000
03FFE0000000
03FFE0000000
03FFE0000000
03FFE0000000
03FFE0000000
03FFE0000000
03FFE0000000
FFFFFFFFF000
FFFFFFFFF000
FFFFFFFFF000
FFFFFFFFF000
FFFFFFFFF000
FFFFFFFFF000
FFFFFFFFF000
FFFFFFFFF000
FFFFFFFFF000
FFFFFFFFF000
FFFFFFFFF000
FFFFFFFFF000
03FFE0000000
03FFE0000000
03FFE0000000
03FFE0000000
03FFE0000000
03FFE0000000
03FFE0000000
03FFE0000000
03FFE0000000
03FFE0000000
03FFE0000000
03FFE0000000
03FFE0000000
03FFFFFFFFF0
03FFFFFFFFF0
03FFFFFFFFF0
03FFFFFFFFF0
03FFFFFFFFF0
03FFFFFFFFF0
03FFFFFFFFF0
03FFFFFFFFF0
03FFFFFFFFF0
03FFFFFFFFF0
03FFFFFFFFF0
03FFFFFFFFF0
ENDCHAR
STARTCHAR 00EB
ENCODING 235
SWIDTH 517 0
DWIDTH 46 0
BBX 44 81 2 1
BITMAP
07F8001FE000
0FFC007FF000
1FFE007FF800
3FFF00FFFC00
3FFF01FFFC00
7FFF01FFFC00
7FFF01FFFC00
7FFF01FFFC00
7FFF01FFFC00
7FFF01FFFC00
3FFF00FFFC00
3FFE00FFF800
1FFC007FF000
0FF8003FE000
01E000078000
000000000000
000000000000
000000000000
000000000000
03FFFFFF8000
03FFFFFF8000
03FFFFFF8000
03FFFFFF8000
03FFFFFF8000
03FFFFFF8000
03FFFFFF8000
03FFFFFF8000
03FFFFFF8000
03FFFFFF8000
03FFFFFF8000
03FFFFFF8000
03FFE0000000
03FFE0000000
03FFE0000000
03FFE0000000
03FFE0000000
03FFE0000000
03FFE0000000
03FFE0000000
03FFE0000000
03FFE0000000
03FFE0000000
03FFE0000000
03FFE0000000
FFFFFFFFF000
FFFFFFFFF000
FFFFFFFFF000
FFFFFFFFF000
FFFFFFFFF000
FFFFFFFFF000
FFFFFFFFF000
FFFFFFFFF000
FFFFFFFFF000
FFFFFFFFF000
FFFFFFFFF000
FFFFFFFFF000
03FFE0000000
03FFE0000000
03FFE0000000
03FFE0000000
03FFE0000000
03FFE0000000
03FFE0000000
03FFE0000000
03FFE0000000
03FFE0000000
03FFE0000000
03FFE0000000
03FFE0000000
03FFFFFFFFF0
03FFFFFFFFF0
03FFFFFFFFF0
03FFFFFFFFF0
03FFFFFFFFF0
03FFFFFFFFF0
03FFFFFFFFF0
03FFFFFFFFF0
03FFFFFFFFF0
03FFFFFFFFF0
03FFFFFFFFF0
03FFFFFFFFF0
ENDCHAR
STARTCHAR 00EC
ENCODING 236
SWIDTH 258 0
DWIDTH 23 0
BBX 17 56 1 0
BITMAP
FF8000
7FC000
7FC000
3FE000
3FE000
1FF000
0FF000
0FF800
07F800
03F800
03FC00
000000
000000
000000
000000
000000
000000
000000
0FFF80
0FFF80
0FFF80
0FFF80
0FFF80
0FFF80
0FFF80
0FFF80
0FFF80
0FFF80
0FFF80
0FFF80
0FFF80
0FFF80
0FFF80
0FFF80
0FFF80
0FFF80
0FFF80
0FFF80
0FFF80
0FFF80
0FFF80
0FFF80
0FFF80
0FFF80
0FFF80
0FFF80
0FFF80
0FFF80
0FFF80
0FFF80
0FFF80
0FFF80
0FFF80
0FFF80
0FFF80
0FFF80
ENDCHAR
STARTCHAR 00ED
ENCODING 237
SWIDTH 258 0
DWIDTH 23 0
BBX 18 56 5 0
BITMAP
00FFC0
00FF80
01FF00
01FF00
03FE00
03FC00
07FC00
07F800
0FF000
0FF000
0FE000
000000
000000
000000
000000
000000
000000
000000
FFF800
FFF800
FFF800
FFF800
FFF800
FFF800
FFF800
FFF800
FFF800
FFF800
FFF800
FFF800
FFF800
FFF800
FFF800
FFF800
FFF800
FFF800
FFF800
FFF800
FFF800
FFF800
FFF800
FFF800
FFF800
FFF800
FFF800
FFF800
FFF800
FFF800
FFF800
FFF800
FFF800
FFF800
FFF800
FFF800
FFF800
FFF800
ENDCHAR
STARTCHAR 00EE
ENCODING 238
SWIDTH 258 0
DWIDTH 23 0
BBX 22 57 1 0
BITMAP
002000
007000
00F800
01FC00
01FE00
03FF00
07FF80
0FFF80
1FFFC0
3FFFE0
7FFFF0
7FFFF8
FFFFFC
000000
000000
000000
000000
000000
000000
0FFF80
0FFF80
0FFF80
0FFF80
0FFF80
0FFF80
0FFF80
0FFF80
0FFF80
0FFF80
0FFF80
0FFF80
0FFF80
0FFF80
0FFF80
0FFF80
0FFF80
0FFF80
0FFF80
0FFF80
0FFF80
0FFF80
0FFF80
0FFF80
0FFF80
0FFF80
0FFF80
0FFF80
0FFF80
0FFF80
0FFF80
0FFF80
0FFF80
0FFF80
0FFF80
0FFF80
0FFF80
0FFF80
ENDCHAR
STARTCHAR 00EF
ENCODING 239
SWIDTH 258 0
DWIDTH 23 0
BBX 37 58 -6 0
BITMAP
0100000400
1FE0007F80
3FF000FFC0
7FF801FFE0
FFFC03FFF0
FFFC03FFF0
FFFE03FFF8
FFFE07FFF8
FFFE07FFF8
FFFE03FFF8
FFFE03FFF0
FFFC03FFF0
7FFC01FFE0
3FF800FFE0
1FF0007F80
0780001E00
0000000000
0000000000
0000000000
0000000000
001FFF0000
001FFF0000
001FFF0000
001FFF0000
001FFF0000
001FFF0000
001FFF0000
001FFF0000
001FFF0000
001FFF0000
001FFF0000
001FFF0000
001FFF0000
001FFF0000
001FFF0000
001FFF0000
001FFF0000
001FFF0000
001FFF0000
001FFF0000
001FFF0000
001FFF0000
001FFF0000
001FFF0000
001FFF0000
001FFF0000
001FFF0000
001FFF0000
001FFF0000
001FFF0000
001FFF0000
001FFF0000
001FFF0000
001FFF0000
001FFF0000
001FFF0000
001FFF0000
001FFF0000
ENDCHAR
STARTCHAR 00F1
ENCODING 241
SWIDTH 585 0
DWIDTH 52 0
BBX 45 80 2 0
BITMAP
0001F0000000
000FFF008000
000FFFFF8000
000FFFFF8000
000FFFFF8000
000FFFFF8000
000FFFFF8000
000FFFFF8000
000E0FFF8000
000000FF0000
000000000000
000000000000
000000000000
000000000000
000000000000
000000000000
010000000000
03C000000000
03E00000FFF8
07F00000FFF8
0FF80000FFF8
1FFE0000FFF8
1FFF0000FFF8
3FFF8000FFF8
7FFFC000FFF8
FFFFF000FFF8
FFFFF800FFF8
7FFFFC00FFF8
3FFFFF00FFF8
1FFFFF80FFF8
07FFFFC0FFF8
07FFFFE0FFF8
07FFFFF8FFF8
07FFFFFCFFF8
07FFFFFEFFF8
07FFFFFFFFF8
07FFFFFFFFF8
07FFFFFFFFF8
07FFFFFFFFF8
07FFFFFFFFF8
07FFFFFFFFF8
07FFDFFFFFF8
07FFCFFFFFF8
07FFC3FFFFF8
07FFC1FFFFF8
07FFC0FFFFF8
07FFC03FFFF8
07FFC01FFFF8
07FFC00FFFF8
07FFC007FFF8
07FFC001FFF8
07FFC000FFF8
07FFC000FFF8
07FFC000FFF8
07FFC000FFF8
07FFC000FFF8
07FFC000FFF8
07FFC000FFF8
07FFC000FFF8
07FFC000FFF8
07FFC000FFF8
07FFC000FFF8
07FFC000FFF8
07FFC000FFF8
07FFC000FFF8
07FFC000FFF8
07FFC000FFF8
07FFC000FFF8
07FFC000FFF8
07FFC000FFF8
07FFC000FFF8
07FFC000FFF8
07FFC000FFF8
07FFC000FFF8
07FFC000FFF8
07FFC000FFF8
07FFC000FFF8
07FFC000FFF8
07FFC000FFF8
07FFC000FFF8
ENDCHAR
STARTCHAR 00F2
ENCODING 242
SWIDTH 821 0
DWIDTH 73 0
BBX 67 81 3 -1
BITMAP
000001FF8000000000
000000FF8000000000
000000FF8000000000
0000007FC000000000
0000003FC000000000
0000003FE000000000
0000001FE000000000
0000000FF000000000
0000000FF000000000
00000007F800000000
00000003F800000000
000000000000000000
000000000000000000
000000000000000000
000000000000000000
000000000000000000
00000000E000000000
0000007FFFE0000000
000003FFFFFC000000
00001FFFFFFF000000
00007FFFFFFFC00000
0001FFFFFFFFF00000
0003FFFFFFFFFC0000
000FFFFFFFFFFE0000
001FFFFFFFFFFF0000
003FFFFFFFFFFF8000
007FFFFFFFFFFFC000
00FFFFFFFFFFFFE000
01FFFFFFFFFFFFF000
01FFFFF801FFFFF800
03FFFFC0003FFFFC00
07FFFF00000FFFFC00
07FFFC000003FFFE00
0FFFF8000001FFFF00
0FFFE0000000FFFF00
1FFFE00000007FFF00
1FFFC00000003FFF80
3FFF800000001FFF80
3FFF000000001FFFC0
3FFF000000000FFFC0
7FFE000000000FFFC0
7FFE0000000007FFE0
7FFE0000000007FFE0
7FFC0000000007FFE0
7FFC0000000003FFE0
FFFC0000000003FFE0
FFFC0000000003FFE0
FFFC0000000003FFE0
FFFC0000000003FFE0
FFFC0000000003FFE0
FFFC0000000003FFE0
FFFC0000000003FFE0
FFFC0000000003FFE0
7FFC0000000007FFE0
7FFC0000000007FFE0
7FFE0000000007FFE0
7FFE0000000007FFC0
7FFE000000000FFFC0
3FFF000000000FFFC0
3FFF000000001FFFC0
3FFF800000003FFF80
1FFFC00000003FFF80
1FFFE00000007FFF00
0FFFF0000000FFFF00
0FFFF8000001FFFE00
07FFFC000007FFFE00
07FFFF00000FFFFC00
03FFFFC0007FFFFC00
01FFFFFC03FFFFF800
00FFFFFFFFFFFFF000
00FFFFFFFFFFFFE000
007FFFFFFFFFFFC000
003FFFFFFFFFFF8000
001FFFFFFFFFFF0000
0007FFFFFFFFFE0000
0003FFFFFFFFF80000
0000FFFFFFFFF00000
00007FFFFFFFC00000
00000FFFFFFF000000
000003FFFFF8000000
0000003FFFC0000000
ENDCHAR
STARTCHAR 00F3
ENCODING 243
SWIDTH 821 0
DWIDTH 73 0
BBX 67 81 3 -1
BITMAP
000000001FF8000000
000000001FF0000000
000000003FE0000000
000000003FE0000000
000000007FC0000000
000000007F80000000
00000000FF80000000
00000000FF00000000
00000000FE00000000
00000001FE00000000
00000001FC00000000
000000000000000000
000000000000000000
000000000000000000
000000000000000000
000000000000000000
00000000E000000000
0000007FFFE0000000
000003FFFFFC000000
00001FFFFFFF000000
00007FFFFFFFC00000
0001FFFFFFFFF00000
0003FFFFFFFFFC0000
000FFFFFFFFFFE0000
001FFFFFFFFFFF0000
003FFFFFFFFFFF8000
007FFFFFFFFFFFC000
00FFFFFFFFFFFFE000
01FFFFFFFFFFFFF000
01FFFFF801FFFFF800
03FFFFC0003FFFFC00
07FFFF00000FFFFC00
07FFFC000003FFFE00
0FFFF8000001FFFF00
0FFFE0000000FFFF00
1FFFE00000007FFF00
1FFFC00000003FFF80
3FFF800000001FFF80
3FFF000000001FFFC0
3FFF000000000FFFC0
7FFE000000000FFFC0
7FFE0000000007FFE0
7FFE0000000007FFE0
7FFC0000000007FFE0
7FFC0000000003FFE0
FFFC0000000003FFE0
FFFC0000000003FFE0
FFFC0000000003FFE0
FFFC0000000003FFE0
FFFC0000000003FFE0
FFFC0000000003FFE0
FFFC0000000003FFE0
FFFC0000000003FFE0
7FFC0000000007FFE0
7FFC0000000007FFE0
7FFE0000000007FFE0
7FFE0000000007FFC0
7FFE000000000FFFC0
3FFF000000000FFFC0
3FFF000000001FFFC0
3FFF800000003FFF80
1FFFC00000003FFF80
1FFFE00000007FFF00
0FFFF0000000FFFF00
0FFFF8000001FFFE00
07FFFC000007FFFE00
07FFFF00000FFFFC00
03FFFFC0007FFFFC00
01FFFFFC03FFFFF800
00FFFFFFFFFFFFF000
00FFFFFFFFFFFFE000
007FFFFFFFFFFFC000
003FFFFFFFFFFF8000
001FFFFFFFFFFF0000
0007FFFFFFFFFE0000
0003FFFFFFFFF80000
0000FFFFFFFFF00000
00007FFFFFFFC00000
00000FFFFFFF000000
000003FFFFF8000000
0000003FFFC0000000
ENDCHAR
STARTCHAR 00F4
ENCODING 244
SWIDTH 821 0
DWIDTH 73 0
BBX 67 82 3 -1
BITMAP
000000004000000000
00000000E000000000
00000001F000000000
00000001F800000000
00000003FC00000000
00000007FE00000000
0000000FFF00000000
0000001FFF80000000
0000003FFF80000000
0000007FFFC0000000
000000FFFFE0000000
000000FFFFF0000000
000001FFFFF8000000
000000000000000000
000000000000000000
000000000000000000
000000000000000000
00000000E000000000
0000007FFFE0000000
000003FFFFFC000000
00001FFFFFFF000000
00007FFFFFFFC00000
0001FFFFFFFFF00000
0003FFFFFFFFFC0000
000FFFFFFFFFFE0000
001FFFFFFFFFFF0000
003FFFFFFFFFFF8000
007FFFFFFFFFFFC000
00FFFFFFFFFFFFE000
01FFFFFFFFFFFFF000
01FFFFF801FFFFF800
03FFFFC0003FFFFC00
07FFFF00000FFFFC00
07FFFC000003FFFE00
0FFFF8000001FFFF00
0FFFE0000000FFFF00
1FFFE00000007FFF00
1FFFC00000003FFF80
3FFF800000001FFF80
3FFF000000001FFFC0
3FFF000000000FFFC0
7FFE000000000FFFC0
7FFE0000000007FFE0
7FFE0000000007FFE0
7FFC0000000007FFE0
7FFC0000000003FFE0
FFFC0000000003FFE0
FFFC0000000003FFE0
FFFC0000000003FFE0
FFFC0000000003FFE0
FFFC0000000003FFE0
FFFC0000000003FFE0
FFFC0000000003FFE0
FFFC0000000003FFE0
7FFC0000000007FFE0
7FFC0000000007FFE0
7FFE0000000007FFE0
7FFE0000000007FFC0
7FFE000000000FFFC0
3FFF000000000FFFC0
3FFF000000001FFFC0
3FFF800000003FFF80
1FFFC00000003FFF80
1FFFE00000007FFF00
0FFFF0000000FFFF00
0FFFF8000001FFFE00
07FFFC000007FFFE00
07FFFF00000FFFFC00
03FFFFC0007FFFFC00
01FFFFFC03FFFFF800
00FFFFFFFFFFFFF000
00FFFFFFFFFFFFE000
007FFFFFFFFFFFC000
003FFFFFFFFFFF8000
001FFFFFFFFFFF0000
0007FFFFFFFFFE0000
0003FFFFFFFFF80000
0000FFFFFFFFF00000
00007FFFFFFFC00000
00000FFFFFFF000000
000003FFFFF8000000
0000003FFFC0000000
ENDCHAR
STARTCHAR 00F5
ENCODING 245
SWIDTH 821 0
DWIDTH 73 0
BBX 67 81 3 -1
BITMAP
0000007C0000000000
000003FF8020000000
000003FFFFE0000000
000003FFFFE0000000
000003FFFFE0000000
000003FFFFE0000000
000003FFFFE0000000
000003FFFFE0000000
00000383FFE0000000
000000007FC0000000
000000000000000000
000000000000000000
000000000000000000
000000000000000000
000000000000000000
000000000000000000
00000000E000000000
0000007FFFE0000000
000003FFFFFC000000
00001FFFFFFF000000
00007FFFFFFFC00000
0001FFFFFFFFF00000
0003FFFFFFFFFC0000
000FFFFFFFFFFE0000
001FFFFFFFFFFF0000
003FFFFFFFFFFF8000
007FFFFFFFFFFFC000
00FFFFFFFFFFFFE000
01FFFFFFFFFFFFF000
01FFFFF801FFFFF800
03FFFFC0003FFFFC00
07FFFF00000FFFFC00
07FFFC000003FFFE00
0FFFF8000001FFFF00
0FFFE0000000FFFF00
1FFFE00000007FFF00
1FFFC00000003FFF80
3FFF800000001FFF80
3FFF000000001FFFC0
3FFF000000000FFFC0
7FFE000000000FFFC0
7FFE0000000007FFE0
7FFE0000000007FFE0
7FFC0000000007FFE0
7FFC0000000003FFE0
FFFC0000000003FFE0
FFFC0000000003FFE0
FFFC0000000003FFE0
FFFC0000000003FFE0
FFFC0000000003FFE0
FFFC0000000003FFE0
FFFC0000000003FFE0
FFFC0000000003FFE0
7FFC0000000007FFE0
7FFC0000000007FFE0
7FFE0000000007FFE0
7FFE0000000007FFC0
7FFE000000000FFFC0
3FFF000000000FFFC0
3FFF000000001FFFC0
3FFF800000003FFF80
1FFFC00000003FFF80
1FFFE00000007FFF00
0FFFF0000000FFFF00
0FFFF8000001FFFE00
07FFFC000007FFFE00
07FFFF00000FFFFC00
03FFFFC0007FFFFC00
01FFFFFC03FFFFF800
00FFFFFFFFFFFFF000
00FFFFFFFFFFFFE000
007FFFFFFFFFFFC000
003FFFFFFFFFFF8000
001FFFFFFFFFFF0000
0007FFFFFFFFFE0000
0003FFFFFFFFF80000
0000FFFFFFFFF00000
00007FFFFFFFC00000
00000FFFFFFF000000
000003FFFFF8000000
0000003FFFC0000000
ENDCHAR
STARTCHAR 00F6
ENCODING 246
SWIDTH 821 0
DWIDTH 73 0
BBX 67 83 3 -1
BITMAP
000001000004000000
00001FE0007F800000
00003FF800FFE00000
00007FFC01FFE00000
00007FFC03FFF00000
0000FFFE03FFF80000
0000FFFE03FFF80000
0000FFFE03FFF80000
0000FFFE03FFF80000
0000FFFE03FFF80000
0000FFFE03FFF80000
0000FFFC03FFF00000
00007FFC01FFF00000
00003FF800FFE00000
00001FF0007FC00000
00000780001E000000
000000000000000000
000000000000000000
00000000E000000000
0000007FFFE0000000
000003FFFFFC000000
00001FFFFFFF000000
00007FFFFFFFC00000
0001FFFFFFFFF00000
0003FFFFFFFFFC0000
000FFFFFFFFFFE0000
001FFFFFFFFFFF0000
003FFFFFFFFFFF8000
007FFFFFFFFFFFC000
00FFFFFFFFFFFFE000
01FFFFFFFFFFFFF000
01FFFFF801FFFFF800
03FFFFC0003FFFFC00
07FFFF00000FFFFC00
07FFFC000003FFFE00
0FFFF8000001FFFF00
0FFFE0000000FFFF00
1FFFE00000007FFF00
1FFFC00000003FFF80
3FFF800000001FFF80
3FFF000000001FFFC0
3FFF000000000FFFC0
7FFE000000000FFFC0
7FFE0000000007FFE0
7FFE0000000007FFE0
7FFC0000000007FFE0
7FFC0000000003FFE0
FFFC0000000003FFE0
FFFC0000000003FFE0
FFFC0000000003FFE0
FFFC0000000003FFE0
FFFC0000000003FFE0
FFFC0000000003FFE0
FFFC0000000003FFE0
FFFC0000000003FFE0
7FFC0000000007FFE0
7FFC0000000007FFE0
7FFE0000000007FFE0
7FFE0000000007FFC0
7FFE000000000FFFC0
3FFF000000000FFFC0
3FFF000000001FFFC0
3FFF800000003FFF80
1FFFC00000003FFF80
1FFFE00000007FFF00
0FFFF0000000FFFF00
0FFFF8000001FFFE00
07FFFC000007FFFE00
07FFFF00000FFFFC00
03FFFFC0007FFFFC00
01FFFFFC03FFFFF800
00FFFFFFFFFFFFF000
00FFFFFFFFFFFFE000
007FFFFFFFFFFFC000
003FFFFFFFFFFF8000
001FFFFFFFFFFF0000
0007FFFFFFFFFE0000
0003FFFFFFFFF80000
0000FFFFFFFFF00000
00007FFFFFFFC00000
00000FFFFFFF000000
000003FFFFF8000000
0000003FFFC0000000
ENDCHAR
STARTCHAR 00F7
ENCODING 247
SWIDTH 585 0
DWIDTH 52 0
BBX 42 45 5 6
BITMAP
00001E000000
00007F800000
0000FFC00000
0001FFE00000
0001FFE00000
0001FFE00000
0003FFF00000
0001FFE00000
0001FFE00000
0001FFE00000
0000FFC00000
00007F800000
00003F000000
000000000000
000000000000
000000000000
000000000000
FFFFFFFFFFC0
FFFFFFFFFFC0
FFFFFFFFFFC0
FFFFFFFFFFC0
FFFFFFFFFFC0
FFFFFFFFFFC0
FFFFFFFFFFC0
FFFFFFFFFFC0
FFFFFFFFFFC0
FFFFFFFFFFC0
000000000000
000000000000
000000000000
000000000000
000000000000
00003F000000
00007F800000
0000FFC00000
0001FFE00000
0001FFE00000
0003FFE00000
0003FFF00000
0001FFE00000
0001FFE00000
0001FFE00000
0000FFC00000
00007F800000
00001E000000
ENDCHAR
STARTCHAR 00F8
ENCODING 248
SWIDTH 798 0
DWIDTH 71 0
BBX 67 70 2 -4
BITMAP
000000000000002000
000000000000007000
00000000F00000F800
0000007FFFE001FE00
000003FFFFFC03FF00
00001FFFFFFF87FF80
00007FFFFFFFE7FF00
0001FFFFFFFFFFFE00
0003FFFFFFFFFFFE00
0007FFFFFFFFFFFC00
001FFFFFFFFFFFF800
003FFFFFFFFFFFF000
007FFFFFFFFFFFE000
00FFFFFFFFFFFFE000
01FFFFFFFFFFFFF000
01FFFFF801FFFFF800
03FFFFC0003FFFFC00
07FFFF00001FFFFC00
07FFFC00003FFFFE00
0FFFF800007FFFFF00
0FFFF00000FFFFFF00
1FFFE00000FFFFFF80
1FFFC00001FFFFFF80
3FFF800003FF9FFF80
3FFF000007FF9FFFC0
3FFF00000FFF0FFFC0
7FFE00001FFE0FFFC0
7FFE00003FFC07FFE0
7FFE00007FF807FFE0
7FFC00007FF007FFE0
7FFC0000FFE003FFE0
7FFC0001FFE003FFE0
FFFC0003FFC003FFE0
FFFC0007FF8003FFE0
FFFC000FFF0003FFE0
FFFC001FFE0003FFE0
FFFC003FFC0003FFE0
FFFC003FF80003FFE0
7FFC007FF00003FFE0
7FFC00FFF00003FFE0
7FFC01FFE00007FFE0
7FFE03FFC00007FFE0
7FFE07FF800007FFE0
7FFE0FFF00000FFFC0
3FFF0FFE00000FFFC0
3FFF9FFC00001FFFC0
3FFFBFFC00001FFF80
1FFFFFF800003FFF80
1FFFFFF000007FFF00
0FFFFFE00000FFFF00
0FFFFFC00001FFFE00
07FFFF800007FFFE00
07FFFF00000FFFFC00
03FFFFC0007FFFFC00
01FFFFFC07FFFFF800
00FFFFFFFFFFFFF000
007FFFFFFFFFFFE000
00FFFFFFFFFFFFC000
01FFFFFFFFFFFF8000
01FFFFFFFFFFFF0000
03FFFFFFFFFFFE0000
07FFFFFFFFFFF80000
0FFFFFFFFFFFF00000
1FFE3FFFFFFFC00000
1FFC0FFFFFFF000000
0FF801FFFFF8000000
07F0003FFFC0000000
03E000000000000000
00C000000000000000
004000000000000000
ENDCHAR
STARTCHAR 00F9
ENCODING 249
SWIDTH 540 0
DWIDTH 48 0
BBX 40 81 4 -1
BITMAP
007FE00000
003FE00000
001FF00000
001FF00000
000FF80000
0007F80000
0007FC0000
0003FC0000
0001FE0000
0001FE0000
0000FE0000
0000000000
0000000000
0000000000
0000000000
0000000000
0000000000
0000000000
FFFC001FFF
FFFC001FFF
FFFC001FFF
FFFC001FFF
FFFC001FFF
FFFC001FFF
FFFC001FFF
FFFC001FFF
FFFC001FFF
FFFC001FFF
FFFC001FFF
FFFC001FFF
FFFC001FFF
FFFC001FFF
FFFC001FFF
FFFC001FFF
FFFC001FFF
FFFC001FFF
FFFC001FFF
FFFC001FFF
FFFC001FFF
FFFC001FFF
FFFC001FFF
FFFC001FFF
FFFC001FFF
FFFC001FFF
FFFC001FFF
FFFC001FFF
FFFC001FFF
FFFC001FFF
FFFC001FFF
FFFC001FFF
FFFC001FFF
FFFC001FFF
FFFC001FFF
FFFC001FFF
FFFC001FFF
FFFC001FFF
FFFC001FFF
FFFC001FFF
FFFC001FFF
FFFC001FFF
FFFC001FFF
FFFC001FFF
FFFC001FFF
FFFC001FFF
7FFC003FFF
7FFE003FFF
7FFE007FFE
7FFF00FFFE
3FFFC3FFFE
3FFFFFFFFE
3FFFFFFFFC
1FFFFFFFFC
1FFFFFFFF8
0FFFFFFFF0
07FFFFFFF0
03FFFFFFE0
01FFFFFFC0
00FFFFFF00
003FFFFE00
001FFFF800
0003FFC000
ENDCHAR
STARTCHAR 00FA
ENCODING 250
SWIDTH 540 0
DWIDTH 48 0
BBX 40 81 4 -1
BITMAP
000007FE00
000007FC00
000007FC00
00000FF800
00000FF000
00001FF000
00001FE000
00003FE000
00003FC000
00007F8000
00007F8000
0000000000
0000000000
0000000000
0000000000
0000000000
0000000000
0000000000
FFFC001FFF
FFFC001FFF
FFFC001FFF
FFFC001FFF
FFFC001FFF
FFFC001FFF
FFFC001FFF
FFFC001FFF
FFFC001FFF
FFFC001FFF
FFFC001FFF
FFFC001FFF
FFFC001FFF
FFFC001FFF
FFFC001FFF
FFFC001FFF
FFFC001FFF
FFFC001FFF
FFFC001FFF
FFFC001FFF
FFFC001FFF
FFFC001FFF
FFFC001FFF
FFFC001FFF
FFFC001FFF
FFFC001FFF
FFFC001FFF
FFFC001FFF
FFFC001FFF
FFFC001FFF
FFFC001FFF
FFFC001FFF
FFFC001FFF
FFFC001FFF
FFFC001FFF
FFFC001FFF
FFFC001FFF
FFFC001FFF
FFFC001FFF
FFFC001FFF
FFFC001FFF
FFFC001FFF
FFFC001FFF
FFFC001FFF
FFFC001FFF
FFFC001FFF
7FFC003FFF
7FFE003FFF
7FFE007FFE
7FFF00FFFE
3FFFC3FFFE
3FFFFFFFFE
3FFFFFFFFC
1FFFFFFFFC
1FFFFFFFF8
0FFFFFFFF0
07FFFFFFF0
03FFFFFFE0
01FFFFFFC0
00FFFFFF00
003FFFFE00
001FFFF800
0003FFC000
ENDCHAR
STARTCHAR 00FB
ENCODING 251
SWIDTH 540 0
DWIDTH 48 0
BBX 40 82 4 -1
BITMAP
0000080000
00001C0000
00003E0000
00007F0000
0000FF0000
0001FF8000
0003FFC000
0003FFE000
0007FFF000
000FFFF800
001FFFFC00
003FFFFC00
007FFFFE00
0000000000
0000000000
0000000000
0000000000
0000000000
0000000000
FFFC001FFF
FFFC001FFF
FFFC001FFF
FFFC001FFF
FFFC001FFF
FFFC001FFF
FFFC001FFF
FFFC001FFF
FFFC001FFF
FFFC001FFF
FFFC001FFF
FFFC001FFF
FFFC001FFF
FFFC001FFF
FFFC001FFF
FFFC001FFF
FFFC001FFF
FFFC001FFF
FFFC001FFF
FFFC001FFF
FFFC001FFF
FFFC001FFF
FFFC001FFF
FFFC001FFF
FFFC001FFF
FFFC001FFF
FFFC001FFF
FFFC001FFF
FFFC001FFF
FFFC001FFF
FFFC001FFF
FFFC001FFF
FFFC001FFF
FFFC001FFF
FFFC001FFF
FFFC001FFF
FFFC001FFF
FFFC001FFF
FFFC001FFF
FFFC001FFF
FFFC001FFF
FFFC001FFF
FFFC001FFF
FFFC001FFF
FFFC001FFF
FFFC001FFF
7FFC003FFF
7FFE003FFF
7FFE007FFE
7FFF00FFFE
3FFFC3FFFE
3FFFFFFFFE
3FFFFFFFFC
1FFFFFFFFC
1FFFFFFFF8
0FFFFFFFF0
07FFFFFFF0
03FFFFFFE0
01FFFFFFC0
00FFFFFF00
003FFFFE00
001FFFF800
0003FFC000
ENDCHAR
STARTCHAR 00FC
ENCODING 252
SWIDTH 540 0
DWIDTH 48 0
BBX 40 83 4 -1
BITMAP
0000000100
03FC000FE0
0FFE003FF8
0FFF007FFC
1FFF807FFC
3FFF80FFFE
3FFF80FFFE
3FFF80FFFE
3FFF80FFFE
3FFF80FFFE
3FFF80FFFE
1FFF807FFE
1FFF007FFC
0FFE003FF8
07FC001FF0
00F00007C0
0000000000
0000000000
0000000000
0000000000
FFFC001FFF
FFFC001FFF
FFFC001FFF
FFFC001FFF
FFFC001FFF
FFFC001FFF
FFFC001FFF
FFFC001FFF
FFFC001FFF
FFFC001FFF
FFFC001FFF
FFFC001FFF
FFFC001FFF
FFFC001FFF
FFFC001FFF
FFFC001FFF
FFFC001FFF
FFFC001FFF
FFFC001FFF
FFFC001FFF
FFFC001FFF
FFFC001FFF
FFFC001FFF
FFFC001FFF
FFFC001FFF
FFFC001FFF
FFFC001FFF
FFFC001FFF
FFFC001FFF
FFFC001FFF
FFFC001FFF
FFFC001FFF
FFFC001FFF
FFFC001FFF
FFFC001FFF
FFFC001FFF
FFFC001FFF
FFFC001FFF
FFFC001FFF
FFFC001FFF
FFFC001FFF
FFFC001FFF
FFFC001FFF
FFFC001FFF
FFFC001FFF
FFFC001FFF
7FFC003FFF
7FFE003FFF
7FFE007FFE
7FFF00FFFE
3FFFC3FFFE
3FFFFFFFFE
3FFFFFFFFC
1FFFFFFFFC
1FFFFFFFF8
0FFFFFFFF0
07FFFFFFF0
03FFFFFFE0
01FFFFFFC0
00FFFFFF00
003FFFFE00
001FFFF800
0003FFC000
ENDCHAR
STARTCHAR 00FD
ENCODING 253
SWIDTH 528 0
DWIDTH 47 0
BBX 40 80 4 0
BITMAP
000007FE00
000007FC00
00000FF800
00000FF800
00001FF000
00001FE000
00003FE000
00003FC000
00007F8000
00007F8000
00007F0000
0000000000
0000000000
0000000000
0000000000
0000000000
0000000000
0000000000
FFF8001FFF
FFF8001FFF
FFF8001FFF
FFF8001FFF
FFF8001FFF
FFF8001FFF
FFF8001FFF
FFF8001FFF
FFF8001FFF
FFF8001FFF
FFF8001FFF
FFF8001FFF
FFF8001FFF
FFF8001FFF
FFF8001FFF
FFF8001FFF
FFF8001FFF
FFF8001FFF
FFF8001FFF
FFF8001FFF
FFF8001FFF
FFF8001FFF
FFF8001FFF
FFF8001FFF
FFF8001FFF
FFF8001FFF
FFF8001FFF
FFF8001FFF
FFF8003FFF
FFF8003FFF
FFFC003FFF
FFFC003FFE
FFFC007FFE
7FFE007FFE
7FFF01FFFE
7FFFEFFFFC
3FFFFFFFFC
3FFFFFFFFC
1FFFFFFFF8
1FFFFFFFF0
0FFFFFFFF0
07FFFFFFE0
03FFFFFFC0
01FFFFFF80
00FFFFFE00
007FFFFC00
000FFFF000
0007FFC000
0007FFC000
0007FFC000
0007FFC000
0007FFC000
0007FFC000
0007FFC000
0007FFC000
0007FFC000
0007FFC000
0007FFC000
0007FFC000
0007FFC000
0007FFC000
0007FFC000
ENDCHAR
STARTCHAR 00FF
ENCODING 255
SWIDTH 528 0
DWIDTH 47 0
BBX 40 82 4 0
BITMAP
0040000100
07F8001FE0
0FFE003FF0
1FFE007FF8
3FFF00FFFC
3FFF80FFFC
3FFF80FFFE
3FFF80FFFE
3FFF80FFFE
3FFF80FFFE
3FFF80FFFE
3FFF00FFFC
1FFF007FFC
0FFE003FF8
07FC001FF0
01E0000780
0000000000
0000000000
0000000000
0000000000
FFF8001FFF
FFF8001FFF
FFF8001FFF
FFF8001FFF
FFF8001FFF
FFF8001FFF
FFF8001FFF
FFF8001FFF
FFF8001FFF
FFF8001FFF
FFF8001FFF
FFF8001FFF
FFF8001FFF
FFF8001FFF
FFF8001FFF
FFF8001FFF
FFF8001FFF
FFF8001FFF
FFF8001FFF
FFF8001FFF
FFF8001FFF
FFF8001FFF
FFF8001FFF
FFF8001FFF
FFF8001FFF
FFF8001FFF
FFF8001FFF
FFF8001FFF
FFF8003FFF
FFF8003FFF
FFFC003FFF
FFFC003FFE
FFFC007FFE
7FFE007FFE
7FFF01FFFE
7FFFEFFFFC
3FFFFFFFFC
3FFFFFFFFC
1FFFFFFFF8
1FFFFFFFF0
0FFFFFFFF0
07FFFFFFE0
03FFFFFFC0
01FFFFFF80
00FFFFFE00
007FFFFC00
000FFFF000
0007FFC000
0007FFC000
0007FFC000
0007FFC000
0007FFC000
0007FFC000
0007FFC000
0007FFC000
0007FFC000
0007FFC000
0007FFC000
0007FFC000
0007FFC000
0007FFC000
0007FFC000
ENDCHAR
STARTCHAR 0100
ENCODING 256
SWIDTH 573 0
DWIDTH 51 0
BBX 46 78 4 0
BITMAP
00FFFFFF8000
00FFFFFF8000
00FFFFFF8000
00FFFFFF8000
00FFFFFF8000
00FFFFFF8000
00FFFFFF8000
00FFFFFF8000
00FFFFFF8000
000000000000
000000000000
000000000000
000000000000
000000000000
000008000000
0003FFE00000
001FFFFC0000
007FFFFE0000
00FFFFFF8000
01FFFFFFC000
03FFFFFFE000
07FFFFFFF000
0FFFFFFFF800
0FFFFFFFF800
1FFFFFFFFC00
1FFFFFFFFC00
3FFFFFFFFE00
3FFFC1FFFE00
7FFF007FFF00
7FFE003FFF00
7FFE003FFF00
7FFC001FFF00
7FFC001FFF00
7FFC001FFF80
FFFC001FFF80
FFFC001FFF80
FFFC001FFF80
FFFC001FFF80
FFFC001FFF80
FFFC001FFF80
FFFC001FFF80
FFFC001FFF80
FFFC001FFF80
FFFC001FFF80
FFFC001FFF80
FFFC001FFF80
FFFC001FFF80
FFFC001FFF80
FFFC001FFF80
FFFC001FFF80
FFFC001FFF80
FFFC001FFF80
FFFC001FFF80
FFFC001FFF80
FFFC001FFF80
FFFC001FFF80
FFFC001FFF80
FFFC001FFF80
FFFC001FFF80
FFFC001FFF80
FFFC001FFF80
FFFC001FFF80
FFFC001FFF80
FFFC001FFF80
FFFC001FFF80
FFFC001FFF80
FFFFFFFFFFFC
FFFFFFFFFFFC
FFFFFFFFFFFC
FFFFFFFFFFFC
FFFFFFFFFFFC
FFFFFFFFFFFC
FFFFFFFFFFFC
FFFFFFFFFFFC
FFFFFFFFFFFC
FFFFFFFFFFFC
FFFFFFFFFFFC
FFFFFFFFFFFC
ENDCHAR
STARTCHAR 0101
ENCODING 257
SWIDTH 573 0
DWIDTH 51 0
BBX 46 78 4 0
BITMAP
00FFFFFF8000
00FFFFFF8000
00FFFFFF8000
00FFFFFF8000
00FFFFFF8000
00FFFFFF8000
00FFFFFF8000
00FFFFFF8000
00FFFFFF8000
000000000000
000000000000
000000000000
000000000000
000000000000
000008000000
0003FFE00000
001FFFFC0000
007FFFFE0000
00FFFFFF8000
01FFFFFFC000
03FFFFFFE000
07FFFFFFF000
0FFFFFFFF800
0FFFFFFFF800
1FFFFFFFFC00
1FFFFFFFFC00
3FFFFFFFFE00
3FFFC1FFFE00
7FFF007FFF00
7FFE003FFF00
7FFE003FFF00
7FFC001FFF00
7FFC001FFF00
7FFC001FFF80
FFFC001FFF80
FFFC001FFF80
FFFC001FFF80
FFFC001FFF80
FFFC001FFF80
FFFC001FFF80
FFFC001FFF80
FFFC001FFF80
FFFC001FFF80
FFFC001FFF80
FFFC001FFF80
FFFC001FFF80
FFFC001FFF80
FFFC001FFF80
FFFC001FFF80
FFFC001FFF80
FFFC001FFF80
FFFC001FFF80
FFFC001FFF80
FFFC001FFF80
FFFC001FFF80
FFFC001FFF80
FFFC001FFF80
FFFC001FFF80
FFFC001FFF80
FFFC001FFF80
FFFC001FFF80
FFFC001FFF80
FFFC001FFF80
FFFC001FFF80
FFFC001FFF80
FFFC001FFF80
FFFFFFFFFFFC
FFFFFFFFFFFC
FFFFFFFFFFFC
FFFFFFFFFFFC
FFFFFFFFFFFC
FFFFFFFFFFFC
FFFFFFFFFFFC
FFFFFFFFFFFC
FFFFFFFFFFFC
FFFFFFFFFFFC
FFFFFFFFFFFC
FFFFFFFFFFFC
ENDCHAR
STARTCHAR 0102
ENCODING 258
SWIDTH 573 0
DWIDTH 51 0
BBX 46 78 4 0
BITMAP
001FFFFE0000
001FFFFC0000
001FFFFC0000
001FFFFC0000
000FFFFC0000
000FFFF80000
0007FFF00000
0003FFE00000
0001FFC00000
00007F000000
000000000000
000000000000
000000000000
000000000000
000008000000
0003FFE00000
001FFFFC0000
007FFFFE0000
00FFFFFF8000
01FFFFFFC000
03FFFFFFE000
07FFFFFFF000
0FFFFFFFF800
0FFFFFFFF800
1FFFFFFFFC00
1FFFFFFFFC00
3FFFFFFFFE00
3FFFC1FFFE00
7FFF007FFF00
7FFE003FFF00
7FFE003FFF00
7FFC001FFF00
7FFC001FFF00
7FFC001FFF80
FFFC001FFF80
FFFC001FFF80
FFFC001FFF80
FFFC001FFF80
FFFC001FFF80
FFFC001FFF80
FFFC001FFF80
FFFC001FFF80
FFFC001FFF80
FFFC001FFF80
FFFC001FFF80
FFFC001FFF80
FFFC001FFF80
FFFC001FFF80
FFFC001FFF80
FFFC001FFF80
FFFC001FFF80
FFFC001FFF80
FFFC001FFF80
FFFC001FFF80
FFFC001FFF80
FFFC001FFF80
FFFC001FFF80
FFFC001FFF80
FFFC001FFF80
FFFC001FFF80
FFFC001FFF80
FFFC001FFF80
FFFC001FFF80
FFFC001FFF80
FFFC001FFF80
FFFC001FFF80
FFFFFFFFFFFC
FFFFFFFFFFFC
FFFFFFFFFFFC
FFFFFFFFFFFC
FFFFFFFFFFFC
FFFFFFFFFFFC
FFFFFFFFFFFC
FFFFFFFFFFFC
FFFFFFFFFFFC
FFFFFFFFFFFC
FFFFFFFFFFFC
FFFFFFFFFFFC
ENDCHAR
STARTCHAR 0103
ENCODING 259
SWIDTH 573 0
DWIDTH 51 0
BBX 46 78 4 0
BITMAP
001FFFFE0000
001FFFFC0000
001FFFFC0000
001FFFFC0000
000FFFFC0000
000FFFF80000
0007FFF00000
0003FFE00000
0001FFC00000
00007F000000
000000000000
000000000000
000000000000
000000000000
000008000000
0003FFE00000
001FFFFC0000
007FFFFE0000
00FFFFFF8000
01FFFFFFC000
03FFFFFFE000
07FFFFFFF000
0FFFFFFFF800
0FFFFFFFF800
1FFFFFFFFC00
1FFFFFFFFC00
3FFFFFFFFE00
3FFFC1FFFE00
7FFF007FFF00
7FFE003FFF00
7FFE003FFF00
7FFC001FFF00
7FFC001FFF00
7FFC001FFF80
FFFC001FFF80
FFFC001FFF80
FFFC001FFF80
FFFC001FFF80
FFFC001FFF80
FFFC001FFF80
FFFC001FFF80
FFFC001FFF80
FFFC001FFF80
FFFC001FFF80
FFFC001FFF80
FFFC001FFF80
FFFC001FFF80
FFFC001FFF80
FFFC001FFF80
FFFC001FFF80
FFFC001FFF80
FFFC001FFF80
FFFC001FFF80
FFFC001FFF80
FFFC001FFF80
FFFC001FFF80
FFFC001FFF80
FFFC001FFF80
FFFC001FFF80
FFFC001FFF80
FFFC001FFF80
FFFC001FFF80
FFFC001FFF80
FFFC001FFF80
FFFC001FFF80
FFFC001FFF80
FFFFFFFFFFFC
FFFFFFFFFFFC
FFFFFFFFFFFC
FFFFFFFFFFFC
FFFFFFFFFFFC
FFFFFFFFFFFC
FFFFFFFFFFFC
FFFFFFFFFFFC
FFFFFFFFFFFC
FFFFFFFFFFFC
FFFFFFFFFFFC
FFFFFFFFFFFC
ENDCHAR
STARTCHAR 0104
ENCODING 260
SWIDTH 573 0
DWIDTH 51 0
BBX 50 82 4 -18
BITMAP
00000800000000
0003FFE0000000
001FFFFC000000
007FFFFE000000
00FFFFFF800000
01FFFFFFC00000
03FFFFFFE00000
07FFFFFFF00000
0FFFFFFFF80000
0FFFFFFFF80000
1FFFFFFFFC0000
1FFFFFFFFC0000
3FFFFFFFFE0000
3FFFC1FFFE0000
7FFF007FFF0000
7FFE003FFF0000
7FFE003FFF0000
7FFC001FFF0000
7FFC001FFF0000
7FFC001FFF8000
FFFC001FFF8000
FFFC001FFF8000
FFFC001FFF8000
FFFC001FFF8000
FFFC001FFF8000
FFFC001FFF8000
FFFC001FFF8000
FFFC001FFF8000
FFFC001FFF8000
FFFC001FFF8000
FFFC001FFF8000
FFFC001FFF8000
FFFC001FFF8000
FFFC001FFF8000
FFFC001FFF8000
FFFC001FFF8000
FFFC001FFF8000
FFFC001FFF8000
FFFC001FFF8000
FFFC001FFF8000
FFFC001FFF8000
FFFC001FFF8000
FFFC001FFF8000
FFFC001FFF8000
FFFC001FFF8000
FFFC001FFF8000
FFFC001FFF8000
FFFC001FFF8000
FFFC001FFF8000
FFFC001FFF8000
FFFC001FFF8000
FFFC001FFF8000
FFFFFFFFFFFC00
FFFFFFFFFFFC00
FFFFFFFFFFFC00
FFFFFFFFFFFC00
FFFFFFFFFFFC00
FFFFFFFFFFFC00
FFFFFFFFFFFC00
FFFFFFFFFFFC00
FFFFFFFFFFFC00
FFFFFFFFFFFC00
FFFFFFFFFFFC00
FFFFFFFFFFFC00
000000003FF000
000000007F8000
00000000FF0000
00000001FE0000
00000003FC0000
00000003F80000
00000003F80000
00000003F00000
00000007F00400
00000007F80600
00000007F81F00
00000003FE7F80
00000003FFFFC0
00000001FFFFC0
00000001FFFF80
00000000FFFF00
000000003FFE00
000000001FF000
ENDCHAR
STARTCHAR 0105
ENCODING 261
SWIDTH 573 0
DWIDTH 51 0
BBX 50 82 4 -18
BITMAP
00000800000000
0003FFE0000000
001FFFFC000000
007FFFFE000000
00FFFFFF800000
01FFFFFFC00000
03FFFFFFE00000
07FFFFFFF00000
0FFFFFFFF80000
0FFFFFFFF80000
1FFFFFFFFC0000
1FFFFFFFFC0000
3FFFFFFFFE0000
3FFFC1FFFE0000
7FFF007FFF0000
7FFE003FFF0000
7FFE003FFF0000
7FFC001FFF0000
7FFC001FFF0000
7FFC001FFF8000
FFFC001FFF8000
FFFC001FFF8000
FFFC001FFF8000
FFFC001FFF8000
FFFC001FFF8000
FFFC001FFF8000
FFFC001FFF8000
FFFC001FFF8000
FFFC001FFF8000
FFFC001FFF8000
FFFC001FFF8000
FFFC001FFF8000
FFFC001FFF8000
FFFC001FFF8000
FFFC001FFF8000
FFFC001FFF8000
FFFC001FFF8000
FFFC001FFF8000
FFFC001FFF8000
FFFC001FFF8000
FFFC001FFF8000
FFFC001FFF8000
FFFC001FFF8000
FFFC001FFF8000
FFFC001FFF8000
FFFC001FFF8000
FFFC001FFF8000
FFFC001FFF8000
FFFC001FFF8000
FFFC001FFF8000
FFFC001FFF8000
FFFC001FFF8000
FFFFFFFFFFFC00
FFFFFFFFFFFC00
FFFFFFFFFFFC00
FFFFFFFFFFFC00
FFFFFFFFFFFC00
FFFFFFFFFFFC00
FFFFFFFFFFFC00
FFFFFFFFFFFC00
FFFFFFFFFFFC00
FFFFFFFFFFFC00
FFFFFFFFFFFC00
FFFFFFFFFFFC00
000000003FF000
000000007F8000
00000000FF0000
00000001FE0000
00000003FC0000
00000003F80000
00000003F80000
00000003F00000
00000007F00400
00000007F80600
00000007F81F00
00000003FE7F80
00000003FFFFC0
00000001FFFFC0
00000001FFFF80
00000000FFFF00
000000003FFE00
000000001FF000
ENDCHAR
STARTCHAR 0106
ENCODING 262
SWIDTH 686 0
DWIDTH 61 0
BBX 57 81 3 -1
BITMAP
000000003FF00000
000000003FE00000
000000007FE00000
000000007FC00000
000000007F800000
00000000FF800000
00000000FF000000
00000001FE000000
00000001FE000000
00000003FC000000
00000003F8000000
0000000000000000
0000000000000000
0000000000000000
0000000000000000
0000000000000000
00000001F0000000
0000007FFFC00000
000007FFFFF80000
00001FFFFFFF0000
00007FFFFFFFC000
0001FFFFFFFFE000
0003FFFFFFFFF800
000FFFFFFFFFFC00
001FFFFFFFFFFE00
003FFFFFFFFFFF00
007FFFFFFFFFFF80
00FFFFFFFFFFFF00
01FFFFFFFFFFFE00
03FFFFF803FFFC00
03FFFFC0007FF800
07FFFF00001FF000
07FFFC000007E000
0FFFF8000003C000
1FFFF00000018000
1FFFE00000000000
1FFFC00000000000
3FFF800000000000
3FFF000000000000
3FFF000000000000
7FFE000000000000
7FFE000000000000
7FFE000000000000
7FFC000000000000
7FFC000000000000
FFFC000000000000
FFFC000000000000
FFFC000000000000
FFFC000000000000
FFFC000000000000
FFFC000000000000
FFFC000000000000
FFFC000000000000
7FFC000000000000
7FFC000000000000
7FFE000000000000
7FFE000000000000
7FFE000000000000
3FFF000000000000
3FFF000000000000
3FFF800000000000
1FFFC00000000000
1FFFE00000000000
0FFFF00000018000
0FFFF8000007C000
07FFFC00000FE000
07FFFF00001FF000
03FFFFC0007FF800
01FFFFFC07FFFC00
00FFFFFFFFFFFE00
00FFFFFFFFFFFF00
007FFFFFFFFFFF80
003FFFFFFFFFFF00
001FFFFFFFFFFE00
0007FFFFFFFFFC00
0003FFFFFFFFF000
0000FFFFFFFFE000
00007FFFFFFF8000
00001FFFFFFE0000
000003FFFFF80000
0000003FFF800000
ENDCHAR
STARTCHAR 0107
ENCODING 263
SWIDTH 686 0
DWIDTH 61 0
BBX 57 81 3 -1
BITMAP
000000003FF00000
000000003FE00000
000000007FE00000
000000007FC00000
000000007F800000
00000000FF800000
00000000FF000000
00000001FE000000
00000001FE000000
00000003FC000000
00000003F8000000
0000000000000000
0000000000000000
0000000000000000
0000000000000000
0000000000000000
00000001F0000000
0000007FFFC00000
000007FFFFF80000
00001FFFFFFF0000
00007FFFFFFFC000
0001FFFFFFFFE000
0003FFFFFFFFF800
000FFFFFFFFFFC00
001FFFFFFFFFFE00
003FFFFFFFFFFF00
007FFFFFFFFFFF80
00FFFFFFFFFFFF00
01FFFFFFFFFFFE00
03FFFFF803FFFC00
03FFFFC0007FF800
07FFFF00001FF000
07FFFC000007E000
0FFFF8000003C000
1FFFF00000018000
1FFFE00000000000
1FFFC00000000000
3FFF800000000000
3FFF000000000000
3FFF000000000000
7FFE000000000000
7FFE000000000000
7FFE000000000000
7FFC000000000000
7FFC000000000000
FFFC000000000000
FFFC000000000000
FFFC000000000000
FFFC000000000000
FFFC000000000000
FFFC000000000000
FFFC000000000000
FFFC000000000000
7FFC000000000000
7FFC000000000000
7FFE000000000000
7FFE000000000000
7FFE000000000000
3FFF000000000000
3FFF000000000000
3FFF800000000000
1FFFC00000000000
1FFFE00000000000
0FFFF00000018000
0FFFF8000007C000
07FFFC00000FE000
07FFFF00001FF000
03FFFFC0007FF800
01FFFFFC07FFFC00
00FFFFFFFFFFFE00
00FFFFFFFFFFFF00
007FFFFFFFFFFF80
003FFFFFFFFFFF00
001FFFFFFFFFFE00
0007FFFFFFFFFC00
0003FFFFFFFFF000
0000FFFFFFFFE000
00007FFFFFFF8000
00001FFFFFFE0000
000003FFFFF80000
0000003FFF800000
ENDCHAR
STARTCHAR 010A
ENCODING 266
SWIDTH 686 0
DWIDTH 61 0
BBX 57 84 3 -1
BITMAP
00000001F0000000
00000007FC000000
0000000FFE000000
0000001FFF000000
0000003FFF800000
0000003FFF800000
0000003FFF800000
0000003FFF800000
0000003FFF800000
0000003FFF800000
0000003FFF800000
0000001FFF000000
0000000FFE000000
0000000FFC000000
00000003F8000000
0000000000000000
0000000000000000
0000000000000000
0000000000000000
00000001F0000000
0000007FFFC00000
000007FFFFF80000
00001FFFFFFF0000
00007FFFFFFFC000
0001FFFFFFFFE000
0003FFFFFFFFF800
000FFFFFFFFFFC00
001FFFFFFFFFFE00
003FFFFFFFFFFF00
007FFFFFFFFFFF80
00FFFFFFFFFFFF00
01FFFFFFFFFFFE00
03FFFFF803FFFC00
03FFFFC0007FF800
07FFFF00001FF000
07FFFC000007E000
0FFFF8000003C000
1FFFF00000018000
1FFFE00000000000
1FFFC00000000000
3FFF800000000000
3FFF000000000000
3FFF000000000000
7FFE000000000000
7FFE000000000000
7FFE000000000000
7FFC000000000000
7FFC000000000000
FFFC000000000000
FFFC000000000000
FFFC000000000000
FFFC000000000000
FFFC000000000000
FFFC000000000000
FFFC000000000000
FFFC000000000000
7FFC000000000000
7FFC000000000000
7FFE000000000000
7FFE000000000000
7FFE000000000000
3FFF000000000000
3FFF000000000000
3FFF800000000000
1FFFC00000000000
1FFFE00000000000
0FFFF00000018000
0FFFF8000007C000
07FFFC00000FE000
07FFFF00001FF000
03FFFFC0007FF800
01FFFFFC07FFFC00
00FFFFFFFFFFFE00
00FFFFFFFFFFFF00
007FFFFFFFFFFF80
003FFFFFFFFFFF00
001FFFFFFFFFFE00
0007FFFFFFFFFC00
0003FFFFFFFFF000
0000FFFFFFFFE000
00007FFFFFFF8000
00001FFFFFFE0000
000003FFFFF80000
0000003FFF800000
ENDCHAR
STARTCHAR 010B
ENCODING 267
SWIDTH 686 0
DWIDTH 61 0
BBX 57 84 3 -1
BITMAP
00000001F0000000
00000007FC000000
0000000FFE000000
0000001FFF000000
0000003FFF800000
0000003FFF800000
0000003FFF800000
0000003FFF800000
0000003FFF800000
0000003FFF800000
0000003FFF800000
0000001FFF000000
0000000FFE000000
0000000FFC000000
00000003F8000000
0000000000000000
0000000000000000
0000000000000000
0000000000000000
00000001F0000000
0000007FFFC00000
000007FFFFF80000
00001FFFFFFF0000
00007FFFFFFFC000
0001FFFFFFFFE000
0003FFFFFFFFF800
000FFFFFFFFFFC00
001FFFFFFFFFFE00
003FFFFFFFFFFF00
007FFFFFFFFFFF80
00FFFFFFFFFFFF00
01FFFFFFFFFFFE00
03FFFFF803FFFC00
03FFFFC0007FF800
07FFFF00001FF000
07FFFC000007E000
0FFFF8000003C000
1FFFF00000018000
1FFFE00000000000
1FFFC00000000000
3FFF800000000000
3FFF000000000000
3FFF000000000000
7FFE000000000000
7FFE000000000000
7FFE000000000000
7FFC000000000000
7FFC000000000000
FFFC000000000000
FFFC000000000000
FFFC000000000000
FFFC000000000000
FFFC000000000000
FFFC000000000000
FFFC000000000000
FFFC000000000000
7FFC000000000000
7FFC000000000000
7FFE000000000000
7FFE000000000000
7FFE000000000000
3FFF000000000000
3FFF000000000000
3FFF800000000000
1FFFC00000000000
1FFFE00000000000
0FFFF00000018000
0FFFF8000007C000
07FFFC00000FE000
07FFFF00001FF000
03FFFFC0007FF800
01FFFFFC07FFFC00
00FFFFFFFFFFFE00
00FFFFFFFFFFFF00
007FFFFFFFFFFF80
003FFFFFFFFFFF00
001FFFFFFFFFFE00
0007FFFFFFFFFC00
0003FFFFFFFFF000
0000FFFFFFFFE000
00007FFFFFFF8000
00001FFFFFFE0000
000003FFFFF80000
0000003FFF800000
ENDCHAR
STARTCHAR 010C
ENCODING 268
SWIDTH 686 0
DWIDTH 61 0
BBX 57 80 3 -1
BITMAP
000003FFFFF00000
000000FFFFE00000
000000FFFFC00000
0000007FFF800000
0000003FFF000000
0000001FFE000000
0000000FFC000000
00000007F8000000
00000003F8000000
00000001F0000000
00000001E0000000
00000000C0000000
0000000000000000
0000000000000000
0000000000000000
00000001F0000000
0000007FFFC00000
000007FFFFF80000
00001FFFFFFF0000
00007FFFFFFFC000
0001FFFFFFFFE000
0003FFFFFFFFF800
000FFFFFFFFFFC00
001FFFFFFFFFFE00
003FFFFFFFFFFF00
007FFFFFFFFFFF80
00FFFFFFFFFFFF00
01FFFFFFFFFFFE00
03FFFFF803FFFC00
03FFFFC0007FF800
07FFFF00001FF000
07FFFC000007E000
0FFFF8000003C000
1FFFF00000018000
1FFFE00000000000
1FFFC00000000000
3FFF800000000000
3FFF000000000000
3FFF000000000000
7FFE000000000000
7FFE000000000000
7FFE000000000000
7FFC000000000000
7FFC000000000000
FFFC000000000000
FFFC000000000000
FFFC000000000000
FFFC000000000000
FFFC000000000000
FFFC000000000000
FFFC000000000000
FFFC000000000000
7FFC000000000000
7FFC000000000000
7FFE000000000000
7FFE000000000000
7FFE000000000000
3FFF000000000000
3FFF000000000000
3FFF800000000000
1FFFC00000000000
1FFFE00000000000
0FFFF00000018000
0FFFF8000007C000
07FFFC00000FE000
07FFFF00001FF000
03FFFFC0007FF800
01FFFFFC07FFFC00
00FFFFFFFFFFFE00
00FFFFFFFFFFFF00
007FFFFFFFFFFF80
003FFFFFFFFFFF00
001FFFFFFFFFFE00
0007FFFFFFFFFC00
0003FFFFFFFFF000
0000FFFFFFFFE000
00007FFFFFFF8000
00001FFFFFFE0000
000003FFFFF80000
0000003FFF800000
ENDCHAR
STARTCHAR 010D
ENCODING 269
SWIDTH 686 0
DWIDTH 61 0
BBX 57 80 3 -1
BITMAP
000003FFFFF00000
000000FFFFE00000
000000FFFFC00000
0000007FFF800000
0000003FFF000000
0000001FFE000000
0000000FFC000000
00000007F8000000
00000003F8000000
00000001F0000000
00000001E0000000
00000000C0000000
0000000000000000
0000000000000000
0000000000000000
00000001F0000000
0000007FFFC00000
000007FFFFF80000
00001FFFFFFF0000
00007FFFFFFFC000
0001FFFFFFFFE000
0003FFFFFFFFF800
000FFFFFFFFFFC00
001FFFFFFFFFFE00
003FFFFFFFFFFF00
007FFFFFFFFFFF80
00FFFFFFFFFFFF00
01FFFFFFFFFFFE00
03FFFFF803FFFC00
03FFFFC0007FF800
07FFFF00001FF000
07FFFC000007E000
0FFFF8000003C000
1FFFF00000018000
1FFFE00000000000
1FFFC00000000000
3FFF800000000000
3FFF000000000000
3FFF000000000000
7FFE000000000000
7FFE000000000000
7FFE000000000000
7FFC000000000000
7FFC000000000000
FFFC000000000000
FFFC000000000000
FFFC000000000000
FFFC000000000000
FFFC000000000000
FFFC000000000000
FFFC000000000000
FFFC000000000000
7FFC000000000000
7FFC000000000000
7FFE000000000000
7FFE000000000000
7FFE000000000000
3FFF000000000000
3FFF000000000000
3FFF800000000000
1FFFC00000000000
1FFFE00000000000
0FFFF00000018000
0FFFF8000007C000
07FFFC00000FE000
07FFFF00001FF000
03FFFFC0007FF800
01FFFFFC07FFFC00
00FFFFFFFFFFFE00
00FFFFFFFFFFFF00
007FFFFFFFFFFF80
003FFFFFFFFFFF00
001FFFFFFFFFFE00
0007FFFFFFFFFC00
0003FFFFFFFFF000
0000FFFFFFFFE000
00007FFFFFFF8000
00001FFFFFFE0000
000003FFFFF80000
0000003FFF800000
ENDCHAR
STARTCHAR 010E
ENCODING 270
SWIDTH 686 0
DWIDTH 61 0
BBX 53 79 5 0
BITMAP
003FFFFE000000
001FFFFC000000
000FFFF8000000
0007FFF8000000
0003FFF0000000
0001FFE0000000
0000FFC0000000
0000FF80000000
00007F00000000
00003E00000000
00001C00000000
00000C00000000
00000000000000
00000000000000
00000000000000
00000000000000
00000000000000
FFFFFFF0000000
FFFFFFFF000000
FFFFFFFFE00000
FFFFFFFFF80000
FFFFFFFFFE0000
FFFFFFFFFF8000
FFFFFFFFFFC000
FFFFFFFFFFE000
FFFFFFFFFFF800
FFFFFFFFFFF800
FFFFFFFFFFFC00
FFFFFFFFFFFE00
FFF801FFFFFF00
FFF8000FFFFF80
FFF80003FFFF80
FFF80000FFFFC0
FFF800003FFFC0
FFF800001FFFE0
FFF800000FFFE0
FFF8000007FFE0
FFF8000007FFF0
FFF8000003FFF0
FFF8000003FFF0
FFF8000001FFF8
FFF8000001FFF8
FFF8000001FFF8
FFF8000001FFF8
FFF8000000FFF8
FFF8000000FFF8
FFF8000000FFF8
FFF8000000FFF8
FFF8000000FFF8
FFF8000000FFF8
FFF8000000FFF8
FFF8000000FFF8
FFF8000001FFF8
FFF8000001FFF8
FFF8000001FFF8
FFF8000001FFF0
FFF8000003FFF0
FFF8000003FFF0
FFF8000007FFF0
FFF800000FFFE0
FFF800000FFFE0
FFF800001FFFE0
FFF800007FFFC0
FFF80000FFFFC0
FFF80003FFFF80
FFF8001FFFFF00
FFF80FFFFFFF00
FFFFFFFFFFFE00
FFFFFFFFFFFC00
FFFFFFFFFFF800
FFFFFFFFFFF000
FFFFFFFFFFE000
FFFFFFFFFFC000
FFFFFFFFFF8000
FFFFFFFFFE0000
FFFFFFFFF80000
FFFFFFFFE00000
FFFFFFFF000000
FFFFFFE0000000
ENDCHAR
STARTCHAR 010F
ENCODING 271
SWIDTH 686 0
DWIDTH 61 0
BBX 53 79 5 0
BITMAP
003FFFFE000000
001FFFFC000000
000FFFF8000000
0007FFF8000000
0003FFF0000000
0001FFE0000000
0000FFC0000000
0000FF80000000
00007F00000000
00003E00000000
00001C00000000
00000C00000000
00000000000000
00000000000000
00000000000000
00000000000000
00000000000000
FFFFFFF0000000
FFFFFFFF000000
FFFFFFFFE00000
FFFFFFFFF80000
FFFFFFFFFE0000
FFFFFFFFFF8000
FFFFFFFFFFC000
FFFFFFFFFFE000
FFFFFFFFFFF800
FFFFFFFFFFF800
FFFFFFFFFFFC00
FFFFFFFFFFFE00
FFF801FFFFFF00
FFF8000FFFFF80
FFF80003FFFF80
FFF80000FFFFC0
FFF800003FFFC0
FFF800001FFFE0
FFF800000FFFE0
FFF8000007FFE0
FFF8000007FFF0
FFF8000003FFF0
FFF8000003FFF0
FFF8000001FFF8
FFF8000001FFF8
FFF8000001FFF8
FFF8000001FFF8
FFF8000000FFF8
FFF8000000FFF8
FFF8000000FFF8
FFF8000000FFF8
FFF8000000FFF8
FFF8000000FFF8
FFF8000000FFF8
FFF8000000FFF8
FFF8000001FFF8
FFF8000001FFF8
FFF8000001FFF8
FFF8000001FFF0
FFF8000003FFF0
FFF8000003FFF0
FFF8000007FFF0
FFF800000FFFE0
FFF800000FFFE0
FFF800001FFFE0
FFF800007FFFC0
FFF80000FFFFC0
FFF80003FFFF80
FFF8001FFFFF00
FFF80FFFFFFF00
FFFFFFFFFFFE00
FFFFFFFFFFFC00
FFFFFFFFFFF800
FFFFFFFFFFF000
FFFFFFFFFFE000
FFFFFFFFFFC000
FFFFFFFFFF8000
FFFFFFFFFE0000
FFFFFFFFF80000
FFFFFFFFE00000
FFFFFFFF000000
FFFFFFE0000000
ENDCHAR
STARTCHAR 0110
ENCODING 272
SWIDTH 708 0
DWIDTH 63 0
BBX 58 62 2 0
BITMAP
07FFFFFFC0000000
07FFFFFFFC000000
07FFFFFFFF000000
07FFFFFFFFE00000
07FFFFFFFFF80000
07FFFFFFFFFC0000
07FFFFFFFFFE0000
07FFFFFFFFFF8000
07FFFFFFFFFFC000
07FFFFFFFFFFE000
07FFFFFFFFFFF000
07FFFFFFFFFFF000
07FFE00FFFFFF800
07FFE0007FFFFC00
07FFE0000FFFFC00
07FFE00003FFFE00
07FFE00001FFFE00
07FFE00000FFFF00
07FFE000007FFF00
07FFE000003FFF80
07FFE000003FFF80
07FFE000001FFF80
07FFE000001FFF80
07FFE000000FFFC0
FFFFFFFF000FFFC0
FFFFFFFF000FFFC0
FFFFFFFF0007FFC0
FFFFFFFF0007FFC0
FFFFFFFF0007FFC0
FFFFFFFF0007FFC0
FFFFFFFF0007FFC0
FFFFFFFF0007FFC0
FFFFFFFF0007FFC0
FFFFFFFF0007FFC0
FFFFFFFF0007FFC0
FFFFFFFF0007FFC0
FFFFFFFF000FFFC0
07FFE000000FFFC0
07FFE000000FFFC0
07FFE000001FFF80
07FFE000001FFF80
07FFE000003FFF80
07FFE000003FFF80
07FFE000007FFF00
07FFE00000FFFF00
07FFE00001FFFE00
07FFE00007FFFE00
07FFE0001FFFFC00
07FFE0007FFFFC00
07FFE07FFFFFF800
07FFFFFFFFFFF000
07FFFFFFFFFFE000
07FFFFFFFFFFE000
07FFFFFFFFFFC000
07FFFFFFFFFF0000
07FFFFFFFFFE0000
07FFFFFFFFFC0000
07FFFFFFFFF00000
07FFFFFFFFC00000
07FFFFFFFF000000
07FFFFFFF8000000
07FFFFFF00000000
ENDCHAR
STARTCHAR 0111
ENCODING 273
SWIDTH 708 0
DWIDTH 63 0
BBX 58 62 2 0
BITMAP
07FFFFFFC0000000
07FFFFFFFC000000
07FFFFFFFF000000
07FFFFFFFFE00000
07FFFFFFFFF80000
07FFFFFFFFFC0000
07FFFFFFFFFE0000
07FFFFFFFFFF8000
07FFFFFFFFFFC000
07FFFFFFFFFFE000
07FFFFFFFFFFF000
07FFFFFFFFFFF000
07FFE00FFFFFF800
07FFE0007FFFFC00
07FFE0000FFFFC00
07FFE00003FFFE00
07FFE00001FFFE00
07FFE00000FFFF00
07FFE000007FFF00
07FFE000003FFF80
07FFE000003FFF80
07FFE000001FFF80
07FFE000001FFF80
07FFE000000FFFC0
FFFFFFFF000FFFC0
FFFFFFFF000FFFC0
FFFFFFFF0007FFC0
FFFFFFFF0007FFC0
FFFFFFFF0007FFC0
FFFFFFFF0007FFC0
FFFFFFFF0007FFC0
FFFFFFFF0007FFC0
FFFFFFFF0007FFC0
FFFFFFFF0007FFC0
FFFFFFFF0007FFC0
FFFFFFFF0007FFC0
FFFFFFFF000FFFC0
07FFE000000FFFC0
07FFE000000FFFC0
07FFE000001FFF80
07FFE000001FFF80
07FFE000003FFF80
07FFE000003FFF80
07FFE000007FFF00
07FFE00000FFFF00
07FFE00001FFFE00
07FFE00007FFFE00
07FFE0001FFFFC00
07FFE0007FFFFC00
07FFE07FFFFFF800
07FFFFFFFFFFF000
07FFFFFFFFFFE000
07FFFFFFFFFFE000
07FFFFFFFFFFC000
07FFFFFFFFFF0000
07FFFFFFFFFE0000
07FFFFFFFFFC0000
07FFFFFFFFF00000
07FFFFFFFFC00000
07FFFFFFFF000000
07FFFFFFF8000000
07FFFFFF00000000
ENDCHAR
STARTCHAR 0112
ENCODING 274
SWIDTH 517 0
DWIDTH 46 0
BBX 44 78 2 0
BITMAP
01FFFFFF0000
01FFFFFF0000
01FFFFFF0000
01FFFFFF0000
01FFFFFF0000
01FFFFFF0000
01FFFFFF0000
01FFFFFF0000
01FFFFFF0000
000000000000
000000000000
000000000000
000000000000
000000000000
000000000000
000000000000
03FFFFFF8000
03FFFFFF8000
03FFFFFF8000
03FFFFFF8000
03FFFFFF8000
03FFFFFF8000
03FFFFFF8000
03FFFFFF8000
03FFFFFF8000
03FFFFFF8000
03FFFFFF8000
03FFFFFF8000
03FFE0000000
03FFE0000000
03FFE0000000
03FFE0000000
03FFE0000000
03FFE0000000
03FFE0000000
03FFE0000000
03FFE0000000
03FFE0000000
03FFE0000000
03FFE0000000
03FFE0000000
FFFFFFFFF000
FFFFFFFFF000
FFFFFFFFF000
FFFFFFFFF000
FFFFFFFFF000
FFFFFFFFF000
FFFFFFFFF000
FFFFFFFFF000
FFFFFFFFF000
FFFFFFFFF000
FFFFFFFFF000
FFFFFFFFF000
03FFE0000000
03FFE0000000
03FFE0000000
03FFE0000000
03FFE0000000
03FFE0000000
03FFE0000000
03FFE0000000
03FFE0000000
03FFE0000000
03FFE0000000
03FFE0000000
03FFE0000000
03FFFFFFFFF0
03FFFFFFFFF0
03FFFFFFFFF0
03FFFFFFFFF0
03FFFFFFFFF0
03FFFFFFFFF0
03FFFFFFFFF0
03FFFFFFFFF0
03FFFFFFFFF0
03FFFFFFFFF0
03FFFFFFFFF0
03FFFFFFFFF0
ENDCHAR
STARTCHAR 0113
ENCODING 275
SWIDTH 517 0
DWIDTH 46 0
BBX 44 78 2 0
BITMAP
01FFFFFF0000
01FFFFFF0000
01FFFFFF0000
01FFFFFF0000
01FFFFFF0000
01FFFFFF0000
01FFFFFF0000
01FFFFFF0000
01FFFFFF0000
000000000000
000000000000
000000000000
000000000000
000000000000
000000000000
000000000000
03FFFFFF8000
03FFFFFF8000
03FFFFFF8000
03FFFFFF8000
03FFFFFF8000
03FFFFFF8000
03FFFFFF8000
03FFFFFF8000
03FFFFFF8000
03FFFFFF8000
03FFFFFF8000
03FFFFFF8000
03FFE0000000
03FFE0000000
03FFE0000000
03FFE0000000
03FFE0000000
03FFE0000000
03FFE0000000
03FFE0000000
03FFE0000000
03FFE0000000
03FFE0000000
03FFE0000000
03FFE0000000
FFFFFFFFF000
FFFFFFFFF000
FFFFFFFFF000
FFFFFFFFF000
FFFFFFFFF000
FFFFFFFFF000
FFFFFFFFF000
FFFFFFFFF000
FFFFFFFFF000
FFFFFFFFF000
FFFFFFFFF000
FFFFFFFFF000
03FFE0000000
03FFE0000000
03FFE0000000
03FFE0000000
03FFE0000000
03FFE0000000
03FFE0000000
03FFE0000000
03FFE0000000
03FFE0000000
03FFE0000000
03FFE0000000
03FFE0000000
03FFFFFFFFF0
03FFFFFFFFF0
03FFFFFFFFF0
03FFFFFFFFF0
03FFFFFFFFF0
03FFFFFFFFF0
03FFFFFFFFF0
03FFFFFFFFF0
03FFFFFFFFF0
03FFFFFFFFF0
03FFFFFFFFF0
03FFFFFFFFF0
ENDCHAR
STARTCHAR 0116
ENCODING 278
SWIDTH 517 0
DWIDTH 46 0
BBX 44 83 2 0
BITMAP
00007C000000
0001FF000000
0003FF800000
0007FFC00000
0007FFE00000
000FFFE00000
000FFFE00000
000FFFE00000
000FFFE00000
000FFFE00000
000FFFE00000
0007FFC00000
0003FFC00000
0001FF800000
0000FE000000
000000000000
000000000000
000000000000
000000000000
000000000000
000000000000
03FFFFFF8000
03FFFFFF8000
03FFFFFF8000
03FFFFFF8000
03FFFFFF8000
03FFFFFF8000
03FFFFFF8000
03FFFFFF8000
03FFFFFF8000
03FFFFFF8000
03FFFFFF8000
03FFFFFF8000
03FFE0000000
03FFE0000000
03FFE0000000
03FFE0000000
03FFE0000000
03FFE0000000
03FFE0000000
03FFE0000000
03FFE0000000
03FFE0000000
03FFE0000000
03FFE0000000
03FFE0000000
FFFFFFFFF000
FFFFFFFFF000
FFFFFFFFF000
FFFFFFFFF000
FFFFFFFFF000
FFFFFFFFF000
FFFFFFFFF000
FFFFFFFFF000
FFFFFFFFF000
FFFFFFFFF000
FFFFFFFFF000
FFFFFFFFF000
03FFE0000000
03FFE0000000
03FFE0000000
03FFE0000000
03FFE0000000
03FFE0000000
03FFE0000000
03FFE0000000
03FFE0000000
03FFE0000000
03FFE0000000
03FFE0000000
03FFE0000000
03FFFFFFFFF0
03FFFFFFFFF0
03FFFFFFFFF0
03FFFFFFFFF0
03FFFFFFFFF0
03FFFFFFFFF0
03FFFFFFFFF0
03FFFFFFFFF0
03FFFFFFFFF0
03FFFFFFFFF0
03FFFFFFFFF0
03FFFFFFFFF0
ENDCHAR
STARTCHAR 0117
ENCODING 279
SWIDTH 517 0
DWIDTH 46 0
BBX 44 83 2 0
BITMAP
00007C000000
0001FF000000
0003FF800000
0007FFC00000
0007FFE00000
000FFFE00000
000FFFE00000
000FFFE00000
000FFFE00000
000FFFE00000
000FFFE00000
0007FFC00000
0003FFC00000
0001FF800000
0000FE000000
000000000000
000000000000
000000000000
000000000000
000000000000
000000000000
03FFFFFF8000
03FFFFFF8000
03FFFFFF8000
03FFFFFF8000
03FFFFFF8000
03FFFFFF8000
03FFFFFF8000
03FFFFFF8000
03FFFFFF8000
03FFFFFF8000
03FFFFFF8000
03FFFFFF8000
03FFE0000000
03FFE0000000
03FFE0000000
03FFE0000000
03FFE0000000
03FFE0000000
03FFE0000000
03FFE0000000
03FFE0000000
03FFE0000000
03FFE0000000
03FFE0000000
03FFE0000000
FFFFFFFFF000
FFFFFFFFF000
FFFFFFFFF000
FFFFFFFFF000
FFFFFFFFF000
FFFFFFFFF000
FFFFFFFFF000
FFFFFFFFF000
FFFFFFFFF000
FFFFFFFFF000
FFFFFFFFF000
FFFFFFFFF000
03FFE0000000
03FFE0000000
03FFE0000000
03FFE0000000
03FFE0000000
03FFE0000000
03FFE0000000
03FFE0000000
03FFE0000000
03FFE0000000
03FFE0000000
03FFE0000000
03FFE0000000
03FFFFFFFFF0
03FFFFFFFFF0
03FFFFFFFFF0
03FFFFFFFFF0
03FFFFFFFFF0
03FFFFFFFFF0
03FFFFFFFFF0
03FFFFFFFFF0
03FFFFFFFFF0
03FFFFFFFFF0
03FFFFFFFFF0
03FFFFFFFFF0
ENDCHAR
STARTCHAR 0118
ENCODING 280
SWIDTH 517 0
DWIDTH 46 0
BBX 48 80 2 -18
BITMAP
03FFFFFF8000
03FFFFFF8000
03FFFFFF8000
03FFFFFF8000
03FFFFFF8000
03FFFFFF8000
03FFFFFF8000
03FFFFFF8000
03FFFFFF8000
03FFFFFF8000
03FFFFFF8000
03FFFFFF8000
03FFE0000000
03FFE0000000
03FFE0000000
03FFE0000000
03FFE0000000
03FFE0000000
03FFE0000000
03FFE0000000
03FFE0000000
03FFE0000000
03FFE0000000
03FFE0000000
03FFE0000000
FFFFFFFFF000
FFFFFFFFF000
FFFFFFFFF000
FFFFFFFFF000
FFFFFFFFF000
FFFFFFFFF000
FFFFFFFFF000
FFFFFFFFF000
FFFFFFFFF000
FFFFFFFFF000
FFFFFFFFF000
FFFFFFFFF000
03FFE0000000
03FFE0000000
03FFE0000000
03FFE0000000
03FFE0000000
03FFE0000000
03FFE0000000
03FFE0000000
03FFE0000000
03FFE0000000
03FFE0000000
03FFE0000000
03FFE0000000
03FFFFFFFFF0
03FFFFFFFFF0
03FFFFFFFFF0
03FFFFFFFFF0
03FFFFFFFFF0
03FFFFFFFFF0
03FFFFFFFFF0
03FFFFFFFFF0
03FFFFFFFFF0
03FFFFFFFFF0
03FFFFFFFFF0
03FFFFFFFFF0
00000000FF80
00000001FE00
00000007F800
00000007F000
0000000FE000
0000000FE000
0000001FC000
0000001FC000
0000001FC000
0000001FC030
0000001FE078
0000001FF1FC
0000000FFFFE
0000000FFFFF
00000007FFFE
00000003FFFC
00000001FFF0
000000007FC0
ENDCHAR
STARTCHAR 0119
ENCODING 281
SWIDTH 517 0
DWIDTH 46 0
BBX 48 80 2 -18
BITMAP
03FFFFFF8000
03FFFFFF8000
03FFFFFF8000
03FFFFFF8000
03FFFFFF8000
03FFFFFF8000
03FFFFFF8000
03FFFFFF8000
03FFFFFF8000
03FFFFFF8000
03FFFFFF8000
03FFFFFF8000
03FFE0000000
03FFE0000000
03FFE0000000
03FFE0000000
03FFE0000000
03FFE0000000
03FFE0000000
03FFE0000000
03FFE0000000
03FFE0000000
03FFE0000000
03FFE0000000
03FFE0000000
FFFFFFFFF000
FFFFFFFFF000
FFFFFFFFF000
FFFFFFFFF000
FFFFFFFFF000
FFFFFFFFF000
FFFFFFFFF000
FFFFFFFFF000
FFFFFFFFF000
FFFFFFFFF000
FFFFFFFFF000
FFFFFFFFF000
03FFE0000000
03FFE0000000
03FFE0000000
03FFE0000000
03FFE0000000
03FFE0000000
03FFE0000000
03FFE0000000
03FFE0000000
03FFE0000000
03FFE0000000
03FFE0000000
03FFE0000000
03FFFFFFFFF0
03FFFFFFFFF0
03FFFFFFFFF0
03FFFFFFFFF0
03FFFFFFFFF0
03FFFFFFFFF0
03FFFFFFFFF0
03FFFFFFFFF0
03FFFFFFFFF0
03FFFFFFFFF0
03FFFFFFFFF0
03FFFFFFFFF0
00000000FF80
00000001FE00
00000007F800
00000007F000
0000000FE000
0000000FE000
0000001FC000
0000001FC000
0000001FC000
0000001FC030
0000001FE078
0000001FF1FC
0000000FFFFE
0000000FFFFF
00000007FFFE
00000003FFFC
00000001FFF0
000000007FC0
ENDCHAR
STARTCHAR 011A
ENCODING 282
SWIDTH 517 0
DWIDTH 46 0
BBX 44 79 2 0
BITMAP
007FFFFC0000
003FFFF80000
001FFFF00000
001FFFE00000
000FFFC00000
0007FF800000
0003FF000000
0001FF000000
0000FE000000
00007C000000
000038000000
000030000000
000000000000
000000000000
000000000000
000000000000
000000000000
03FFFFFF8000
03FFFFFF8000
03FFFFFF8000
03FFFFFF8000
03FFFFFF8000
03FFFFFF8000
03FFFFFF8000
03FFFFFF8000
03FFFFFF8000
03FFFFFF8000
03FFFFFF8000
03FFFFFF8000
03FFE0000000
03FFE0000000
03FFE0000000
03FFE0000000
03FFE0000000
03FFE0000000
03FFE0000000
03FFE0000000
03FFE0000000
03FFE0000000
03FFE0000000
03FFE0000000
03FFE0000000
FFFFFFFFF000
FFFFFFFFF000
FFFFFFFFF000
FFFFFFFFF000
FFFFFFFFF000
FFFFFFFFF000
FFFFFFFFF000
FFFFFFFFF000
FFFFFFFFF000
FFFFFFFFF000
FFFFFFFFF000
FFFFFFFFF000
03FFE0000000
03FFE0000000
03FFE0000000
03FFE0000000
03FFE0000000
03FFE0000000
03FFE0000000
03FFE0000000
03FFE0000000
03FFE0000000
03FFE0000000
03FFE0000000
03FFE0000000
03FFFFFFFFF0
03FFFFFFFFF0
03FFFFFFFFF0
03FFFFFFFFF0
03FFFFFFFFF0
03FFFFFFFFF0
03FFFFFFFFF0
03FFFFFFFFF0
03FFFFFFFFF0
03FFFFFFFFF0
03FFFFFFFFF0
03FFFFFFFFF0
ENDCHAR
STARTCHAR 011B
ENCODING 283
SWIDTH 517 0
DWIDTH 46 0
BBX 44 79 2 0
BITMAP
007FFFFC0000
003FFFF80000
001FFFF00000
001FFFE00000
000FFFC00000
0007FF800000
0003FF000000
0001FF000000
0000FE000000
00007C000000
000038000000
000030000000
000000000000
000000000000
000000000000
000000000000
000000000000
03FFFFFF8000
03FFFFFF8000
03FFFFFF8000
03FFFFFF8000
03FFFFFF8000
03FFFFFF8000
03FFFFFF8000
03FFFFFF8000
03FFFFFF8000
03FFFFFF8000
03FFFFFF8000
03FFFFFF8000
03FFE0000000
03FFE0000000
03FFE0000000
03FFE0000000
03FFE0000000
03FFE0000000
03FFE0000000
03FFE0000000
03FFE0000000
03FFE0000000
03FFE0000000
03FFE0000000
03FFE0000000
FFFFFFFFF000
FFFFFFFFF000
FFFFFFFFF000
FFFFFFFFF000
FFFFFFFFF000
FFFFFFFFF000
FFFFFFFFF000
FFFFFFFFF000
FFFFFFFFF000
FFFFFFFFF000
FFFFFFFFF000
FFFFFFFFF000
03FFE0000000
03FFE0000000
03FFE0000000
03FFE0000000
03FFE0000000
03FFE0000000
03FFE0000000
03FFE0000000
03FFE0000000
03FFE0000000
03FFE0000000
03FFE0000000
03FFE0000000
03FFFFFFFFF0
03FFFFFFFFF0
03FFFFFFFFF0
03FFFFFFFFF0
03FFFFFFFFF0
03FFFFFFFFF0
03FFFFFFFFF0
03FFFFFFFFF0
03FFFFFFFFF0
03FFFFFFFFF0
03FFFFFFFFF0
03FFFFFFFFF0
ENDCHAR
STARTCHAR 011E
ENCODING 286
SWIDTH 821 0
DWIDTH 73 0
BBX 70 79 3 -1
BITMAP
000001FFFFE0000000
000001FFFFE0000000
000001FFFFE0000000
000001FFFFC0000000
000000FFFFC0000000
000000FFFF80000000
0000007FFF80000000
0000003FFF00000000
0000001FFC00000000
00000007F800000000
000000000000000000
000000000000000000
000000000000000000
000000000000000000
00000000E000000000
0000007FFFC0000000
000003FFFFFC000000
00001FFFFFFF000000
00007FFFFFFFC00000
0001FFFFFFFFE00000
0003FFFFFFFFF80000
000FFFFFFFFFFC0000
001FFFFFFFFFFE0000
003FFFFFFFFFFF0000
007FFFFFFFFFFF8000
00FFFFFFFFFFFF0000
01FFFFFFFFFFFE0000
01FFFFF801FFFC0000
03FFFF80003FF80000
07FFFE00001FF00000
07FFFC000007E00000
0FFFF8000003C00000
0FFFE0000001800000
1FFFC0000000000000
1FFFC0000000000000
3FFF80000000000000
3FFF00000000000000
3FFF00000000000000
7FFE00000000000000
7FFE00000000000000
7FFE00000000000000
7FFC0000FFFFFFFFFC
7FFC0000FFFFFFFFFC
FFFC0000FFFFFFFFFC
FFFC0000FFFFFFFFFC
FFFC0000FFFFFFFFFC
FFFC0000FFFFFFFFFC
FFFC0000FFFFFFFFFC
FFFC0000FFFFFFFFFC
FFFC0000FFFFFFFFFC
FFFC0000FFFFFFFFFC
7FFC0000FFFFFFFFFC
7FFC0000FFFFFFFFFC
7FFE000000001FFF80
7FFE000000003FFF80
7FFE000000003FFF00
3FFF000000003FFF00
3FFF000000007FFF00
3FFF800000007FFF00
1FFFC0000000FFFE00
1FFFE0000001FFFE00
0FFFF0000001FFFC00
0FFFF8000003FFFC00
07FFFC00000FFFF800
07FFFF00001FFFF800
03FFFFC0007FFFF000
01FFFFF807FFFFE000
00FFFFFFFFFFFFE000
00FFFFFFFFFFFFC000
007FFFFFFFFFFF8000
003FFFFFFFFFFF0000
001FFFFFFFFFFE0000
0007FFFFFFFFFC0000
0003FFFFFFFFF80000
0000FFFFFFFFE00000
00007FFFFFFF800000
00000FFFFFFE000000
000003FFFFF8000000
0000003FFF80000000
ENDCHAR
STARTCHAR 011F
ENCODING 287
SWIDTH 821 0
DWIDTH 73 0
BBX 70 79 3 -1
BITMAP
000001FFFFE0000000
000001FFFFE0000000
000001FFFFE0000000
000001FFFFC0000000
000000FFFFC0000000
000000FFFF80000000
0000007FFF80000000
0000003FFF00000000
0000001FFC00000000
00000007F800000000
000000000000000000
000000000000000000
000000000000000000
000000000000000000
00000000E000000000
0000007FFFC0000000
000003FFFFFC000000
00001FFFFFFF000000
00007FFFFFFFC00000
0001FFFFFFFFE00000
0003FFFFFFFFF80000
000FFFFFFFFFFC0000
001FFFFFFFFFFE0000
003FFFFFFFFFFF0000
007FFFFFFFFFFF8000
00FFFFFFFFFFFF0000
01FFFFFFFFFFFE0000
01FFFFF801FFFC0000
03FFFF80003FF80000
07FFFE00001FF00000
07FFFC000007E00000
0FFFF8000003C00000
0FFFE0000001800000
1FFFC0000000000000
1FFFC0000000000000
3FFF80000000000000
3FFF00000000000000
3FFF00000000000000
7FFE00000000000000
7FFE00000000000000
7FFE00000000000000
7FFC0000FFFFFFFFFC
7FFC0000FFFFFFFFFC
FFFC0000FFFFFFFFFC
FFFC0000FFFFFFFFFC
FFFC0000FFFFFFFFFC
FFFC0000FFFFFFFFFC
FFFC0000FFFFFFFFFC
FFFC0000FFFFFFFFFC
FFFC0000FFFFFFFFFC
FFFC0000FFFFFFFFFC
7FFC0000FFFFFFFFFC
7FFC0000FFFFFFFFFC
7FFE000000001FFF80
7FFE000000003FFF80
7FFE000000003FFF00
3FFF000000003FFF00
3FFF000000007FFF00
3FFF800000007FFF00
1FFFC0000000FFFE00
1FFFE0000001FFFE00
0FFFF0000001FFFC00
0FFFF8000003FFFC00
07FFFC00000FFFF800
07FFFF00001FFFF800
03FFFFC0007FFFF000
01FFFFF807FFFFE000
00FFFFFFFFFFFFE000
00FFFFFFFFFFFFC000
007FFFFFFFFFFF8000
003FFFFFFFFFFF0000
001FFFFFFFFFFE0000
0007FFFFFFFFFC0000
0003FFFFFFFFF80000
0000FFFFFFFFE00000
00007FFFFFFF800000
00000FFFFFFE000000
000003FFFFF8000000
0000003FFF80000000
ENDCHAR
STARTCHAR 0120
ENCODING 288
SWIDTH 821 0
DWIDTH 73 0
BBX 70 84 3 -1
BITMAP
00000003F000000000
00000007FC00000000
0000000FFE00000000
0000001FFF00000000
0000003FFF00000000
0000003FFF80000000
0000003FFF80000000
0000003FFF80000000
0000003FFF80000000
0000003FFF80000000
0000003FFF00000000
0000001FFF00000000
0000001FFE00000000
0000000FFC00000000
00000003F800000000
000000000000000000
000000000000000000
000000000000000000
000000000000000000
00000000E000000000
0000007FFFC0000000
000003FFFFFC000000
00001FFFFFFF000000
00007FFFFFFFC00000
0001FFFFFFFFE00000
0003FFFFFFFFF80000
000FFFFFFFFFFC0000
001FFFFFFFFFFE0000
003FFFFFFFFFFF0000
007FFFFFFFFFFF8000
00FFFFFFFFFFFF0000
01FFFFFFFFFFFE0000
01FFFFF801FFFC0000
03FFFF80003FF80000
07FFFE00001FF00000
07FFFC000007E00000
0FFFF8000003C00000
0FFFE0000001800000
1FFFC0000000000000
1FFFC0000000000000
3FFF80000000000000
3FFF00000000000000
3FFF00000000000000
7FFE00000000000000
7FFE00000000000000
7FFE00000000000000
7FFC0000FFFFFFFFFC
7FFC0000FFFFFFFFFC
FFFC0000FFFFFFFFFC
FFFC0000FFFFFFFFFC
FFFC0000FFFFFFFFFC
FFFC0000FFFFFFFFFC
FFFC0000FFFFFFFFFC
FFFC0000FFFFFFFFFC
FFFC0000FFFFFFFFFC
FFFC0000FFFFFFFFFC
7FFC0000FFFFFFFFFC
7FFC0000FFFFFFFFFC
7FFE000000001FFF80
7FFE000000003FFF80
7FFE000000003FFF00
3FFF000000003FFF00
3FFF000000007FFF00
3FFF800000007FFF00
1FFFC0000000FFFE00
1FFFE0000001FFFE00
0FFFF0000001FFFC00
0FFFF8000003FFFC00
07FFFC00000FFFF800
07FFFF00001FFFF800
03FFFFC0007FFFF000
01FFFFF807FFFFE000
00FFFFFFFFFFFFE000
00FFFFFFFFFFFFC000
007FFFFFFFFFFF8000
003FFFFFFFFFFF0000
001FFFFFFFFFFE0000
0007FFFFFFFFFC0000
0003FFFFFFFFF80000
0000FFFFFFFFE00000
00007FFFFFFF800000
00000FFFFFFE000000
000003FFFFF8000000
0000003FFF80000000
ENDCHAR
STARTCHAR 0121
ENCODING 289
SWIDTH 821 0
DWIDTH 73 0
BBX 70 84 3 -1
BITMAP
00000003F000000000
00000007FC00000000
0000000FFE00000000
0000001FFF00000000
0000003FFF00000000
0000003FFF80000000
0000003FFF80000000
0000003FFF80000000
0000003FFF80000000
0000003FFF80000000
0000003FFF00000000
0000001FFF00000000
0000001FFE00000000
0000000FFC00000000
00000003F800000000
000000000000000000
000000000000000000
000000000000000000
000000000000000000
00000000E000000000
0000007FFFC0000000
000003FFFFFC000000
00001FFFFFFF000000
00007FFFFFFFC00000
0001FFFFFFFFE00000
0003FFFFFFFFF80000
000FFFFFFFFFFC0000
001FFFFFFFFFFE0000
003FFFFFFFFFFF0000
007FFFFFFFFFFF8000
00FFFFFFFFFFFF0000
01FFFFFFFFFFFE0000
01FFFFF801FFFC0000
03FFFF80003FF80000
07FFFE00001FF00000
07FFFC000007E00000
0FFFF8000003C00000
0FFFE0000001800000
1FFFC0000000000000
1FFFC0000000000000
3FFF80000000000000
3FFF00000000000000
3FFF00000000000000
7FFE00000000000000
7FFE00000000000000
7FFE00000000000000
7FFC0000FFFFFFFFFC
7FFC0000FFFFFFFFFC
FFFC0000FFFFFFFFFC
FFFC0000FFFFFFFFFC
FFFC0000FFFFFFFFFC
FFFC0000FFFFFFFFFC
FFFC0000FFFFFFFFFC
FFFC0000FFFFFFFFFC
FFFC0000FFFFFFFFFC
FFFC0000FFFFFFFFFC
7FFC0000FFFFFFFFFC
7FFC0000FFFFFFFFFC
7FFE000000001FFF80
7FFE000000003FFF80
7FFE000000003FFF00
3FFF000000003FFF00
3FFF000000007FFF00
3FFF800000007FFF00
1FFFC0000000FFFE00
1FFFE0000001FFFE00
0FFFF0000001FFFC00
0FFFF8000003FFFC00
07FFFC00000FFFF800
07FFFF00001FFFF800
03FFFFC0007FFFF000
01FFFFF807FFFFE000
00FFFFFFFFFFFFE000
00FFFFFFFFFFFFC000
007FFFFFFFFFFF8000
003FFFFFFFFFFF0000
001FFFFFFFFFFE0000
0007FFFFFFFFFC0000
0003FFFFFFFFF80000
0000FFFFFFFFE00000
00007FFFFFFF800000
00000FFFFFFE000000
000003FFFFF8000000
0000003FFF80000000
ENDCHAR
STARTCHAR 0124
ENCODING 292
SWIDTH 585 0
DWIDTH 52 0
BBX 46 81 2 0
BITMAP
000000400000
000000E00000
000001F00000
000003F80000
000003FC0000
000007FE0000
00000FFF0000
00001FFF0000
00003FFF8000
00007FFFC000
0000FFFFE000
0000FFFFF000
0001FFFFF800
000000000000
000000000000
000000000000
000000000000
000000000000
000000000000
03FFE000FFFC
03FFE000FFFC
03FFE000FFFC
03FFE000FFFC
03FFE000FFFC
03FFE000FFFC
03FFE000FFFC
03FFE000FFFC
03FFE000FFFC
03FFE000FFFC
03FFE000FFFC
03FFE000FFFC
03FFE000FFFC
03FFE000FFFC
03FFE000FFFC
03FFE000FFFC
03FFE000FFFC
03FFE000FFFC
03FFE000FFFC
03FFE000FFFC
03FFE000FFFC
03FFE000FFFC
03FFE000FFFC
03FFE000FFFC
03FFE000FFFC
03FFE000FFFC
03FFE000FFFC
FFFFFFFFFFFC
FFFFFFFFFFFC
FFFFFFFFFFFC
FFFFFFFFFFFC
FFFFFFFFFFFC
FFFFFFFFFFFC
FFFFFFFFFFFC
FFFFFFFFFFFC
FFFFFFFFFFFC
FFFFFFFFFFFC
FFFFFFFFFFFC
FFFFFFFFFFFC
FFFFFFFFFFFC
03FFE000FFFC
03FFE000FFFC
03FFE000FFFC
03FFE000FFFC
03FFE000FFFC
03FFE000FFFC
03FFE000FFFC
03FFE000FFFC
03FFE000FFFC
03FFE000FFFC
03FFE000FFFC
03FFE000FFFC
03FFE000FFFC
03FFE000FFFC
03FFE000FFFC
03FFE000FFFC
03FFE000FFFC
03FFE000FFFC
03FFE000FFFC
03FFE000FFFC
03FFE000FFFC
03FFE000FFFC
ENDCHAR
STARTCHAR 0125
ENCODING 293
SWIDTH 585 0
DWIDTH 52 0
BBX 46 81 2 0
BITMAP
000000400000
000000E00000
000001F00000
000003F80000
000003FC0000
000007FE0000
00000FFF0000
00001FFF0000
00003FFF8000
00007FFFC000
0000FFFFE000
0000FFFFF000
0001FFFFF800
000000000000
000000000000
000000000000
000000000000
000000000000
000000000000
03FFE000FFFC
03FFE000FFFC
03FFE000FFFC
03FFE000FFFC
03FFE000FFFC
03FFE000FFFC
03FFE000FFFC
03FFE000FFFC
03FFE000FFFC
03FFE000FFFC
03FFE000FFFC
03FFE000FFFC
03FFE000FFFC
03FFE000FFFC
03FFE000FFFC
03FFE000FFFC
03FFE000FFFC
03FFE000FFFC
03FFE000FFFC
03FFE000FFFC
03FFE000FFFC
03FFE000FFFC
03FFE000FFFC
03FFE000FFFC
03FFE000FFFC
03FFE000FFFC
03FFE000FFFC
FFFFFFFFFFFC
FFFFFFFFFFFC
FFFFFFFFFFFC
FFFFFFFFFFFC
FFFFFFFFFFFC
FFFFFFFFFFFC
FFFFFFFFFFFC
FFFFFFFFFFFC
FFFFFFFFFFFC
FFFFFFFFFFFC
FFFFFFFFFFFC
FFFFFFFFFFFC
FFFFFFFFFFFC
03FFE000FFFC
03FFE000FFFC
03FFE000FFFC
03FFE000FFFC
03FFE000FFFC
03FFE000FFFC
03FFE000FFFC
03FFE000FFFC
03FFE000FFFC
03FFE000FFFC
03FFE000FFFC
03FFE000FFFC
03FFE000FFFC
03FFE000FFFC
03FFE000FFFC
03FFE000FFFC
03FFE000FFFC
03FFE000FFFC
03FFE000FFFC
03FFE000FFFC
03FFE000FFFC
03FFE000FFFC
ENDCHAR
STARTCHAR 0128
ENCODING 296
SWIDTH 258 0
DWIDTH 23 0
BBX 21 56 0 0
BITMAP
1F0000
FFE008
FFFFF8
FFFFF8
FFFFF8
FFFFF8
FFFFF8
FFFFF8
E0FFF8
001FF0
000000
000000
000000
000000
000000
000000
000000
000000
07FFC0
07FFC0
07FFC0
07FFC0
07FFC0
07FFC0
07FFC0
07FFC0
07FFC0
07FFC0
07FFC0
07FFC0
07FFC0
07FFC0
07FFC0
07FFC0
07FFC0
07FFC0
07FFC0
07FFC0
07FFC0
07FFC0
07FFC0
07FFC0
07FFC0
07FFC0
07FFC0
07FFC0
07FFC0
07FFC0
07FFC0
07FFC0
07FFC0
07FFC0
07FFC0
07FFC0
07FFC0
07FFC0
ENDCHAR
STARTCHAR 0129
ENCODING 297
SWIDTH 258 0
DWIDTH 23 0
BBX 21 56 0 0
BITMAP
1F0000
FFE008
FFFFF8
FFFFF8
FFFFF8
FFFFF8
FFFFF8
FFFFF8
E0FFF8
001FF0
000000
000000
000000
000000
000000
000000
000000
000000
07FFC0
07FFC0
07FFC0
07FFC0
07FFC0
07FFC0
07FFC0
07FFC0
07FFC0
07FFC0
07FFC0
07FFC0
07FFC0
07FFC0
07FFC0
07FFC0
07FFC0
07FFC0
07FFC0
07FFC0
07FFC0
07FFC0
07FFC0
07FFC0
07FFC0
07FFC0
07FFC0
07FFC0
07FFC0
07FFC0
07FFC0
07FFC0
07FFC0
07FFC0
07FFC0
07FFC0
07FFC0
07FFC0
ENDCHAR
STARTCHAR 012A
ENCODING 298
SWIDTH 258 0
DWIDTH 23 0
BBX 25 54 -1 0
BITMAP
FFFFFF80
FFFFFF80
FFFFFF80
FFFFFF80
FFFFFF80
FFFFFF80
FFFFFF80
FFFFFF80
FFFFFF80
00000000
00000000
00000000
00000000
00000000
00000000
00000000
03FFE000
03FFE000
03FFE000
03FFE000
03FFE000
03FFE000
03FFE000
03FFE000
03FFE000
03FFE000
03FFE000
03FFE000
03FFE000
03FFE000
03FFE000
03FFE000
03FFE000
03FFE000
03FFE000
03FFE000
03FFE000
03FFE000
03FFE000
03FFE000
03FFE000
03FFE000
03FFE000
03FFE000
03FFE000
03FFE000
03FFE000
03FFE000
03FFE000
03FFE000
03FFE000
03FFE000
03FFE000
03FFE000
ENDCHAR
STARTCHAR 012B
ENCODING 299
SWIDTH 258 0
DWIDTH 23 0
BBX 25 54 -1 0
BITMAP
FFFFFF80
FFFFFF80
FFFFFF80
FFFFFF80
FFFFFF80
FFFFFF80
FFFFFF80
FFFFFF80
FFFFFF80
00000000
00000000
00000000
00000000
00000000
00000000
00000000
03FFE000
03FFE000
03FFE000
03FFE000
03FFE000
03FFE000
03FFE000
03FFE000
03FFE000
03FFE000
03FFE000
03FFE000
03FFE000
03FFE000
03FFE000
03FFE000
03FFE000
03FFE000
03FFE000
03FFE000
03FFE000
03FFE000
03FFE000
03FFE000
03FFE000
03FFE000
03FFE000
03FFE000
03FFE000
03FFE000
03FFE000
03FFE000
03FFE000
03FFE000
03FFE000
03FFE000
03FFE000
03FFE000
ENDCHAR
STARTCHAR 012E
ENCODING 302
SWIDTH 247 0
DWIDTH 22 0
BBX 27 89 -2 -17
BITMAP
00040000
000C0000
000E0000
001E0000
001F0000
001F0000
003F0000
003F8000
03FFF000
FFFFFFE0
7FFFFFC0
3FFFFF00
1FFFFE00
0FFFFC00
07FFF800
01FFF000
01FFF000
03FFF000
03FFF000
03FFF000
03FFF800
03E1F800
07C07800
07001800
04000C00
00000000
00000000
00000000
00000000
00000000
00000000
00000000
00000000
01FFF000
01FFF000
01FFF000
01FFF000
01FFF000
01FFF000
01FFF000
01FFF000
01FFF000
01FFF000
01FFF000
01FFF000
01FFF000
01FFF000
01FFF000
01FFF000
01FFF000
01FFF000
01FFF000
01FFF000
01FFF000
01FFF000
01FFF000
01FFF000
01FFF000
01FFF000
01FFF000
01FFF000
01FFF000
01FFF000
01FFF000
01FFF000
01FFF000
01FFF000
01FFF000
01FFF000
01FFF000
01FFF000
00FF8000
01FE0000
03FC0000
07F00000
0FF00000
0FE00000
0FC00000
1FC00000
1FC01000
1FC03800
1FE07C00
0FF1FE00
0FFFFF00
0FFFFF00
07FFFE00
03FFFC00
01FFF000
007FC000
ENDCHAR
STARTCHAR 012F
ENCODING 303
SWIDTH 247 0
DWIDTH 22 0
BBX 27 89 -2 -17
BITMAP
00040000
000C0000
000E0000
001E0000
001F0000
001F0000
003F0000
003F8000
03FFF000
FFFFFFE0
7FFFFFC0
3FFFFF00
1FFFFE00
0FFFFC00
07FFF800
01FFF000
01FFF000
03FFF000
03FFF000
03FFF000
03FFF800
03E1F800
07C07800
07001800
04000C00
00000000
00000000
00000000
00000000
00000000
00000000
00000000
00000000
01FFF000
01FFF000
01FFF000
01FFF000
01FFF000
01FFF000
01FFF000
01FFF000
01FFF000
01FFF000
01FFF000
01FFF000
01FFF000
01FFF000
01FFF000
01FFF000
01FFF000
01FFF000
01FFF000
01FFF000
01FFF000
01FFF000
01FFF000
01FFF000
01FFF000
01FFF000
01FFF000
01FFF000
01FFF000
01FFF000
01FFF000
01FFF000
01FFF000
01FFF000
01FFF000
01FFF000
01FFF000
01FFF000
00FF8000
01FE0000
03FC0000
07F00000
0FF00000
0FE00000
0FC00000
1FC00000
1FC01000
1FC03800
1FE07C00
0FF1FE00
0FFFFF00
0FFFFF00
07FFFE00
03FFFC00
01FFF000
007FC000
ENDCHAR
STARTCHAR 0130
ENCODING 304
SWIDTH 258 0
DWIDTH 23 0
BBX 16 59 4 0
BITMAP
07E0
1FF8
3FFC
3FFE
7FFE
7FFF
FFFF
FFFF
FFFF
7FFF
7FFE
7FFE
3FFC
1FF8
07F0
0000
0000
0000
0000
0000
0000
7FFC
7FFC
7FFC
7FFC
7FFC
7FFC
7FFC
7FFC
7FFC
7FFC
7FFC
7FFC
7FFC
7FFC
7FFC
7FFC
7FFC
7FFC
7FFC
7FFC
7FFC
7FFC
7FFC
7FFC
7FFC
7FFC
7FFC
7FFC
7FFC
7FFC
7FFC
7FFC
7FFC
7FFC
7FFC
7FFC
7FFC
7FFC
ENDCHAR
STARTCHAR 0139
ENCODING 313
SWIDTH 472 0
DWIDTH 42 0
BBX 35 80 5 0
BITMAP
00FFC00000
00FF800000
01FF000000
01FF000000
03FE000000
03FC000000
07FC000000
07F8000000
0FF0000000
0FF0000000
0FE0000000
0000000000
0000000000
0000000000
0000000000
0000000000
0000000000
0000000000
FFF8000000
FFF8000000
FFF8000000
FFF8000000
FFF8000000
FFF8000000
FFF8000000
FFF8000000
FFF8000000
FFF8000000
FFF8000000
FFF8000000
FFF8000000
FFF8000000
FFF8000000
FFF8000000
FFF8000000
FFF8000000
FFF8000000
FFF8000000
FFF8000000
FFF8000000
FFF8000000
FFF8000000
FFF8000000
FFF8000000
FFF8000000
FFF8000000
FFF8000000
FFF8000000
FFF8000000
FFF8000000
FFF8000000
FFF8000000
FFF8000000
FFF8000000
FFF8000000
FFF8000000
FFF8000000
FFF8000000
FFF8000000
FFF8000000
FFF8000000
FFF8000000
FFF8000000
FFF8000000
FFF8000000
FFF8000000
FFF8000000
FFF8000000
FFFFFFFFE0
FFFFFFFFE0
FFFFFFFFE0
FFFFFFFFE0
FFFFFFFFE0
FFFFFFFFE0
FFFFFFFFE0
FFFFFFFFE0
FFFFFFFFE0
FFFFFFFFE0
FFFFFFFFE0
FFFFFFFFE0
ENDCHAR
STARTCHAR 013A
ENCODING 314
SWIDTH 472 0
DWIDTH 42 0
BBX 35 80 5 0
BITMAP
00FFC00000
00FF800000
01FF000000
01FF000000
03FE000000
03FC000000
07FC000000
07F8000000
0FF0000000
0FF0000000
0FE0000000
0000000000
0000000000
0000000000
0000000000
0000000000
0000000000
0000000000
FFF8000000
FFF8000000
FFF8000000
FFF8000000
FFF8000000
FFF8000000
FFF8000000
FFF8000000
FFF8000000
FFF8000000
FFF8000000
FFF8000000
FFF8000000
FFF8000000
FFF8000000
FFF8000000
FFF8000000
FFF8000000
FFF8000000
FFF8000000
FFF8000000
FFF8000000
FFF8000000
FFF8000000
FFF8000000
FFF8000000
FFF8000000
FFF8000000
FFF8000000
FFF8000000
FFF8000000
FFF8000000
FFF8000000
FFF8000000
FFF8000000
FFF8000000
FFF8000000
FFF8000000
FFF8000000
FFF8000000
FFF8000000
FFF8000000
FFF8000000
FFF8000000
FFF8000000
FFF8000000
FFF8000000
FFF8000000
FFF8000000
FFF8000000
FFFFFFFFE0
FFFFFFFFE0
FFFFFFFFE0
FFFFFFFFE0
FFFFFFFFE0
FFFFFFFFE0
FFFFFFFFE0
FFFFFFFFE0
FFFFFFFFE0
FFFFFFFFE0
FFFFFFFFE0
FFFFFFFFE0
ENDCHAR
STARTCHAR 013D
ENCODING 317
SWIDTH 472 0
DWIDTH 42 0
BBX 39 79 1 0
BITMAP
FFFFF80000
7FFFF00000
3FFFE00000
1FFFC00000
0FFFC00000
07FF800000
03FF000000
03FE000000
01FC000000
00F8000000
0070000000
0030000000
0000000000
0000000000
0000000000
0000000000
0000000000
0FFF800000
0FFF800000
0FFF800000
0FFF800000
0FFF800000
0FFF800000
0FFF800000
0FFF800000
0FFF800000
0FFF800000
0FFF800000
0FFF800000
0FFF800000
0FFF800000
0FFF800000
0FFF800000
0FFF800000
0FFF800000
0FFF800000
0FFF800000
0FFF800000
0FFF800000
0FFF800000
0FFF800000
0FFF800000
0FFF800000
0FFF800000
0FFF800000
0FFF800000
0FFF800000
0FFF800000
0FFF800000
0FFF800000
0FFF800000
0FFF800000
0FFF800000
0FFF800000
0FFF800000
0FFF800000
0FFF800000
0FFF800000
0FFF800000
0FFF800000
0FFF800000
0FFF800000
0FFF800000
0FFF800000
0FFF800000
0FFF800000
0FFF800000
0FFFFFFFFE
0FFFFFFFFE
0FFFFFFFFE
0FFFFFFFFE
0FFFFFFFFE
0FFFFFFFFE
0FFFFFFFFE
0FFFFFFFFE
0FFFFFFFFE
0FFFFFFFFE
0FFFFFFFFE
0FFFFFFFFE
ENDCHAR
STARTCHAR 013E
ENCODING 318
SWIDTH 472 0
DWIDTH 42 0
BBX 39 79 1 0
BITMAP
FFFFF80000
7FFFF00000
3FFFE00000
1FFFC00000
0FFFC00000
07FF800000
03FF000000
03FE000000
01FC000000
00F8000000
0070000000
0030000000
0000000000
0000000000
0000000000
0000000000
0000000000
0FFF800000
0FFF800000
0FFF800000
0FFF800000
0FFF800000
0FFF800000
0FFF800000
0FFF800000
0FFF800000
0FFF800000
0FFF800000
0FFF800000
0FFF800000
0FFF800000
0FFF800000
0FFF800000
0FFF800000
0FFF800000
0FFF800000
0FFF800000
0FFF800000
0FFF800000
0FFF800000
0FFF800000
0FFF800000
0FFF800000
0FFF800000
0FFF800000
0FFF800000
0FFF800000
0FFF800000
0FFF800000
0FFF800000
0FFF800000
0FFF800000
0FFF800000
0FFF800000
0FFF800000
0FFF800000
0FFF800000
0FFF800000
0FFF800000
0FFF800000
0FFF800000
0FFF800000
0FFF800000
0FFF800000
0FFF800000
0FFF800000
0FFF800000
0FFFFFFFFE
0FFFFFFFFE
0FFFFFFFFE
0FFFFFFFFE
0FFFFFFFFE
0FFFFFFFFE
0FFFFFFFFE
0FFFFFFFFE
0FFFFFFFFE
0FFFFFFFFE
0FFFFFFFFE
0FFFFFFFFE
ENDCHAR
STARTCHAR 0141
ENCODING 321
SWIDTH 528 0
DWIDTH 47 0
BBX 44 62 1 0
BITMAP
007FFC000000
007FFC000000
007FFC000000
007FFC000000
007FFC000000
007FFC000000
007FFC000000
007FFC000000
007FFC000000
007FFC000000
007FFC000000
007FFC000000
007FFC000000
007FFC000000
007FFC000000
007FFC000000
007FFC000000
007FFC000000
007FFC038000
007FFC078000
007FFC1FC000
007FFC7FC000
007FFDFFE000
007FFFFFE000
007FFFFFC000
007FFFFF0000
007FFFFC0000
007FFFF00000
007FFFE00000
007FFF800000
00FFFE000000
03FFFC000000
0FFFFC000000
3FFFFC000000
FFFFFC000000
FFFFFC000000
7FFFFC000000
3FFFFC000000
3F7FFC000000
1C7FFC000000
107FFC000000
007FFC000000
007FFC000000
007FFC000000
007FFC000000
007FFC000000
007FFC000000
007FFC000000
007FFC000000
007FFC000000
007FFFFFFFF0
007FFFFFFFF0
007FFFFFFFF0
007FFFFFFFF0
007FFFFFFFF0
007FFFFFFFF0
007FFFFFFFF0
007FFFFFFFF0
007FFFFFFFF0
007FFFFFFFF0
007FFFFFFFF0
007FFFFFFFF0
ENDCHAR
ENDFONT
